<?xml version="1.0" encoding="UTF-8"?>
<svg id="Layer_1" xmlns="http://www.w3.org/2000/svg" version="1.1" viewBox="0 0 2606.73 506.63">
  <!-- Generator: Adobe Illustrator 29.5.1, SVG Export Plug-In . SVG Version: 2.1.0 Build 141)  -->
  <defs>
    <style>
      .st0 {
        fill: #f7b2c1;
      }

      .st1 {
        fill: #030606;
        stroke-width: .04px;
      }

      .st1, .st2, .st3, .st4, .st5 {
        stroke: #221f1f;
      }

      .st6 {
        fill: #221f1f;
      }

      .st2 {
        stroke-width: 9.99px;
      }

      .st2, .st7 {
        fill: #fff;
      }

      .st2, .st8, .st3, .st4, .st5 {
        stroke-miterlimit: 10;
      }

      .st9 {
        fill: #f7baca;
      }

      .st10, .st8 {
        stroke: #000;
      }

      .st10, .st8, .st3, .st4, .st5 {
        stroke-width: 1.68px;
      }

      .st10, .st8, .st5 {
        fill: none;
      }

      .st11 {
        fill: #231f20;
      }

      .st3 {
        fill: #37944b;
      }

      .st4 {
        fill: #3f7cc0;
      }

      .st12 {
        fill: #4c5257;
      }

      .st13 {
        fill: #7e8387;
      }
    </style>
  </defs>
  <g>
    <g>
      <path class="st7" d="M464.07,27.81c-3.3-8.66-9.79-13.37-19.29-13.97-7.45-.48-16.71,1.59-28.31,6.31-10.98,4.46-22.27,10.61-30.89,15.46-8.08,4.56-15.22,8.7-22.78,13.08l-6.53,3.78c-20.75-17.3-45.61-29.72-69.5-36.14-31.86-8.55-79.35-9.73-108.5,4.59-19.71,9.68-51.11,30.52-61.53,54.48l-.71-.11c-19.69-3-42.51-5.9-62.53-4.66-26,1.61-40.43,10.16-42.9,25.42-1.75,10.83.4,19.62,6.4,26.14,10.12,11.01,29.46,13.77,49.4,13.77,11.21,0,22.62-.87,32.69-1.64,3.15-.24,6.13-.47,8.88-.65,2.64,37.84,24.7,81.96,66.84,133.8,15.33,18.82,43.37,44.9,76.14,61.56,37.27,18.96,69.72,19.86,93.83,2.63,48.65-34.75,62.26-132.93,59.53-190.47-.64-13.55-3.86-26.19-8.91-37.91l.4-.25c2.38-1.5,5.97-3.7,10.13-6.24,3.92-2.39,8.25-5.04,12.31-7.56,7.21-4.48,16.55-10.49,24.81-17.18,8.78-7.11,14.84-13.76,18.53-20.33,4.6-8.17,5.44-16.21,2.51-23.89Z"/>
      <path class="st11" d="M235.91,10c18.05,0,36.12,2.38,50.84,6.33,23.89,6.42,48.75,18.85,69.5,36.14l6.53-3.78c7.56-4.38,14.7-8.52,22.78-13.08,8.62-4.86,19.91-11,30.89-15.46,10.52-4.28,19.11-6.37,26.17-6.37.73,0,1.44.02,2.14.07,9.5.61,15.99,5.31,19.29,13.97,2.93,7.68,2.09,15.72-2.51,23.89-3.69,6.57-9.76,13.22-18.53,20.33-8.26,6.69-17.6,12.69-24.81,17.18-4.06,2.52-8.39,5.17-12.31,7.56-4.16,2.54-7.75,4.74-10.13,6.24l-.4.25c5.05,11.73,8.28,24.36,8.91,37.91,2.73,57.55-10.88,155.73-59.53,190.47-11.47,8.2-24.82,12.29-39.68,12.29-16.38,0-34.6-4.98-54.14-14.92-32.77-16.66-60.81-42.74-76.14-61.56-42.13-51.84-64.19-95.97-66.84-133.8-2.76.18-5.74.41-8.88.65-10.07.77-21.47,1.64-32.69,1.64-19.94,0-39.27-2.76-49.4-13.77-5.99-6.52-8.15-15.31-6.4-26.14,2.47-15.26,16.9-23.81,42.9-25.42,3.26-.2,6.6-.3,9.99-.3,17.39,0,36.07,2.44,52.55,4.96l.71.11c10.42-23.95,41.82-44.8,61.53-54.48,15.68-7.7,36.66-10.92,57.66-10.92M235.91,0v10S235.91,0,235.91,0c-17.22,0-41.97,2.07-62.07,11.94-7.96,3.91-45.96,23.68-62.75,52.5-14.92-2.16-31.63-4.11-47.63-4.11-3.68,0-7.25.11-10.61.31C13.88,63.06,2.99,80.36.71,94.45c-2.82,17.45,3.29,28.39,8.91,34.5,10.67,11.6,28.7,17,56.76,17,11.32,0,22.64-.85,32.69-1.61,5.56,37.64,27.88,80.11,67.96,129.43,16.01,19.66,45.26,46.83,79.37,64.17,20.87,10.62,40.61,16.01,58.68,16.01,17.05,0,32.36-4.76,45.5-14.16,12.73-9.09,23.9-22.45,33.2-39.72,7.98-14.82,14.62-32.54,19.71-52.65,8.36-33,12.4-72.89,10.79-106.72-.53-11.23-2.73-22.4-6.56-33.31,1.07-.66,2.21-1.35,3.39-2.07,3.91-2.39,8.3-5.07,12.39-7.61,7.46-4.64,17.14-10.86,25.83-17.9,9.78-7.92,16.63-15.51,20.96-23.2,6.04-10.73,7.12-21.92,3.14-32.36-4.67-12.29-14.62-19.53-28-20.39-.9-.06-1.84-.09-2.78-.09-8.38,0-18.17,2.33-29.94,7.11-11.5,4.68-23.16,11.02-32.03,16.02-8.14,4.59-15.3,8.74-22.89,13.14l-.61.35c-19.98-15.39-43.81-27.26-67.82-33.72C273.32,2.37,254.34,0,235.91,0h0Z"/>
    </g>
    <path d="M444.38,20.14c-6.48-.41-14.83,1.5-25.53,5.85-10.65,4.33-21.72,10.35-30.17,15.12-8.05,4.54-15.17,8.67-22.72,13.04l-2,1.16c12.27,12.06,21.81,26.11,31.11,40.7,2.12-1.31,4.7-2.89,7.54-4.62,3.9-2.38,8.22-5.02,12.27-7.54,7.06-4.39,16.18-10.25,24.17-16.72,8.15-6.6,13.71-12.66,17.01-18.52,3.69-6.55,4.38-12.62,2.11-18.55-2.4-6.32-6.79-9.47-13.79-9.92Z"/>
    <path d="M16.81,97.06c-1.44,8.94.13,15.77,4.81,20.86,13.74,14.94,51.78,12.03,76.96,10.1,2.1-.16,4.12-.32,6.06-.46.12-13.08,1.2-29.5,6.7-46.6-12.08-1.81-30.59-4.37-48.06-4.37-22.82,0-43.86,4.37-46.47,20.47Z"/>
    <ellipse class="st9" cx="316.82" cy="296.49" rx="30.56" ry="16.66" transform="translate(-32.77 39.45) rotate(-6.78)"/>
    <path class="st11" d="M348.68,136.88c9.93,0,17.99,10.06,17.99,22.47s-8.05,22.47-17.99,22.47-17.98-10.06-17.98-22.47c0-12.41,8.05-22.47,17.98-22.47Z"/>
    <path class="st7" d="M285.75,291.96c8.68-8.72,26.1-12.33,37.93-13.11,6.81-.44,14.56.21,19.98,4.83,4.61,3.95,7.54,11.47,5.08,17.33-5.07,11.96-25.02,12.99-35.83,13.2-6.66.13-13.54-.18-20.03-1.76-8.83-2.15-10.77-13.22-7.13-20.49Z"/>
    <path class="st7" d="M231.1,41.65c9.58-4.37,25.12-3.43,35.05-.47,18.5,5.52,12.56,104.56,10.75,105.13-13.19-16.62-67.21-83.62-67.21-83.62.69-9.2,13.97-17.65,21.4-21.03Z"/>
    <path class="st11" d="M202.6,154.86c9.93,0,17.98,10.06,17.98,22.48s-8.04,22.48-17.98,22.48-17.99-10.06-17.99-22.48,8.06-22.48,17.99-22.48Z"/>
    <path class="st13" d="M231.1,41.65c9.58-4.37,25.11-3.43,35.05-.47,18.5,5.52,12.56,104.56,10.75,105.13-13.18-16.62-67.2-83.62-67.2-83.62.69-9.2,13.97-17.65,21.4-21.03Z"/>
    <circle class="st11" cx="202.59" cy="177.34" r="11.24"/>
    <circle class="st11" cx="348.67" cy="159.35" r="11.18"/>
    <ellipse class="st0" cx="316.82" cy="296.47" rx="32.17" ry="17.54" transform="translate(-32.76 39.45) rotate(-6.78)"/>
  </g>
  <g>
    <g>
      <polygon class="st2" points="392.99 501.63 453.49 157.34 700.06 157.34 682.8 256.73 540.45 256.73 537.19 274.95 616.37 274.95 599.11 374.34 519.39 374.34 514.62 401.81 666.26 401.81 648.36 501.63 392.99 501.63"/>
      <path class="st12" d="M414.4,483.65l54.18-308.33h210.11l-11.01,63.43h-142.27l-9.69,54.18h79.29l-11.01,63.43h-79.73l-11.01,63.43h151.52l-11.45,63.87h-218.92Z"/>
    </g>
    <g>
      <path class="st2" d="M940.45,501.63l-11.45-59.9h-88.09l-32.6,59.9h-112.93l189.85-344.29h92.33l68.37,344.29h-105.48ZM911.69,344.54l-5.04-27.25-14.86,27.25h19.9Z"/>
      <path class="st12" d="M725.83,483.65l170.02-308.33h66.95l61.23,308.33h-68.71l-11.45-59.9h-113.64l-32.6,59.9h-71.8ZM861.5,362.52h71.8l-14.1-76.2c-.3-1.61-.74-4.04-1.32-7.27-.59-3.23-1.14-6.46-1.65-9.69-.52-3.23-.85-5.65-.99-7.27-.74,1.76-1.8,4.11-3.19,7.05-1.4,2.94-2.86,5.87-4.4,8.81-1.54,2.94-2.83,5.29-3.85,7.05l-42.29,77.52Z"/>
    </g>
    <g>
      <path class="st2" d="M1265.24,501.63l-24.23-109.24h-29.53l-19.38,109.24h-103.88l60.5-344.29h140.63c19.23,0,36.66,2.43,51.79,7.23,15.77,5,29.43,12.53,40.59,22.37,11.41,10.07,20.14,22.5,25.94,36.96,5.61,13.98,8.45,29.87,8.45,47.22,0,9.19-1.22,19.35-3.62,30.2-2.5,11.29-6.87,22.56-12.98,33.51-6.34,11.36-15.12,21.76-26.09,30.92-7.4,6.18-16.09,11.43-25.97,15.71l27.95,120.16h-110.19ZM1285.39,293.01c11.02,0,15.52-2.3,16.95-3.29,3.29-2.28,5.39-4.66,6.42-7.25,1.5-3.81,2.27-7.11,2.27-9.8,0-3.43-.66-6.15-2.03-8.29-1.26-1.98-3.39-3.6-6.5-4.94-4.11-1.77-10.1-2.71-17.32-2.71h-50.24l-6.19,36.28h56.66Z"/>
      <path class="st12" d="M1109.64,483.65l54.18-308.33h125.54c17.47,0,32.93,2.13,46.36,6.39,13.43,4.26,24.81,10.5,34.14,18.72,9.32,8.22,16.37,18.28,21.14,30.17,4.77,11.89,7.16,25.4,7.16,40.52,0,7.93-1.07,16.7-3.19,26.32-2.13,9.62-5.84,19.16-11.12,28.63-5.29,9.47-12.59,18.1-21.91,25.88-9.33,7.78-21.18,13.8-35.57,18.06l26.43,113.64h-73.12l-24.23-109.24h-59.02l-19.38,109.24h-67.39ZM1207.43,310.99h77.96c11.89,0,20.96-2.16,27.2-6.5,6.24-4.33,10.53-9.47,12.88-15.42,2.35-5.95,3.52-11.41,3.52-16.41,0-6.9-1.62-12.88-4.85-17.95-3.23-5.07-8.08-8.99-14.54-11.78-6.46-2.79-14.61-4.18-24.45-4.18h-65.41l-12.33,72.24Z"/>
    </g>
    <g>
      <polygon class="st2" points="1496.5 501.63 1539.67 257.61 1456.1 257.61 1473.26 157.34 1744.52 157.34 1727.35 257.61 1643.14 257.61 1599.97 501.63 1496.5 501.63"/>
      <path class="st12" d="M1517.94,483.65l43.17-244.02h-83.69l11.01-64.31h234.77l-11.01,64.31h-84.13l-43.17,244.02h-66.95Z"/>
    </g>
    <g>
      <polygon class="st2" points="1912.37 501.63 1934.4 374.78 1854.56 374.78 1832.09 501.63 1728.21 501.63 1788.71 157.34 1892.67 157.34 1871.52 275.83 1951.73 275.83 1972.87 157.34 2076.73 157.34 2016.23 501.63 1912.37 501.63"/>
      <path class="st12" d="M1749.62,483.65l54.18-308.33h67.39l-21.14,118.49h116.73l21.14-118.49h67.39l-54.18,308.33h-67.39l22.02-126.86h-116.29l-22.46,126.86h-67.39Z"/>
    </g>
  </g>
  <g>
    <path class="st7" d="M2362.77,498.46c-64.18,0-124.51-24.99-169.88-70.37-45.38-45.38-70.37-105.71-70.37-169.88s24.99-124.51,70.37-169.88c45.38-45.38,105.71-70.37,169.88-70.37s124.51,24.99,169.88,70.37c45.38,45.38,70.37,105.71,70.37,169.88s-24.99,124.51-70.37,169.88c-45.38,45.38-105.71,70.37-169.88,70.37Z"/>
    <path class="st6" d="M2362.77,502.16c-65.16,0-126.43-25.38-172.5-71.45-46.07-46.07-71.45-107.34-71.45-172.5s25.38-126.43,71.45-172.5c46.07-46.07,107.34-71.45,172.5-71.45s126.43,25.38,172.5,71.45c46.07,46.07,71.45,107.34,71.45,172.5s-25.38,126.43-71.45,172.5c-46.07,46.07-107.34,71.45-172.5,71.45ZM2362.77,21.65c-63.18,0-122.59,24.61-167.27,69.28-44.68,44.68-69.28,104.09-69.28,167.27s24.61,122.59,69.28,167.27c44.68,44.68,104.09,69.28,167.27,69.28s122.59-24.61,167.27-69.28c44.68-44.68,69.29-104.09,69.29-167.27s-24.61-122.59-69.29-167.27c-44.68-44.68-104.09-69.28-167.27-69.28h0Z"/>
  </g>
  <g>
    <g>
      <path class="st5" d="M2358.15,31.82c6.38-.1,12.79-.15,19.16.44,3.5.06,7.03.14,10.48.83,3.36.33,6.77.4,10.06,1.25,41.62,6.1,81.26,24.71,113.16,52.42,2.61,2.07,4.8,4.6,7.35,6.72,3.08,2.85,5.91,5.96,8.9,8.89,2.7,3.22,5.66,6.21,8.36,9.44,2.56,3.37,5.45,6.47,7.85,9.96,9.43,12.61,17.57,26.21,24.11,40.58,2.17,4.29,3.73,8.85,5.67,13.24,1.49,4.35,3.08,8.66,4.5,13.03,2.3,8.04,4.57,16.11,6.05,24.35.23,2.25,1.02,4.39,1.25,6.64.42,3.76,1.35,7.45,1.47,11.25.57,3.86.87,7.76.93,11.66.37,5.97.59,11.94.39,17.91.11,3.9-.5,7.76-.5,11.66.04,4.02-1,7.92-1.26,11.91-.07,2.75-.98,5.38-1.22,8.11-1.21,7.14-2.5,14.28-4.51,21.24-1.06,3.56-1.73,7.23-3.13,10.68-2.74,8.4-5.92,16.64-9.5,24.71-11.96,26.03-28.68,49.85-49.29,69.57-2.89,3.06-6.2,5.66-9.26,8.54-2.13,2.05-4.58,3.7-6.81,5.62-13.03,10.48-27.21,19.48-42.19,26.78-3.64,1.57-7.1,3.55-10.84,4.89-4.03,1.67-8,3.5-12.19,4.73-7.7,2.86-15.59,5.18-23.57,7.06-2.46.89-5.09,1.01-7.6,1.68-3.78.54-7.47,1.59-11.3,1.84-2.85.7-5.78.99-8.7,1.17-3.52.58-7.09.89-10.66.94-5.62.35-11.25.6-16.88.44-5.33.15-10.62-.63-15.94-.6-4.12-.54-8.23-1.13-12.38-1.4-2.83-.88-5.81-.94-8.69-1.59-3.44-.53-6.83-1.37-10.26-1.97-8.94-2.3-17.88-4.68-26.53-7.96-15.04-5.62-29.62-12.61-43.18-21.31-6.97-4.49-13.67-9.39-20.23-14.46-3.96-3.48-8.16-6.7-11.89-10.45-3.47-2.85-6.47-6.21-9.64-9.39-1.69-1.5-3.03-3.32-4.55-4.97-3.77-3.86-7-8.18-10.41-12.35-3.37-4.52-6.86-8.95-9.87-13.72-4.64-6.86-8.72-14.1-12.59-21.43-1.58-2.7-2.72-5.62-4.09-8.42-.9-1.99-1.95-3.92-2.69-5.98-1.42-3.79-3.19-7.43-4.43-11.28-.66-2.2-1.55-4.32-2.31-6.48-1.94-6.03-3.64-12.13-5.1-18.3-1.15-3.81-1.68-7.78-2.38-11.69-.57-2.19-.83-4.43-1.09-6.68-.97-4.89-1.25-9.88-1.88-14.83-.62-10.42-1.08-20.89-.23-31.31.13-3.64.03-7.32.84-10.89.26-2.48.54-4.95.69-7.44.82-3.01,1.01-6.12,1.67-9.16,1.12-7.67,3.35-15.11,5.26-22.61,4.36-14.89,10.29-29.3,17.52-42.99,3.2-5.87,6.64-11.59,10.19-17.26,4.77-7.15,9.87-14.08,15.33-20.7,5.32-6.38,10.81-12.64,16.88-18.31,3.4-3.66,7.33-6.74,11.01-10.1,3.9-3.13,7.65-6.47,11.73-9.35,7.92-5.93,16.28-11.24,24.85-16.14,4.24-2.22,8.37-4.69,12.75-6.61,2.63-1.19,5.19-2.55,7.83-3.7,3.4-1.17,6.65-2.74,10.02-4,5.9-2.04,11.73-4.29,17.8-5.77,3.82-1.2,7.77-1.95,11.61-3.09,3.97-.85,7.99-1.43,11.94-2.38,3.44-.25,6.79-1.15,10.22-1.48,1.6-.39,3.27-.08,4.85-.53,5.65-.79,11.38-.7,17.07-1.11M2351.86,33.25c-4.84.03-9.59,1.09-14.4,1.5-7,.68-13.94,1.79-20.8,3.34-4.31.63-8.44,2.05-12.65,3.11-7.46,1.97-14.75,4.52-21.95,7.29-2.02.82-4.17,1.27-6.09,2.34,2.68.65,4.71,2.68,6.48,4.69.2,2.85-.11,5.72-.3,8.56-1.22,1.22-2.99,1.66-4.46,2.52-2.53,1.41-5.28,2.37-7.82,3.74-.31,2.5,1.01,4.95.74,7.46-.67,1.6-1.67,3.03-2.39,4.6-.45.77-.75,1.71-1.47,2.28-1.57.5-3.45.23-4.73,1.45-2.74,2.07-5.08,4.59-7.27,7.23-.56.57,0,1.3.31,1.83,1.53,2.37,2.99,4.77,4.71,7,1.9.07,3.79,0,5.69-.04.49,1.17.98,2.38,1.02,3.66-1.16,2.53-3.16,4.57-4.29,7.12,1.53-.18,3.06-.4,4.55-.79,1.6-.37,2.76-1.62,4.01-2.61,4.49-3.62,8.13-8.14,12.18-12.23,1.12-1.16,2.64-1.77,3.85-2.82.46-.97.33-2.12.49-3.16.11-2.03.52-4.03,1.11-5.97,3.1-.56,6.22-1.01,9.36-1.31,1.92-.15,3.53-1.3,5.08-2.34-.37-1.47-.74-2.95-1.06-4.44,1.48-1.2,2.84-2.91,4.85-3.12,1.92-.29,3.86-.45,5.79-.6,2.29-.08,4.25-1.46,6.01-2.8.57-1.56.07-3.39.29-5.05,2.48-.51,4.92-1.19,7.4-1.7,3.26-.72,6.63-.42,9.92-.86,1.54-.7,2.33-2.51,3.91-3.14,2.98-.31,5.97.27,8.96.25.49,1.5.74,3.06,1.14,4.58,2.2.68,4.29,1.73,6.57,2.1,1.95.3,3.9.69,5.88.85,2.94.25,5.8-.7,8.69-1.06,2.03-.14,3.49-1.72,5.23-2.58,1.16-.66,2.53-.55,3.8-.62,2.33-.05,4.68-.53,7-.12,1.52.26,3.04.53,4.56.84,1.46.29,2.69,1.24,4.12,1.62,1.61-.22,3.15-.83,4.66-1.42,1.81-.7,2.37-2.91,4.07-3.8.92-.52,2.11-1.37,3.09-.49,6.63,4.56,13.19,9.24,20.06,13.45,2.16,1.15,2.89,3.71,4.64,5.29,1.5.82,3.14,1.33,4.66,2.11-.2,1.56-.69,3.05-1,4.58,2.06.09,4.15.2,6.21-.03.87-.51,1.15-1.67,1.75-2.46.58.05,1.17.1,1.76.14,1.05.44,2.2.7,3.17,1.34.63,1.61,1.06,3.31,1.24,5.03l-.2.3c-2.97.71-6,1.19-9.01,1.69-2.75.41-4.94,2.3-7.29,3.63.76,1.48,1.88,2.72,2.77,4.13.9,1.4,1.84,2.9,3.4,3.63,5.27,2.76,10.6,5.41,15.88,8.14,1.43.85,2.65,2,3.94,3.04,1.49,1.2,2.29,2.99,3.27,4.59.95,1.55,1.82,3.15,2.79,4.68.78,1.35,2.3,1.9,3.6,2.6,1.79.87,3.46,2.05,5.43,2.46,1.48.34,2.98.67,4.5.77,1.25-1.1,1.3-3.07,2.48-4.24,1.81-1.16,4-1.54,5.72-2.87-2.21-1.87-5.26-2.46-7.22-4.67-2.98-3.11-6.1-6.15-9.83-8.31-1.68-.64-3.49-.87-5.12-1.65,1.5-1.6,3.48-2.62,5.01-4.19-.86-1.26-2.09-2.22-2.85-3.54.9-.91,1.75-1.87,2.64-2.8,3.37,2.18,6.81,4.28,10.43,6.03,1.7.86,3.74,1.05,5.28,2.2.93,2.57,1.16,5.34,2.04,7.92,1.29,2.37,3.03,4.45,4.43,6.76,1.03,1.75,2.65,3.28,2.87,5.41.55,4.15,1.02,8.34,2.21,12.36.35,1.08.35,2.46,1.39,3.15,2.09,1.75,5.11,2.65,6.14,5.42,1.38,3.09,3.26,5.92,4.65,8.99.19,3.49-.6,7.01-.34,10.51.42,1.49,1.4,2.74,2.21,4.03,1.74.03,3.52-.12,5.23.35,2.2.61,4.41,1.2,6.64,1.71.19,2.43.67,4.89.45,7.31-1.09,1.64-2.83,2.72-3.89,4.38-.25,1.98-.06,3.99-.06,5.99,1.35,1.27,2.81,2.41,4.13,3.71,1.31,1.29.6,3.33.93,4.97.65.87,1.69,1.33,2.58,1.92,1.83,1.06,3.52,2.37,5.44,3.27,1.84-.86,3.47-2.3,4.89-3.75,1.07-2.97,1.45-6.18,2.46-9.17.45-1.24,1.62-2.31,1.38-3.73-1.23-1.95-3.73-2.79-4.6-5.04-1.62-3.66-3.69-7.07-5.78-10.47-1.25-1.81-.56-4.13-.73-6.18.11-2.15-.81-4.12-1.58-6.06-1-2.4-1.26-5.02-1.78-7.55,2.94-.3,5.9-.19,8.86-.3.37-1.06.71-2.13,1.04-3.21-1.76-1.15-3.78-1.77-5.67-2.68-1.34-.65-2.89-1.01-3.92-2.16,1.49-.81,2.98-1.66,4.59-2.22,1.75-.46,3.62.21,5.35-.39,1.2-.42,2.36-.92,3.56-1.36.2-1.48.28-2.97.2-4.46-1.87-1.36-4.09-2.23-5.79-3.82-.67-1.5-1.04-3.13-1.52-4.7-.86-2.94.01-5.99-.15-8.98-.79-2.55-2.04-4.93-2.9-7.45-.37-1.12-.47-2.42-1.41-3.24-3.4-3.5-6.58-7.22-10.17-10.52-2.27-2.29-4.73-4.37-6.98-6.67-2.14-2.17-4.47-4.14-6.94-5.9-3.62-2.71-7.17-5.51-10.79-8.2-3.48-2.32-6.95-4.63-10.43-6.94-7.21-5.08-15.32-8.61-22.96-12.97-6.1-2.78-12.26-5.39-18.39-8.09-2.98-1.17-6.11-1.83-9.15-2.82-4.61-1.47-9.23-2.95-13.89-4.26-2.74-.92-5.55-1.6-8.42-1.95-5.36-1.04-10.77-1.86-16.15-2.75-3.26-.71-6.57-1.12-9.89-1.32-6.15-.77-12.38-.56-18.53-1.26-4.91.56-9.87.43-14.81.44M2250.04,64.42c-10.9,6.43-21.28,13.77-30.93,21.99-17.09,14.26-31.75,31.35-44.06,49.96-1.88,3.09-3.8,6.14-5.64,9.24-1.95,3.72-4.31,7.2-6.03,11.05-2.81,5.32-5.16,10.88-7.61,16.37-1.57,4.61-3.75,9-5.04,13.71-1.01,3.48-2.41,6.84-3.27,10.37-1.66,6.2-3.15,12.45-4.58,18.72-.73,4.62-1.43,9.25-2.16,13.87-.32,3.88-.85,7.74-1.27,11.61.07,3.89-.49,7.74-.38,11.63.02,6.25-.19,12.51.3,18.74-.19,3.38.75,6.67.86,10.03.18,3.92,1.21,7.73,1.5,11.64,1.06,6.56,2.31,13.09,4.09,19.5.84,4.23,2.26,8.3,3.45,12.44,2.24,7.18,5.01,14.18,7.86,21.12,5.7,13.1,12.7,25.61,20.68,37.42,10,14.32,21.38,27.71,34.43,39.27,2.91,2.75,6.03,5.27,9.06,7.89,12.6,10.01,26.03,19.03,40.47,26.09,8.41,4.3,17.18,7.81,25.99,11.14,3.74,1.18,7.47,2.41,11.21,3.61,9.54,2.57,19.13,5.01,28.94,6.24,1.95.23,3.85.82,5.82.91,2.53.22,5.09.27,7.58.82,2.73.58,5.54.14,8.29.46,3.33.5,6.71.21,10.07.29,4.67-.08,9.37.24,14.02-.35,2.76-.09,5.54.02,8.27-.51,3.31-.57,6.84-.12,10.01-1.33-.27-1.26-.7-2.5-.74-3.79.51-2.1,1.91-3.86,2.36-5.98.05-1.69-.31-3.36-.44-5.04-1.8-.15-3.59-.37-5.39-.45-1.02-1.91-2.64-3.39-3.96-5.07-1.96-2.45-4.15-4.7-6.42-6.84-.74-.65-1.33-1.55-2.28-1.88-2.54-3.94-6.84-6-10.68-8.35-2.9-1.68-5.47-3.86-8.11-5.91-.74-.46-.56-1.41-.6-2.14.01-2.93,0-5.86-.09-8.79.89-1.47,1.76-2.97,2.44-4.55.45-.86.74-2.02,1.78-2.32,1.91-.73,3.88-1.29,5.79-2.03,2.04-.52,2.22-3,3.05-4.62.88-4.16-.17-8.64,1.19-12.75-2.12-.55-4.31-.66-6.49-.84-2.08.02-4.07.81-6.16.77-2.32.23-4.36-1.08-6.51-1.7-3.5-1.47-7.16-2.55-10.55-4.26-1.31-1.99-1.98-4.34-3.08-6.44-.97-1.8-1.33-4-2.9-5.41-1.29-1.2-2.61-2.36-3.9-3.55-1.83-1.69-4.02-2.88-6.03-4.31-2.46-1.77-5.4-2.6-8.11-3.87-3.06-1.2-6.02-2.72-9.18-3.64-5.39-1.8-10.83-3.45-16.02-5.81-.9-.43-1.62-1.14-2.35-1.8-2.32-2.1-4.56-4.28-6.9-6.34-1.48-1.29-2.74-2.93-4.61-3.67-2.19-1.09-4.52-1.97-6.54-3.37-1.57-1.94-2.99-4.04-4.17-6.24.15-2.13,1.87-4.03,1.29-6.23-.6-2.4-1-4.89-1.98-7.17-2.04-4.06-4.05-8.13-6.02-12.22-1.71-5.38-2.51-11.03-4.44-16.34-.26-.56-.4-1.24-.91-1.61-.73,0-1.46.09-2.18.16-.3,2.08.56,4.04.96,6.04.67,3.54,1,7.18,2.32,10.55.53,1.42.85,2.93,1.63,4.24,1.35,1.94,3.24,3.45,4.36,5.56-1.74-.22-3.45-.78-5.01-1.6-1.48-1.12-2.55-2.68-3.89-3.95-1.01-.97-1.9-2.1-2.32-3.45-1.41-4.26-3.14-8.41-4.29-12.76-2.32-8.49-4.92-16.89-7.3-25.36-.38-2.06.02-4.14.32-6.18.12-1.69.3-3.37.45-5.06.2-7.02,1.62-13.91,2.68-20.83,2.26-5.45,4.49-10.96,7.64-15.96,1.75-3.5,4.56-6.23,6.86-9.33-.6-2.76-1.46-5.51-1.44-8.36-.16-4.57.58-9.1.75-13.65,1.54-5.86,3.65-11.58,4.82-17.54.67-2.52,1.25-5.07,1.76-7.63.2-2.35-.23-4.69-.3-7.03-.06-2.6-1.48-4.84-2.18-7.28-.47-2.05-2.68-2.73-4.34-3.53-3.07-2.3-6.93-3.02-10.41-4.44-2.5-.81-4.71-2.44-7.27-2.99-.58-.5-1.42-.82-1.67-1.61-.59-1.79-1.24-3.58-1.59-5.44.28-.03.83-.09,1.11-.12,1.18,1.35,2.63,2.45,4.1,3.46,1.43.64,3.04.8,4.59.84.75-2.75,1.68-5.45,2.97-8,.75-1.39,1.1-3.17,2.53-4.04,1.33-.86,2.6-1.83,3.92-2.71.68-.47,1.54-.19,2.29-.1,2.13.44,4.25,1.01,6.43,1.2,1.85-2.31,2.21-5.4,3.89-7.79,1.71.27,3.43-.24,5.14.07.94.14,1.86.39,2.82.41,1.31-.4,2.34-1.51,3.75-1.65,1.78-.2,3.58-.14,5.37-.18,2.07-.08,3.9,1.06,5.71,1.91.2.85.44,1.7.79,2.52.18,1.74.63,3.44,1.03,5.14.53,2.35-.12,4.8.44,7.15.76,1.5,1.85,2.79,2.79,4.17,1.21,1.9,2.65,3.91,4.69,4.92,1.02,1.44,2.48,2.47,3.74,3.68,3.47,3.2,7.3,5.94,10.96,8.91,2.9,2.19,5.64,4.57,8.6,6.68.48-1.42.66-2.92.75-4.42-1.53-1.92-4.09-2.83-5.59-4.81-.49-1.67-.48-3.47-1.18-5.07-1.35-1.67-3.28-2.77-4.66-4.42l.02-.26c1.28-1.44,2.71-2.78,4.24-3.94,2.23-.33,4.5-.38,6.75-.49.69.93,1.34,1.89,2,2.85l.23.11c.49,1.18,1.07,2.39,2.04,3.25,1.44,1.13,3.32,1.54,4.67,2.79.64,1.11.91,2.39,1.41,3.57,1.78,3.64.55,7.81,1.24,11.67.58.86,1.56,1.32,2.36,1.95,1.07-.89,2.27-1.68,3.08-2.85.79-2.45.88-5.07,1.22-7.6,1.4-.3,2.86-.4,4.29-.2.67.06.56.86.66,1.34.39,3.1.35,6.28,1.29,9.29.17.84,1.17.84,1.81,1.1,1.22.27,2.39.79,3.65.91,1.66-.46,3.3-1.05,4.89-1.73-1.44-1.03-3.38-1.38-4.43-2.92-1.69-2.24-3.48-4.39-5.07-6.71,1.26-1.64,2.83-3,4.34-4.4.74-.8,1.93-.35,2.84-.16,2.07.67,4.27.97,6.22,2,3.5,1.83,6.95,3.74,10.5,5.48,1.38.88,2.91,1.51,4.25,2.47,1.92,2.6,2.12,6.42,4.88,8.39,2.34,1.84,5.48,2.28,7.8,4.16,1.53,2.26,2.56,4.84,4.2,7.04-1.14,1.39-2.44,2.64-3.48,4.1-.72,1.96-.93,4.07-1.42,6.09-1.93.33-3.84,1.06-5.81.96-1.41-.39-2.67-1.15-4.01-1.71-2.26-1.07-4.73-1.55-7.09-2.3-2.46-.64-5.03-.74-7.48-1.43.17-.54.45-1.05.94-1.35,1.73-1.3,3.47-2.58,5.12-3.99.32-.34.83-.65.82-1.18.21-2.19.37-4.4.26-6.6-.45-1.05-1.18-1.94-1.79-2.89-.53-.72-.95-1.65-1.87-1.91-2.91-1.07-5.91-1.87-8.88-2.75,1.09,1.42,2.46,2.57,3.52,4,.46.55-.19,1.12-.46,1.59-1.41,1.75-2.63,3.73-4.56,4.96-2.61,2.07-5.51,3.8-7.76,6.3-3.05,3.13-6.66,5.91-8.52,10.01-1.1,1.62-2.6,3.16-2.75,5.22-.17,1.58-.07,3.18-.31,4.75-.17,1.32-.46,2.67-.19,4,.73,1.34,1.62,2.59,2.46,3.87.38.79,1.34.72,2.07.91,1.55.62,3.24.73,4.84,1.18,2.42.55,4.66,1.65,6.9,2.68.39.3,1.16.37,1.16,1,.2,2.14.4,4.28.69,6.42.63,1.33,1.61,2.46,2.3,3.77,1.14,2.27,3.26,3.76,5.17,5.32.43-1.57.76-3.17.97-4.79.3-2.91.97-5.76,1.21-8.68-.05-2.15,1.75-3.6,2.59-5.42-.83-1.27-2.06-2.21-2.83-3.51-.45-2.77-.39-5.57-.56-8.36-.37-3.08-.38-6.2-.2-9.29.12-.1.36-.31.48-.42,1.55-.18,2.97-.93,4.51-1.09,3.4,1.27,6.64,2.95,10.05,4.21,2.92.88,3.81,4.23,6.05,5.99,3.36,1.38,7.06,1.03,10.56,1.7,1.02.43,1.83,1.23,2.72,1.9,3.01,2.37,6.12,4.61,9.1,7.03,2.07,1.94,3.68,4.31,5.6,6.4,1.97,1.97,2.51,4.8,3.51,7.31.65,1.17-.63,2.26-.47,3.43-.9,1.03-1.04,2.82-2.5,3.24-1.64.67-3.26,1.42-4.9,2.1-2.27.92-4.93.27-7.06,1.62-2.11,1.22-4.43,2.08-6.39,3.55-1.37,1.27-2.63,2.65-3.87,4.05-.57.47-.32,1.22-.25,1.86,3.37-1.04,6.01-3.44,8.72-5.6,1.55.38,3.16.62,4.62,1.31.85,1.45.35,3.31.99,4.84,2.95,1.37,6.06-.3,9.11-.11,1.14,1.32,1.52,3.22,2.11,4.87-2.93,1.9-6,3.59-9.05,5.28-2.49.92-3.75,3.35-5.66,5.02-1.26-.68-2.5-1.41-3.82-1.95-1.33.22-2.6.92-3.72,1.67-1.19,1.61-2.14,3.39-3.27,5.05-1.27,1.81-1.79,4-2.68,6.01-1.32.52-3.06.59-3.81,2-.97,1.5-1.99,2.96-3,4.43-1.16,1.95-1.57,4.24-2.43,6.32-.49,1.52-1.44,2.94-1.43,4.59,0,2.57-.35,5.13-.38,7.71-1.85,1.6-3.62,3.27-5.53,4.79-2.36,1.92-5.05,3.43-7.21,5.59-1.04,0-1.44,1.15-1.92,1.88-.9,1.97-2.57,3.61-2.81,5.85-.34,1.9-.95,3.81-.71,5.77.63,1.98,1.96,3.66,2.51,5.67.26.97.5,1.95.84,2.91-.22,1.46.41,2.9.36,4.38-1.56.52-3.15.91-4.71,1.44-3.37-4.07-5.92-8.76-9.06-13.01-.92-.86-2.21-1.14-3.33-1.65-1.47-.5-2.8-1.5-4.39-1.56-2.07-.1-4.11-.63-6.18-.62-1.09.3-2.04.97-3.04,1.48-1.44.8-3.11,1.01-4.72,1.19-1.2.2-2.22-.62-3.22-1.14-1.74-1.17-3.89-1.21-5.87-1.58-1.55-.32-3.06.23-4.55.55-1.87.42-3.78.65-5.59,1.31-.58.2-.76.91-1.1,1.36-.59.39-.9,1.09-1.34,1.63-1.44,2.13-3.2,4.04-4.43,6.32-.66,1.97-.5,4.1-.95,6.12-.59,2.74.46,5.46.42,8.21.1.73-.14,1.65.5,2.19,1.26,1.24,2.76,2.2,4.09,3.37,1.62,1.3,3.06,2.96,5.1,3.6,1.53.49,3,1.19,4.57,1.52,1.6-.14,3.18-.71,4.63-1.4,1.02-1.25,1.53-2.85,2.54-4.11,1.31-.94,2.96-1.19,4.45-1.75,1.07-.28,2.27-1.13,3.31-.3,1.45.9,3.04,1.62,4.3,2.79,0,1.48-.35,2.93-.45,4.4-.47,1.21-.45,2.52-.65,3.79-.48,1.86-1.78,3.36-2.39,5.18-.16,1.27.32,2.52.66,3.73,1.79.02,3.57.04,5.36-.14,2.67-.36,5.17.84,7.72,1.42,2.92.6,5.27,2.63,7.48,4.53.02,1.35-.15,2.7-.21,4.04-.08,2.04-.98,3.92-1.6,5.83-1.06,1.77-.07,3.91,1.12,5.32,1.97,1.65,4.1,3.12,6.21,4.56,2.91.9,6.02.62,8.99,1.15,1.5.19,2.94.67,4.43.9,1.67-1.26,2.86-3.09,4.56-4.33,2.15-1.57,3.9-3.76,6.42-4.76,1.34-.57,2.64-1.2,3.95-1.83.82-.37,1.74-.92,2.64-.46,3.18,1.14,6.32,2.4,9.57,3.32,2.03-.54,3.7-2.05,5.77-2.45,4.38-.1,8.76-.34,13.14-.34,3.92-.33,7.61-1.92,11.51-2.35,1.14.12,2.15.71,3.26.98,1.4.9,2.99,1.4,4.49,2.08,2.92,1.23,5.82,2.72,9.03,2.93,2.35.48,4.7.95,7.07,1.38,5.21.13,10.43-.12,15.65-.02.88.02,1.54.73,2.28,1.15.03.44.26.82.56,1.15,1.65,1.94,3.32,3.87,4.96,5.82.9,1.06,1.7,2.26,2.91,2.99,4.04-.44,8.06-1.03,12.08-1.62,4.51-1.15,9.06-2.1,13.56-3.27,3.16-.82,5.85-3.39,9.24-3.15,1.25.47,2.47,1.08,3.5,1.95,1.28,1.07,2.78,1.89,3.85,3.19-.43,1.42-1.57,2.48-2.29,3.76-2.66,4.06-5.54,7.98-8.26,11.99-1.23,2.61-1.98,5.44-3.21,8.06-1.16,2.15-.76,4.64-.85,6.99,2.47-1.6,4.36-3.92,6.66-5.73,9.56-8.94,18.58-18.5,26.5-28.97,5.9-7.51,11.1-15.55,16.06-23.71,1.94-3.72,4.19-7.27,6-11.07,3.86-7.19,7.05-14.73,9.94-22.37,1.41-3.42,2.64-6.91,3.7-10.46,3.2-8.72,5.1-17.85,7.11-26.91.8-5.4,1.81-10.78,2.36-16.22-1.48.53-3.17.98-4.09,2.38-2.69,4.12-5.35,8.27-7.87,12.5-2.78-.01-5.37-1.16-8.09-1.58-1.33-.06-1.96-1.42-3.07-1.89-1.31-2.21-3.3-3.87-4.93-5.81-1.43-1.51-2.08-3.52-2.94-5.37-.85-1.79-1.61-3.62-2.45-5.41-2.01-3.99-2.96-8.41-4.43-12.61-1.49-4.23-1.17-8.85-2.32-13.14-.35-3.57-.15-7.16-.17-10.74.07-3.95-.18-7.92.32-11.86.08-1.67.43-3.46-.35-5.02-2.53-5.62-4.95-11.33-6.57-17.29.45-3.06,1.39-6.13,3.08-8.74,1.52-2.13,1.03-5.01.41-7.37-1.37,3.3-1.66,6.94-2.92,10.28-1.32,1.7-3.27,2.82-4.94,4.14-.66.65-1.37-.06-1.96-.4-2.34-1.52-4.82-2.84-7.06-4.51-.85-1.47-.46-3.32-.87-4.94-1.04-1.32-2.47-2.25-3.69-3.39-.49-.5-1.23-.92-1.16-1.73-.09-1.92-.16-3.85.04-5.77.63-1.35,1.91-2.23,2.88-3.32.52-.62,1.35-1.2,1.22-2.12-.06-1.68-.08-3.38-.41-5.03-.11-.11-.33-.33-.44-.43-1.9-.76-3.95-1.03-5.91-1.6-1.69-.51-3.47-.15-5.19-.36-.82-.81-1.3-1.88-1.9-2.84-.39-.71-.96-1.4-.88-2.26.02-2.16-.09-4.35.36-6.48.24-1.59.5-3.39-.49-4.79-1.62-2.61-2.83-5.43-4.31-8.12-.85-1.77-2.76-2.53-4.24-3.64-.92-.69-2.18-1.21-2.5-2.43-.54-1.85-.85-3.76-1.44-5.59l-.31-.1c.18-2.88-.87-5.64-1.04-8.49,0-1.8-1.25-3.16-2.15-4.58-1.34-2.1-2.78-4.13-4.17-6.2-1.99-2.75-1.73-6.38-3.01-9.43-5.31-1.6-10.01-4.6-14.72-7.47-.54.63-2.04,1.39-1.22,2.35.67,1.07,2.32,1.77,2.29,3.13-1.32,1.35-2.96,2.31-4.38,3.52,1.51.61,3.26.64,4.61,1.64.88.63,1.74,1.3,2.64,1.92,2.53,1.68,4.47,4.07,6.68,6.13,2.15,2.33,5.39,3.02,7.87,4.88.18.33.22.72.35,1.07-2.06.56-3.96,1.58-5.91,2.42-2.14.83-1.85,3.79-3.54,5.08-1.66-.12-3.25-.66-4.88-.97-2.32-.41-4.28-1.79-6.37-2.8-1.19-.66-2.58-1.2-3.28-2.46-1.55-2.6-3.06-5.22-4.66-7.79-.86-1.35-2.28-2.15-3.45-3.17-2.09-1.82-4.78-2.64-7.15-3.99-3.59-1.97-7.32-3.65-10.91-5.64-1.36-.68-2.12-2.05-2.92-3.27-1.12-1.75-2.44-3.34-3.56-5.09,1.22-1,2.63-1.72,3.81-2.75,1.27-.2,2.27-1.22,3.57-1.42,3.08-.65,6.19-1.17,9.31-1.58,0-1.48-.27-3.02-1.06-4.28-1.11-.63-2.39-.84-3.62-1.12-.45.87-.8,1.85-1.51,2.55-2.67.13-5.34.05-8.01.06.26-1.73.97-3.35,1.15-5.09-1.44-.65-2.98-1.11-4.31-2-1.73-1.6-2.56-4.07-4.68-5.27-6.75-4.19-13.26-8.75-19.78-13.29-.76-.62-1.67.11-2.34.51-1.69,1.02-2.27,3.41-4.29,3.92-1.61.48-3.17,1.17-4.84,1.42-1.58-.44-2.94-1.45-4.56-1.73-2.57-.52-5.16-1.24-7.79-.93-1.99.25-4,.2-5.99.41-2.19.89-3.87,3-6.35,3.09-3.31.27-6.57,1.59-9.92.9-2.64-.59-5.43-.53-7.96-1.58-1.36-.54-2.81-.91-4.06-1.7-.46-1.33-.56-2.75-.88-4.12-2.26-.33-4.54-.32-6.82-.34-2.29-.28-3.3,2.3-5.11,3.2-3.73.52-7.6,0-11.23,1.15-1.91.42-3.82.8-5.69,1.37-.01,1.47.1,2.94-.05,4.4-1.13,1.3-2.75,2.04-4.21,2.9-2.9,1.02-6.06.68-9.04,1.29-1.41.51-2.46,1.64-3.62,2.55.46,1.47.87,2.95,1.15,4.47-1.75,1.22-3.58,2.6-5.78,2.75-2.97.38-5.95.65-8.88,1.26-.87,2.3-.94,4.79-1.05,7.22l.26.33c-.44,1.14-1.3,1.99-2.38,2.52-2.04,1.05-3.42,2.92-4.99,4.53-3.25,3.23-6.16,6.85-9.82,9.63-1.26.95-2.38,2.25-3.97,2.61-2.18.55-4.38.99-6.62,1.19,1.31-3.09,3.71-5.58,5.01-8.66-.13-.81-.38-1.59-.6-2.37-1.73-.05-3.46.11-5.19-.03-1.62-1.05-2.38-3.01-3.6-4.46-.93-1.62-2.01-3.15-2.84-4.82,2.04-2.44,4.02-4.99,6.53-6.96,1.26-.96,2.29-2.52,4.01-2.57.88-.2,1.87-.12,2.67-.6,1.01-1.67,1.77-3.49,2.76-5.18.92-1.4.28-3.12-.12-4.58-.07-1.37-.23-2.74-.33-4.11,4.22-1.94,8.46-3.85,12.52-6.1-.1-2.61.26-5.2.33-7.8-1.89-1.87-3.9-4.11-6.72-4.24-8.6,3.64-16.89,8-24.93,12.76M2531.91,109.9c.53,2.41,1.95,4.49,2.59,6.85.26,1.93-.23,3.87-.19,5.8-.14,2.08.57,4.06,1.16,6.02.3.86.55,1.87,1.39,2.37,1.68,1.15,3.5,2.07,5.15,3.26,0,1.77.12,3.56-.23,5.3-1.57,1.09-3.52,1.51-5.33,2.05-2.44.01-5.24-.27-7.05,1.77,2.09,1.07,4.26,1.98,6.42,2.92.79.34,1.57.74,2.25,1.28-.51,1.44-.93,2.91-1.4,4.37-2.82.18-5.64-.02-8.46.25.07,3.56,1.7,6.78,2.83,10.07.97,2.97-.74,6.5,1.23,9.16,1.78,2.85,3.61,5.68,4.91,8.79.9,2.28,2.83,3.85,4.69,5.32,1.58-2.57.54-5.59.61-8.4-.41-4.69.26-9.37.57-14.05.43-.65,1.39-.61,2.02-1.02,1.92.06,3.77.62,5.64,1.06-.14-2.84.06-5.72-.55-8.51-.74-1.54-1.97-2.76-2.95-4.14-1.95-2.3-3.46-4.91-4.96-7.51,1.04-.27,2.11-.41,3.2-.5.66-1.25,1.9-2.57,1.38-4.08-.63-2.44-1.73-4.86-1.42-7.44,0-1.6.67-3.45-.49-4.8-2.1-2.75-4-5.64-6.25-8.26-2.29-2.62-4.18-5.63-6.79-7.94M2273.41,120.41c-2.2-.65-4.61-.78-6.79,0-.99,2.5-1.79,5.15-3.45,7.29-2.9.42-5.71-1.35-8.63-1.17-2.05,1.43-4.73,2.5-5.67,5.03-.87,1.92-1.89,3.79-2.5,5.83-.44,1.45-.86,2.91-1.51,4.27-1.69-.35-3.43-.47-5.09-.98-1.29-.66-2.21-1.88-3.57-2.45.34,1.28.44,2.85,1.45,3.79,4.02,2.12,8.25,3.81,12.56,5.23,3.16.98,5.9,2.88,8.82,4.37,1.04.47,1.39,1.64,1.88,2.59.5,2.27,1.81,4.32,1.96,6.69.22,3.25.84,6.59,0,9.81-1.02,4.36-1.85,8.77-3.18,13.05-.93,2.97-1.72,5.99-2.67,8.96-.58,1.7-.37,3.51-.6,5.27-.4,3.73-.71,7.49-.41,11.25.21,2.37,1.23,4.6,1.27,6.99-.92,1.55-2.24,2.8-3.33,4.22-2.42,2.7-3.92,6.05-5.82,9.1-1.85,3.52-3.24,7.26-4.87,10.88-1.27,4.11-1.37,8.49-2.28,12.68-.59,2.55-.37,5.19-.68,7.77-.28,4.02-1.11,8.03-.83,12.06,2.18,8.36,4.87,16.58,7.11,24.92,1.15,4.58,3.04,8.93,4.49,13.41.46,1.58,1.79,2.62,2.83,3.8,1.44,1.52,2.79,3.42,5.01,3.72-.89-1.82-2.72-3-3.33-4.97-.77-2.42-1.88-4.76-2.23-7.3-.65-3.72-1.34-7.44-2.17-11.12-.01-.58-.39-1.35.1-1.8,1.13-.49,2.37-.65,3.55-.98.67.92,1,2.02,1.36,3.09,1.81,5.12,2.55,10.55,4.24,15.7,1.99,4.3,4.21,8.5,6.25,12.78.8,2.24,1.21,4.61,1.84,6.9.58,2.03-.75,3.83-1.21,5.72-.22.71.43,1.27.74,1.85,1.09,1.42,1.88,3.06,3.08,4.38,3.2,2.08,7.2,2.93,9.85,5.84,3.28,2.92,6.39,6.05,9.76,8.84,6.29,3.08,13.12,4.78,19.68,7.19,4.13,1.81,8.34,3.43,12.43,5.33,3.23,2.05,6.57,4.05,9.31,6.78,1.17,1.16,2.59,2.08,3.58,3.42,1.81,3.51,3.11,7.31,5.08,10.72,4.42,2.07,9.08,3.64,13.67,5.32,2.22.85,4.58.07,6.84-.16,2.18-.43,4.36.18,6.54.23,1.1.15,2.46-.06,3.28.87-1.65,2.17-.9,5.04-1.21,7.56-.3,2.35.34,4.91-.86,7.07-.63,1.14-.97,2.53-1.92,3.43-2.37,1.24-5.12,1.56-7.46,2.87-1.18,1.9-2.05,3.99-3.06,5.99-.43,2.4.01,4.87-.14,7.3.1.98-.33,2.29.63,2.95,1.11.97,2.34,1.8,3.5,2.73,3.51,2.82,7.66,4.66,11.28,7.31,3.12,2.79,5.98,5.87,8.97,8.82,2.75,2.66,4.87,5.89,7.54,8.61,1.69.86,3.68.25,5.47.68.33,1.64.34,3.32.5,4.99.21,2.15-1.21,3.96-1.95,5.87-.9,1.55.18,3.25.53,4.8,3.48-.24,6.86-1.22,10.3-1.75,4.07-.87,8.16-1.65,12.23-2.57,4.8-1.26,9.52-2.79,14.25-4.29,3.22-1.09,6.6-1.68,9.71-3.11,4.12-1.87,8.35-3.47,12.48-5.33,2.81-1.32,5.82-2.21,8.5-3.83,7.68-4.33,15.41-8.56,23.08-12.92,6.29-4.56,12.49-9.26,18.75-13.88,1.1-.81,2.38-1.45,3.22-2.56.6-2.59-.23-5.41.92-7.89,1-2.35,1.92-4.73,2.81-7.12.86-2.4,2.64-4.24,4.03-6.32,2.02-3.09,4.32-5.99,6.22-9.16.19-.41.54-.82.46-1.31-1.16-1.22-2.62-2.11-3.95-3.12-1.3-.99-3.11-1.52-4.65-.83-2.92,1.26-5.77,2.78-8.91,3.42-3.91.88-7.79,1.87-11.7,2.7-2.68.47-5.4.6-8.08,1.1-1.66.19-3.41.8-5.01.05-1.09-1.66-2.44-3.1-3.72-4.61-1.83-1.95-3.29-4.26-5.3-6.01-5.31-.25-10.65.13-15.96-.09-3.15-.47-6.27-1.08-9.4-1.65-2.23-.36-4.19-1.57-6.3-2.34-2.76-1.06-5.36-2.56-8.2-3.37-3.37.59-6.66,1.6-10.02,2.27-4.47.3-8.96-.06-13.42.29-2.56.18-4.58,2-6.97,2.7-3.24-1.03-6.41-2.29-9.64-3.36-1.07-.39-2.07.3-3.01.71-1.9.98-4.06,1.55-5.68,3.02-1.53,1.33-3.18,2.51-4.67,3.88-1.26,1.26-2.43,2.63-3.83,3.75-4.29-1.02-8.67-1.48-13.07-1.76-1.23-.04-2.06-1.12-3.03-1.75-1.61-1.3-3.45-2.29-4.96-3.72-.74-1.18-1.17-2.56-1.41-3.93.43-2.27,1.53-4.34,2.03-6.59.3-1.6.23-3.25.2-4.87-1.19-.73-2.29-1.6-3.44-2.39-1.72-1.22-3.85-1.42-5.79-2.07-3.57-1.37-7.42-.17-11.1-.76-.4-1.46-.97-2.94-.81-4.48.6-2.07,2.22-3.72,2.49-5.91.31-2.34.86-4.64,1.02-6.99-1.45-.94-2.83-2.02-4.43-2.67-2.01.43-3.98,1.17-5.84,2.05-1.37,1.2-1.82,3.11-3.01,4.45-1.62.66-3.32,1.3-5.07,1.47-2.88-.89-6.05-1.54-8.3-3.71-1.92-1.67-3.94-3.22-5.87-4.88-.72-.54-.85-1.46-.94-2.29-.3-3.22-.66-6.47-.61-9.69.75-1.95.47-4.16,1.32-6.07,1.76-2.74,3.83-5.26,5.69-7.93.49-.62.9-1.42,1.72-1.62,2.44-.72,4.97-1.09,7.45-1.66,2.02-.52,4.07.09,6.08.36,1.61.15,2.91,1.19,4.31,1.9.95.57,2.09.27,3.12.17,2.15-.21,3.75-1.87,5.75-2.52,1.04-.16,2.08.14,3.12.23,2.08.31,4.31.1,6.21,1.16,1.68.86,3.53,1.36,5.18,2.29,1.41,1.37,2.29,3.21,3.46,4.79,1.71,2.84,3.75,5.44,5.57,8.21,1.28-.3,2.56-.62,3.76-1.18-.63-2.61-.67-5.41-1.9-7.84-.7-1.56-1.68-3.01-2.06-4.68.11-1.99.64-3.92.92-5.88.35-2.8,2.9-4.63,3.49-7.32,2.06-1.15,3.85-2.72,5.77-4.09,2.89-2.02,5.63-4.28,8.13-6.77.36-2.95.07-6,.69-8.93,1.07-2.93,2.12-5.88,3.26-8.79,1.1-2,2.51-3.81,3.79-5.7.76-1.21,2.3-1.26,3.44-1.92.62-.72.81-1.7,1.19-2.56.88-2.52,2.6-4.59,3.9-6.89,1.01-2.07,3.36-2.81,5.36-3.5,1.29.55,2.49,1.31,3.78,1.9.94-.99,1.74-2.1,2.69-3.08,1.28-1.16,2.94-1.76,4.42-2.62,2.24-1.3,4.45-2.65,6.7-3.93-.49-1.22-1-2.45-1.55-3.64-3.21.32-6.57,1.38-9.65-.14-.29-1.57-.06-3.27-.65-4.74-1.16-.48-2.38-.8-3.61-.98-.95.3-1.63,1.12-2.41,1.73-2.02,1.86-4.52,3.09-7.1,3.94-.34-.93-.88-1.95-.53-2.95.63-.87,1.46-1.57,2.2-2.35,1.25-1.23,2.3-2.76,3.96-3.47,1.85-.86,3.63-1.86,5.41-2.85,1.28-.74,2.8-.67,4.22-.85,1.96-.1,3.69-1.13,5.49-1.81,1.08-.49,2.5-.78,2.92-2.07.54-1.54,1.9-3.14,1.14-4.82-.84-2.12-1.3-4.51-2.91-6.21-1.48-1.7-2.93-3.43-4.36-5.17-1.44-1.78-3.42-2.95-5.17-4.37-1.92-1.53-3.93-2.95-5.84-4.51-.83-.63-1.65-1.42-2.74-1.47-3.35-.28-6.75-.53-9.98-1.5-1.74-1.57-2.68-3.91-4.53-5.36-3.28-1.62-6.74-2.85-10.06-4.4-1.64-.93-3.34.4-4.96.77-.19,5.22.05,10.44.43,15.65-.12,2.18,2.59,3,3.03,4.92-.6,1.79-2.3,3.1-2.46,5.06-.15,2.05-.68,4.03-.92,6.07-.3,3.16-1.24,6.21-1.54,9.37-1.59-.77-2.75-2.17-4.1-3.28-1.7-1.4-2.65-3.44-3.88-5.22-.53-.86-1.23-1.72-1.23-2.78-.09-1.92-.21-3.84-.6-5.72-2.61-1-5.02-2.58-7.82-2.98-2.1-.49-4.24-.85-6.27-1.56-.91-1-1.55-2.21-2.41-3.25-.72-1.13-1.28-2.43-.94-3.81.49-2.54.39-5.13.65-7.69.23-1.77,1.63-3.04,2.47-4.53,1.27-2.01,2.39-4.16,4.15-5.79,2.24-2.17,4.45-4.38,6.69-6.55,2.15-1.72,4.33-3.39,6.57-5,1.71-1.29,2.76-3.22,4.14-4.83-1.02-1.47-2.28-2.72-3.51-3.99-1.67.53-3.24,1.32-4.93,1.76-1.99-.43-3.98-1.01-5.86-1.77-.76-.97-.67-2.43-1.07-3.6-.35-2.42-.31-4.9-.84-7.3-1.03.02-2.06.06-3.08.14-.44,2.38-.67,4.81-1.29,7.15-1.07,1.32-2.33,2.65-3.85,3.42-1.2-.64-2.37-1.43-3.21-2.52-.54-3.17.15-6.43-.45-9.59-.62-1.82-1.25-3.65-2.02-5.41-1.41-1.32-3.45-1.67-4.87-2.97-1.47-1.78-2.31-4.04-3.92-5.71-1.51-.03-3.01.2-4.52.22-.63.06-1.35-.04-1.81.47-1.1.92-2.18,1.89-3.09,3.01,1.46,1.33,3.11,2.5,4.36,4.05.69,1.59.55,3.42,1.17,5.04,1.73,1.84,3.97,3.08,5.82,4.79-.42,2.07-.61,4.19-1.14,6.24-.8-.39-1.55-.88-2.23-1.45-5.16-4.08-10.36-8.11-15.51-12.21-2.97-2.54-5.84-5.19-8.76-7.79-1.87-1.65-2.96-3.94-4.46-5.9-.65-.94-1.55-1.85-1.55-3.07-.16-2.35.24-4.74-.36-7.04-.28-1.14-.59-2.28-.81-3.44-.14-1.02-.35-2.04-.63-3.03-.68-.3-1.35-.62-2.03-.91-2.38-1.17-5.09-.66-7.62-.71-2.1-.14-3.52,2.42-5.63,1.72M2546.23,131.32c-.23,2.76,1.44,5.21,1.64,7.91-.21,1.42-1.11,2.61-1.72,3.88-.78.1-1.57.2-2.33.32,1.32,3.4,3.86,6.08,6.03,8.93.51.72,1.21,1.4,1.31,2.32.39,3.14.32,6.32.43,9.48-2.46-.32-5.19-1.96-7.55-.65-1.07,5.84-1,11.87-.49,17.78.25,2.01-.59,3.91-.93,5.85-.39,2.5.24,4.99.26,7.49.02,1.48-1,2.67-1.66,3.91-1.11,1.76-1.56,3.81-2.1,5.79-.73,2.08.66,4.04,1.18,5.99,1,3.51,2.57,6.79,4.01,10.13.74,1.7,1.73,3.44,1.46,5.38-.48,6.94-.3,13.9-.37,20.85-.07,3.35.88,6.59,1.16,9.91.26,2.89.81,5.76,1.81,8.49,1.15,3.19,1.84,6.54,3.26,9.63,1.49,3.2,2.93,6.44,4.4,9.66.91,2.13,2.76,3.61,4.23,5.34,1.31,1.31,2.4,2.85,3.81,4.05,1.15.5,2.41.68,3.66.85,1.44.69,3.04.8,4.58,1.12.59-.76,1.16-1.55,1.65-2.38,1.88-3.32,4.12-6.41,6.08-9.68.93-1.88,3.22-2.04,4.85-3.01.7-.32.58-1.22.74-1.85.96-7.75,1.02-15.57,1.23-23.37.13-2.79-.35-5.55-.32-8.34.11-5.28-.46-10.54-1.22-15.75-.32-4.9-1.09-9.74-2.02-14.55-1.04-5.36-1.79-10.8-3.41-16.02-.33-.85-.28-1.99-.91-2.64-.13-1.72-.67-3.36-1.14-5.01-1.65-6.02-3.84-11.85-5.88-17.74-2.09-5.17-4.41-10.24-6.65-15.35-1.66-3.42-3.48-6.74-5.14-10.16-1.54-3.32-3.7-6.27-5.53-9.41-2.43-4.11-5.05-8.09-7.88-11.92-.3.9-.49,1.82-.52,2.77M2349.16,156.29c1.15,1.79,2.6,3.34,3.83,5.07.69.96,1.42,1.97,2.55,2.44,2.51,1.17,5.04,2.37,7.74,3.02,1.68.52,3.44.82,5.05,1.57.9.9,1.52,2.05,2.26,3.09.51.84,1.22,1.67,1.18,2.72,0,2.35-.23,4.7-.23,7.06-1.93,1.86-4.23,3.26-6.22,5.03,1.94.62,4,.62,5.95,1.2,3.31.95,6.67,1.85,9.76,3.44,1.98,1.2,4.29.19,6.33-.3.6-1.74.81-3.58,1.3-5.35.83-1.52,2.16-2.67,3.22-4.02-1.24-2.22-2.29-4.59-3.86-6.59-2.91-1.97-6.72-2.56-9.04-5.41-1-1.45-1.51-3.18-2.25-4.77-.44-.9-.73-2.02-1.67-2.53-4.41-2.53-8.99-4.75-13.46-7.19-1.91-1.09-4.08-1.54-6.18-2.09-.74-.14-1.52-.42-2.27-.22-1.48,1.11-2.76,2.46-3.99,3.84Z"/>
      <g>
        <path class="st4" d="M2528.23,152.15c.07,3.56,1.7,6.78,2.83,10.07.97,2.97-.74,6.5,1.23,9.16,1.78,2.85,3.61,5.68,4.91,8.79.9,2.28,2.83,3.85,4.69,5.32,1.58-2.57.54-5.59.61-8.4-.41-4.69.26-9.37.57-14.05.43-.65,1.39-.61,2.02-1.02,1.92.06,3.77.62,5.64,1.06-.14-2.84.06-5.72-.55-8.51-.74-1.54-1.97-2.76-2.95-4.14-1.95-2.3-3.46-4.91-4.96-7.51,1.04-.27,2.11-.41,3.2-.5.66-1.25,1.9-2.57,1.38-4.08-.63-2.44-1.73-4.86-1.42-7.44,0-1.6.67-3.45-.49-4.8-2.1-2.75-4-5.64-6.25-8.26-2.29-2.62-4.18-5.63-6.79-7.94.53,2.41,1.95,4.49,2.59,6.85.26,1.93-.23,3.87-.19,5.8-.14,2.08.57,4.06,1.16,6.02.3.86.55,1.87,1.39,2.37,1.68,1.15,3.5,2.07,5.15,3.26,0,1.77.12,3.56-.23,5.3-1.57,1.09-3.52,1.51-5.33,2.05-2.44.01-5.24-.27-7.05,1.77,2.09,1.07,4.26,1.98,6.42,2.92.79.34,1.57.74,2.25,1.28-.51,1.44-.93,2.91-1.4,4.37-2.82.18-5.64-.02-8.46.25Z"/>
        <path class="st4" d="M2580.85,284.08c-2.69,4.12-5.35,8.27-7.87,12.5-2.78-.01-5.37-1.16-8.09-1.58-1.33-.06-1.96-1.42-3.07-1.89-1.31-2.21-3.3-3.87-4.93-5.81-1.43-1.51-2.08-3.52-2.94-5.37-.85-1.79-1.61-3.62-2.45-5.41-2.01-3.99-2.96-8.41-4.43-12.61-1.49-4.23-1.17-8.85-2.32-13.14-.35-3.57-.15-7.16-.17-10.74.07-3.95-.18-7.92.32-11.86.08-1.67.43-3.46-.35-5.02-2.53-5.62-4.95-11.33-6.57-17.29.45-3.06,1.39-6.13,3.08-8.74,1.52-2.13,1.03-5.01.41-7.37-1.37,3.3-1.66,6.94-2.92,10.28-1.32,1.7-3.27,2.82-4.94,4.14-.66.65-1.37-.06-1.96-.4-2.34-1.52-4.82-2.84-7.06-4.51-.85-1.47-.46-3.32-.87-4.94-1.04-1.32-2.47-2.25-3.69-3.39-.49-.5-1.23-.92-1.16-1.73-.09-1.92-.16-3.85.04-5.77.63-1.35,1.91-2.23,2.88-3.32.52-.62,1.35-1.2,1.22-2.12-.06-1.68-.08-3.38-.41-5.03-.11-.11-.33-.32-.44-.43-1.9-.76-3.95-1.03-5.91-1.6-1.69-.51-3.47-.15-5.19-.36-.82-.81-1.3-1.88-1.9-2.84-.39-.71-.96-1.4-.88-2.26.02-2.16-.09-4.35.36-6.48.24-1.59.5-3.39-.49-4.79-1.62-2.61-2.83-5.43-4.31-8.12-.85-1.77-2.76-2.53-4.24-3.64-.92-.69-2.18-1.21-2.5-2.43-.54-1.85-.85-3.76-1.44-5.59l-.31-.1c.18-2.88-.87-5.64-1.04-8.49,0-1.8-1.25-3.16-2.15-4.58-1.34-2.1-2.78-4.13-4.17-6.2-1.99-2.75-1.73-6.38-3.01-9.43-5.31-1.6-10.01-4.6-14.72-7.47-.54.63-2.04,1.39-1.22,2.35.67,1.07,2.32,1.77,2.29,3.13-1.32,1.35-2.96,2.31-4.38,3.52,1.51.61,3.26.64,4.61,1.64.88.63,1.74,1.3,2.64,1.92,2.53,1.68,4.47,4.07,6.68,6.13,2.15,2.33,5.39,3.02,7.87,4.88.18.33.22.72.35,1.07-2.06.56-3.96,1.58-5.91,2.42-2.14.83-1.85,3.79-3.54,5.08-1.66-.12-3.25-.66-4.88-.97-2.32-.41-4.28-1.79-6.37-2.8-1.19-.66-2.58-1.2-3.28-2.46-1.55-2.6-3.06-5.22-4.66-7.79-.86-1.35-2.28-2.15-3.45-3.17-2.09-1.82-4.78-2.64-7.15-3.99-3.59-1.97-7.32-3.65-10.91-5.64-1.36-.68-2.12-2.05-2.92-3.27-1.12-1.75-2.44-3.34-3.56-5.09,1.22-1,2.63-1.72,3.81-2.75,1.27-.2,2.27-1.22,3.57-1.42,3.08-.65,6.19-1.17,9.31-1.58,0-1.48-.27-3.02-1.06-4.28-1.11-.63-2.39-.84-3.62-1.12-.45.87-.8,1.85-1.51,2.55-2.67.13-5.34.05-8.01.06.26-1.73.97-3.35,1.15-5.09-1.44-.65-2.98-1.11-4.31-2-1.73-1.6-2.56-4.07-4.68-5.27-6.75-4.19-13.26-8.75-19.78-13.29-.76-.62-1.67.11-2.34.51-1.69,1.02-2.27,3.41-4.29,3.92-1.61.48-3.17,1.17-4.84,1.42-1.58-.44-2.94-1.45-4.56-1.73-2.57-.52-5.16-1.24-7.79-.93-1.99.25-4,.2-5.99.41-2.19.89-3.87,3-6.35,3.1-3.31.27-6.57,1.59-9.92.9-2.64-.59-5.43-.53-7.96-1.58-1.36-.54-2.81-.91-4.06-1.7-.46-1.33-.56-2.75-.88-4.12-2.26-.33-4.54-.32-6.82-.34-2.29-.28-3.3,2.3-5.11,3.2-3.73.52-7.6,0-11.23,1.15-1.91.42-3.82.8-5.69,1.37-.01,1.47.1,2.94-.05,4.4-1.13,1.3-2.75,2.04-4.21,2.9-2.9,1.02-6.06.68-9.04,1.29-1.41.51-2.46,1.64-3.62,2.55.46,1.47.87,2.95,1.15,4.47-1.75,1.22-3.58,2.6-5.78,2.75-2.97.38-5.95.65-8.88,1.26-.87,2.3-.94,4.79-1.05,7.22l.26.33c-.44,1.14-1.3,1.99-2.38,2.52-2.04,1.05-3.42,2.92-4.99,4.53-3.25,3.23-6.16,6.85-9.82,9.63-1.26.95-2.38,2.25-3.97,2.61-2.18.55-4.38.99-6.62,1.19,1.31-3.09,3.71-5.58,5.01-8.66-.13-.81-.38-1.59-.6-2.37-1.73-.05-3.46.11-5.19-.03-1.62-1.05-2.38-3.01-3.6-4.46-.93-1.62-2.01-3.15-2.84-4.82,2.04-2.44,4.02-4.99,6.53-6.96,1.26-.96,2.29-2.52,4.01-2.57.88-.2,1.87-.12,2.67-.6,1.01-1.67,1.77-3.49,2.76-5.18.92-1.4.28-3.12-.12-4.58-.07-1.37-.23-2.74-.33-4.11,4.22-1.94,8.46-3.85,12.52-6.1-.1-2.61.26-5.2.33-7.8-1.89-1.87-3.9-4.11-6.72-4.24-8.6,3.64-16.89,8-24.93,12.76-10.9,6.43-21.28,13.77-30.93,21.99-17.09,14.26-31.75,31.35-44.06,49.96-1.88,3.09-3.8,6.14-5.64,9.24-1.95,3.72-4.31,7.2-6.03,11.05-2.81,5.32-5.16,10.88-7.61,16.37-1.57,4.61-3.75,9-5.04,13.71-1.01,3.48-2.41,6.84-3.27,10.37-1.66,6.2-3.15,12.45-4.58,18.72-.73,4.62-1.43,9.25-2.16,13.87-.32,3.88-.85,7.74-1.27,11.61.07,3.89-.49,7.74-.38,11.63.02,6.25-.19,12.51.3,18.74-.19,3.38.75,6.67.86,10.03.18,3.92,1.21,7.73,1.5,11.64,1.06,6.56,2.31,13.09,4.09,19.5.84,4.23,2.26,8.3,3.45,12.44,2.24,7.18,5.01,14.18,7.86,21.12,5.7,13.1,12.7,25.61,20.68,37.42,10,14.32,21.38,27.71,34.43,39.27,2.91,2.75,6.03,5.27,9.06,7.89,12.6,10.01,26.03,19.03,40.47,26.09,8.41,4.3,17.18,7.81,25.99,11.14,3.74,1.18,7.47,2.41,11.21,3.61,9.54,2.57,19.13,5.01,28.94,6.24,1.95.23,3.85.82,5.82.91,2.53.22,5.09.27,7.58.82,2.73.58,5.54.14,8.29.46,3.33.5,6.71.21,10.07.29,4.67-.08,9.37.24,14.02-.35,2.76-.09,5.54.02,8.27-.51,3.31-.57,6.84-.12,10.01-1.33-.27-1.26-.7-2.5-.74-3.79.51-2.1,1.91-3.86,2.36-5.98.05-1.69-.31-3.36-.44-5.04-1.8-.15-3.59-.37-5.39-.45-1.02-1.91-2.64-3.39-3.96-5.07-1.96-2.45-4.15-4.7-6.42-6.84-.74-.65-1.33-1.55-2.28-1.88-2.54-3.94-6.84-6-10.68-8.35-2.9-1.68-5.47-3.86-8.11-5.91-.74-.46-.56-1.41-.6-2.14.01-2.93,0-5.86-.09-8.79.89-1.47,1.76-2.97,2.44-4.55.45-.86.74-2.02,1.78-2.32,1.91-.73,3.88-1.29,5.79-2.03,2.04-.52,2.22-3,3.05-4.62.88-4.16-.17-8.64,1.19-12.75-2.12-.55-4.31-.66-6.49-.84-2.08.02-4.07.81-6.16.77-2.32.23-4.36-1.08-6.51-1.7-3.5-1.47-7.16-2.55-10.55-4.26-1.31-1.99-1.98-4.34-3.08-6.44-.97-1.8-1.33-4-2.9-5.41-1.29-1.2-2.61-2.36-3.9-3.55-1.83-1.69-4.02-2.88-6.03-4.31-2.46-1.77-5.4-2.6-8.11-3.87-3.06-1.2-6.02-2.72-9.18-3.64-5.39-1.8-10.83-3.45-16.02-5.81-.9-.43-1.62-1.14-2.35-1.8-2.32-2.1-4.56-4.28-6.9-6.34-1.48-1.29-2.74-2.93-4.61-3.67-2.19-1.09-4.52-1.97-6.54-3.37-1.57-1.94-2.99-4.04-4.17-6.24.15-2.13,1.87-4.03,1.29-6.23-.6-2.4-1-4.89-1.98-7.17-2.04-4.06-4.05-8.13-6.02-12.22-1.71-5.38-2.51-11.03-4.44-16.34-.26-.56-.4-1.24-.91-1.61-.73,0-1.46.09-2.18.16-.3,2.08.56,4.04.96,6.04.67,3.54,1,7.18,2.32,10.55.53,1.42.85,2.93,1.63,4.24,1.35,1.94,3.24,3.45,4.36,5.56-1.74-.22-3.45-.78-5.01-1.6-1.48-1.12-2.55-2.68-3.89-3.95-1.01-.97-1.9-2.1-2.32-3.45-1.41-4.26-3.14-8.41-4.29-12.76-2.32-8.49-4.92-16.89-7.3-25.36-.38-2.06.02-4.14.32-6.18.12-1.69.3-3.37.45-5.06.2-7.02,1.62-13.91,2.68-20.83,2.26-5.45,4.49-10.96,7.64-15.96,1.75-3.5,4.56-6.23,6.86-9.33-.6-2.76-1.46-5.51-1.44-8.36-.16-4.57.58-9.1.75-13.65,1.54-5.86,3.65-11.58,4.82-17.54.67-2.52,1.25-5.07,1.76-7.63.2-2.35-.23-4.69-.3-7.03-.06-2.6-1.48-4.84-2.18-7.28-.47-2.05-2.68-2.73-4.34-3.53-3.07-2.3-6.93-3.02-10.41-4.44-2.5-.81-4.71-2.44-7.27-2.99-.58-.5-1.42-.82-1.67-1.61-.59-1.79-1.24-3.58-1.59-5.44.28-.03.83-.09,1.11-.12,1.18,1.35,2.63,2.45,4.1,3.46,1.43.64,3.04.8,4.59.84.75-2.75,1.68-5.45,2.97-8,.75-1.39,1.1-3.17,2.53-4.04,1.33-.86,2.6-1.83,3.92-2.71.68-.47,1.54-.19,2.29-.1,2.13.44,4.25,1.01,6.43,1.2,1.85-2.31,2.21-5.4,3.89-7.79,1.71.27,3.43-.24,5.14.07.94.14,1.86.39,2.82.41,1.31-.4,2.34-1.51,3.75-1.65,1.78-.2,3.58-.14,5.37-.18,2.07-.08,3.9,1.06,5.71,1.91.2.85.44,1.7.79,2.52.18,1.74.63,3.44,1.03,5.14.53,2.35-.12,4.8.44,7.15.76,1.5,1.85,2.79,2.79,4.17,1.21,1.9,2.65,3.91,4.69,4.92,1.02,1.44,2.48,2.47,3.74,3.68,3.47,3.2,7.3,5.94,10.96,8.91,2.9,2.19,5.64,4.57,8.6,6.68.48-1.42.66-2.92.75-4.42-1.53-1.92-4.09-2.83-5.59-4.81-.49-1.67-.48-3.47-1.18-5.07-1.35-1.67-3.28-2.77-4.66-4.42l.02-.26c1.28-1.44,2.71-2.78,4.24-3.94,2.23-.33,4.5-.38,6.75-.49.69.93,1.34,1.89,2,2.85l.23.11c.49,1.18,1.07,2.39,2.04,3.25,1.44,1.13,3.32,1.54,4.67,2.79.64,1.11.91,2.39,1.41,3.57,1.78,3.64.55,7.81,1.24,11.67.58.86,1.56,1.32,2.36,1.95,1.07-.89,2.27-1.68,3.08-2.85.79-2.45.88-5.07,1.22-7.6,1.4-.3,2.86-.4,4.29-.2.67.06.56.86.66,1.34.39,3.1.35,6.28,1.29,9.29.17.84,1.17.84,1.81,1.1,1.22.27,2.39.79,3.65.91,1.66-.46,3.3-1.05,4.89-1.73-1.44-1.03-3.38-1.38-4.43-2.92-1.69-2.24-3.48-4.39-5.07-6.71,1.26-1.64,2.83-3,4.34-4.4.74-.8,1.93-.35,2.84-.16,2.07.67,4.27.97,6.22,2,3.5,1.83,6.95,3.74,10.5,5.48,1.38.88,2.91,1.51,4.25,2.47,1.92,2.6,2.12,6.42,4.88,8.39,2.34,1.84,5.48,2.28,7.8,4.16,1.53,2.26,2.56,4.84,4.2,7.04-1.14,1.39-2.44,2.64-3.48,4.1-.72,1.96-.93,4.07-1.42,6.09-1.93.33-3.84,1.06-5.81.96-1.41-.39-2.67-1.15-4.01-1.71-2.26-1.07-4.73-1.55-7.09-2.3-2.46-.64-5.03-.74-7.48-1.43.17-.54.45-1.05.94-1.35,1.73-1.3,3.47-2.58,5.12-3.99.32-.34.83-.65.82-1.18.21-2.19.37-4.4.26-6.6-.45-1.05-1.18-1.94-1.79-2.89-.53-.72-.95-1.65-1.87-1.91-2.91-1.07-5.91-1.87-8.88-2.75,1.09,1.42,2.46,2.57,3.52,4,.46.55-.19,1.12-.46,1.59-1.41,1.75-2.63,3.73-4.56,4.96-2.61,2.07-5.51,3.8-7.76,6.3-3.05,3.13-6.66,5.91-8.52,10.01-1.1,1.62-2.6,3.16-2.75,5.22-.17,1.58-.07,3.18-.31,4.75-.17,1.32-.46,2.67-.19,4,.73,1.34,1.62,2.59,2.46,3.87.38.79,1.34.72,2.07.91,1.55.62,3.24.73,4.84,1.18,2.42.55,4.66,1.65,6.9,2.68.39.3,1.16.37,1.16,1,.2,2.14.4,4.28.69,6.42.63,1.33,1.61,2.46,2.3,3.77,1.14,2.27,3.26,3.76,5.17,5.32.43-1.57.76-3.17.97-4.79.3-2.91.97-5.76,1.21-8.68-.05-2.15,1.75-3.6,2.59-5.42-.83-1.27-2.06-2.21-2.83-3.51-.45-2.77-.39-5.57-.56-8.36-.37-3.08-.38-6.2-.2-9.29.12-.1.36-.31.48-.42,1.55-.18,2.97-.93,4.51-1.09,3.4,1.27,6.64,2.95,10.05,4.21,2.92.88,3.81,4.23,6.05,5.99,3.36,1.38,7.06,1.03,10.56,1.7,1.02.43,1.83,1.23,2.72,1.9,3.01,2.37,6.12,4.61,9.1,7.03,2.07,1.94,3.68,4.31,5.6,6.4,1.97,1.97,2.51,4.8,3.51,7.31.65,1.17-.63,2.26-.47,3.43-.9,1.03-1.04,2.82-2.5,3.24-1.65.67-3.26,1.42-4.9,2.1-2.27.92-4.93.27-7.06,1.62-2.11,1.22-4.43,2.08-6.39,3.55-1.37,1.27-2.63,2.65-3.87,4.05-.57.47-.32,1.22-.25,1.86,3.37-1.04,6.01-3.44,8.72-5.6,1.55.38,3.16.62,4.62,1.31.85,1.45.35,3.31.99,4.84,2.95,1.37,6.06-.3,9.11-.11,1.14,1.32,1.52,3.22,2.11,4.87-2.93,1.9-6,3.59-9.05,5.28-2.49.92-3.75,3.35-5.66,5.02-1.26-.68-2.5-1.41-3.82-1.95-1.33.22-2.6.92-3.72,1.67-1.19,1.61-2.14,3.39-3.27,5.05-1.27,1.81-1.79,4-2.68,6.01-1.32.52-3.06.59-3.81,2-.97,1.5-1.99,2.96-3,4.43-1.16,1.95-1.57,4.24-2.43,6.32-.49,1.52-1.44,2.94-1.43,4.59,0,2.57-.35,5.13-.38,7.71-1.85,1.6-3.62,3.27-5.53,4.79-2.36,1.92-5.05,3.43-7.21,5.59-1.04,0-1.44,1.15-1.92,1.88-.9,1.97-2.57,3.61-2.81,5.85-.34,1.9-.95,3.81-.71,5.77.63,1.98,1.96,3.66,2.51,5.67.26.97.5,1.95.84,2.91-.22,1.46.41,2.9.36,4.38-1.56.52-3.15.91-4.71,1.44-3.37-4.07-5.92-8.76-9.06-13.01-.92-.86-2.21-1.14-3.33-1.65-1.47-.5-2.81-1.5-4.39-1.56-2.07-.1-4.11-.63-6.18-.62-1.09.3-2.04.97-3.04,1.48-1.44.8-3.11,1.01-4.72,1.19-1.2.2-2.22-.62-3.22-1.14-1.74-1.17-3.89-1.21-5.87-1.58-1.55-.32-3.06.23-4.55.55-1.87.42-3.78.65-5.59,1.31-.58.2-.76.91-1.1,1.36-.59.39-.9,1.09-1.34,1.63-1.44,2.13-3.2,4.04-4.43,6.32-.66,1.97-.5,4.1-.95,6.12-.59,2.74.46,5.46.42,8.21.1.73-.14,1.65.5,2.19,1.26,1.24,2.76,2.2,4.09,3.37,1.62,1.3,3.06,2.96,5.1,3.6,1.53.49,3,1.19,4.57,1.52,1.6-.14,3.18-.71,4.63-1.4,1.02-1.25,1.53-2.85,2.54-4.11,1.31-.94,2.96-1.19,4.45-1.75,1.07-.28,2.27-1.13,3.31-.3,1.45.9,3.04,1.62,4.3,2.79,0,1.48-.35,2.93-.45,4.4-.47,1.21-.45,2.52-.65,3.79-.48,1.86-1.78,3.36-2.39,5.18-.16,1.27.32,2.52.66,3.73,1.79.02,3.57.04,5.36-.14,2.67-.36,5.17.84,7.72,1.42,2.92.6,5.27,2.63,7.48,4.53.02,1.35-.15,2.7-.21,4.04-.08,2.04-.98,3.92-1.6,5.83-1.06,1.77-.07,3.91,1.12,5.32,1.97,1.65,4.1,3.12,6.21,4.56,2.91.9,6.02.62,8.99,1.15,1.5.19,2.94.67,4.43.9,1.67-1.26,2.86-3.09,4.56-4.33,2.15-1.57,3.9-3.76,6.42-4.76,1.34-.57,2.64-1.2,3.95-1.83.82-.37,1.74-.92,2.64-.46,3.17,1.14,6.32,2.4,9.57,3.32,2.03-.54,3.7-2.05,5.77-2.45,4.38-.1,8.76-.34,13.14-.34,3.92-.33,7.61-1.92,11.51-2.35,1.14.12,2.15.71,3.26.98,1.4.9,2.99,1.4,4.49,2.08,2.92,1.23,5.82,2.72,9.03,2.93,2.35.48,4.7.95,7.07,1.38,5.21.13,10.43-.12,15.65-.02.88.02,1.54.73,2.28,1.15.03.44.26.82.56,1.15,1.65,1.94,3.32,3.87,4.96,5.82.9,1.06,1.7,2.26,2.91,2.99,4.04-.44,8.06-1.03,12.08-1.62,4.51-1.15,9.06-2.1,13.56-3.27,3.16-.82,5.85-3.39,9.24-3.15,1.25.47,2.47,1.08,3.5,1.95,1.28,1.07,2.78,1.89,3.85,3.19-.43,1.42-1.57,2.48-2.29,3.76-2.66,4.06-5.54,7.98-8.26,11.99-1.23,2.61-1.98,5.44-3.21,8.06-1.16,2.15-.76,4.64-.85,6.99,2.47-1.6,4.36-3.92,6.66-5.73,9.56-8.94,18.58-18.5,26.5-28.97,5.9-7.51,11.1-15.55,16.06-23.71,1.94-3.72,4.19-7.27,6-11.07,3.86-7.19,7.05-14.73,9.94-22.37,1.41-3.42,2.64-6.91,3.7-10.46,3.2-8.72,5.1-17.85,7.11-26.91.8-5.4,1.81-10.78,2.36-16.22-1.48.53-3.17.98-4.09,2.38ZM2267.98,70.01h0c0,.22-.01.45,0,.67,0-.22,0-.45,0-.67ZM2188.63,152.4c.41-.76.84-1.51,1.32-2.23-.48.72-.91,1.47-1.32,2.23ZM2211.58,120.26c.21-.28.44-.54.68-.8-.24.26-.46.52-.68.8ZM2232.83,99.45c.12-.19.25-.37.39-.52-.14.16-.27.33-.39.52ZM2252.04,85.16c.4-.29.81-.57,1.26-.79-.45.23-.86.5-1.26.79ZM2363.33,202.31c.05-.91.06-1.83.05-2.74,0,.91,0,1.83-.05,2.74ZM2363.35,195.46c0-.91.03-1.83.1-2.74-.07.91-.09,1.82-.1,2.74ZM2381.64,357.26c-.76.49-1.69.37-2.53.48-1.84.09-3.61.72-5.45.74-3.11-1.66-5.59-4.37-8.83-5.82-1.77-.82-3.52-1.68-5.28-2.52-1.71-.83-3.66-.75-5.46-1.24-2.94-.8-6.1-.56-8.9-1.86,1.6-.98,3.36-1.63,5.05-2.42.83-.48,1.77-.12,2.64.05,4.91,1.27,9.84,2.46,14.64,4.11,2.75,1.01,5.73.78,8.58,1.21,2.55.79,4.93,2.09,7.39,3.13-.21,1.52-.96,2.92-1.85,4.14ZM2398.17,362.24c-4.29.65-8.52-.62-12.45-2.25-.26-.11-.77-.33-1.03-.43,0-1.36.1-2.72.2-4.08,3.08-.98,6.31-1.28,9.45-2.01,1.74-.49,3.41.51,5.09.84.12.9.17,1.8.24,2.72,1.1.7,2.24,1.35,3.4,1.96.92.51,1.98.99,2.4,2.05-2.45.3-4.88.75-7.3,1.2ZM2424.7,243.3c-1.91-2.49-4.22-4.63-6.05-7.16-1.07-2.1-2.61-4.25-2.23-6.74.54-1.38,1.01-2.78,1.53-4.17,4.24,4.19,8.98,7.81,13.52,11.66,1.95,1.52,3.21,3.85,3.58,6.3-3.45.05-6.9,0-10.34.11ZM2436.15,184.91c-5.33,1.72-10.54,3.89-16.02,5.07-2.46-.65-4.57-2.2-6.67-3.6-1.32-.92-2.74-1.66-4.05-2.59-1.75-1.1-1.26-3.54-2.29-5.12-1.39-1.37-3.35-1.89-4.87-3.06-1.04-3.2-1-6.65-1.6-9.96-.32-1.5-.17-3.32-1.48-4.37-2.17-2.01-4.33-4.04-6.53-6.02-2.48-2.04-5.04-3.98-7.56-5.97-2.55-2.05-6.12-2.36-8.35-4.87-1.49-1.67-3.31-3.04-4.65-4.84-1.02-2.1-1.33-4.46-2.23-6.61-1.25,1.08-2.5,2.29-3.02,3.92-1.07,3.39-1.79,6.9-3.08,10.22-2.14-1.09-4.14-2.43-6.19-3.69-1.69-.99-2.65-2.77-3.74-4.34-.42-.8-1.26-1.63-.93-2.61.56-1.91,1.34-3.74,2.09-5.57.39-1.03,1.07-2.09.76-3.24-.34-1.41-.83-2.79-1.13-4.21,2.11-1.1,4.32-1.96,6.4-3.12,2.5-.88,5.21-.55,7.81-.49.22,1.16.46,2.31.75,3.46,1.09-.08,2.26.07,3.31-.34,1.86-1.42,2.69-3.89,4.69-5.15,1.87-.82,3.83-1.4,5.74-2.15,2.55-1.06,5.34-.41,8.01-.44,1.64.1,3.44-.19,4.93.7,2.91,1.74,5.56,3.97,8.7,5.32,2.68.96,5.42,1.77,8.14,2.62,2.84.81,4.85,3.13,7.28,4.69,3.8,2.45,6.67,6.02,9.99,9.04.78.8,1.88,1.58,1.81,2.85.1,2.51.06,5.03.01,7.54-1.46,1.46-3.11,2.73-4.49,4.27-.86.85-.69,2.15-.77,3.25,0,3.18-.38,6.35-.34,9.54.07,3.49-1.03,6.9-.81,10.38.49,1.37,1.34,2.59,2.13,3.81.83,1.46,2.64,1.59,4.03,2.2,2.03.83,4.28,1.29,6.05,2.65-.61.29-1.21.57-1.84.82ZM2454.4,149.06c-.48,1.7-.77,3.57-2,4.92-1.32,1.49-2.63,3-3.78,4.62-.58.57-1.18,1.1-1.77,1.64-1.76-.72-3.65-1.25-5.19-2.41-1.15-1.24-2.03-2.73-2.72-4.27-.76-2.5-.62-5.17-1.02-7.74,1.14-.25,2.3-.5,3.34-1.06,1.53-1.07,2.08-3.28,3.96-3.9,1.59-.57,3.18-1.27,4.88-1.43,2.16.95,3.89,2.67,5.76,4.1-.47,1.85-1.05,3.67-1.46,5.53ZM2505.31,155.14c-.38,1.89-.35,3.82-.41,5.74-.56-.03-1.1-.06-1.64-.1-1.58-.59-3.17-1.17-4.71-1.85-3.23-1.49-6.26-3.48-9.74-4.33.3,2.39,2.64,3.45,4.16,4.99,1.8,1.49,2.74,3.71,3.31,5.94-2.01,0-4.35.3-5.97-1.16-1.47-1.29-3.02-2.49-4.47-3.8-.9-.76-1.25-1.92-1.57-3.01-.7-2.49-1.29-5.01-2.09-7.47-.83-2.54-2.67-4.52-4-6.78-.97-1.53-1.63-3.23-2.29-4.92.39-.31.8-.62,1.22-.92.99-.48,2.01-.95,3.09-1.22,2.25,1.22,3.52,3.75,5.81,4.96,3.15,1.62,6.49,2.87,9.73,4.31,2.99,1.32,6.2,2.35,8.78,4.45,1.06,1.45,1.1,3.44.79,5.16Z"/>
      </g>
      <path class="st1" d="M2394.04,354.41c-2.72.74-5.54.97-8.27,1.6-.07.91-.14,1.82-.22,2.74,1.9,1.05,3.96,1.76,6.04,2.31,3.89.97,7.94.27,11.75-.71-1.41-1.27-3.33-1.77-4.7-3.08-.13-.61.03-1.24.09-1.84-1.37-.95-3.04-1.53-4.68-1.02Z"/>
      <path class="st3" d="M2540.22,190.46c-1.02,3-1.39,6.2-2.46,9.17-1.43,1.46-3.05,2.9-4.89,3.75-1.92-.91-3.62-2.21-5.44-3.27-.89-.6-1.93-1.05-2.58-1.92-.32-1.64.39-3.67-.93-4.97-1.32-1.3-2.78-2.44-4.13-3.71,0-2-.19-4,.06-5.99,1.06-1.67,2.81-2.74,3.89-4.38.22-2.43-.26-4.89-.45-7.31-2.23-.5-4.44-1.1-6.64-1.71-1.7-.47-3.49-.32-5.23-.35-.81-1.3-1.79-2.54-2.21-4.03-.27-3.51.53-7.02.34-10.51-1.39-3.07-3.27-5.91-4.65-8.99-1.03-2.78-4.06-3.67-6.14-5.42-1.04-.69-1.04-2.07-1.39-3.15-1.19-4.03-1.66-8.21-2.21-12.36-.22-2.13-1.84-3.66-2.87-5.41-1.39-2.31-3.14-4.39-4.43-6.76-.88-2.58-1.11-5.35-2.04-7.92-1.54-1.15-3.58-1.34-5.28-2.2-3.62-1.75-7.06-3.85-10.43-6.03-.88.93-1.73,1.9-2.64,2.8.76,1.32,1.99,2.28,2.85,3.54-1.53,1.57-3.51,2.6-5.01,4.19,1.63.78,3.44,1,5.12,1.65,3.74,2.16,6.85,5.2,9.83,8.31,1.96,2.21,5.01,2.8,7.22,4.67-1.72,1.32-3.91,1.71-5.72,2.87-1.18,1.17-1.23,3.15-2.48,4.24-1.52-.1-3.02-.43-4.5-.77-1.97-.42-3.65-1.6-5.43-2.46-1.3-.7-2.82-1.25-3.6-2.6-.97-1.54-1.84-3.13-2.79-4.68-.98-1.6-1.78-3.39-3.27-4.59-1.29-1.04-2.51-2.19-3.94-3.04-5.28-2.73-10.61-5.38-15.88-8.14-1.56-.72-2.49-2.23-3.4-3.63-.89-1.4-2.01-2.65-2.77-4.13,2.36-1.33,4.54-3.22,7.29-3.63,3.01-.5,6.04-.97,9.01-1.69l.2-.3c-.18-1.72-.61-3.42-1.24-5.03-.96-.65-2.11-.9-3.17-1.34-.59-.03-1.18-.08-1.76-.14-.6.8-.88,1.95-1.75,2.46-2.06.23-4.15.12-6.21.03.31-1.53.8-3.02,1-4.58-1.52-.78-3.17-1.29-4.66-2.11-1.74-1.58-2.48-4.14-4.64-5.29-6.87-4.2-13.42-8.89-20.06-13.45-.98-.89-2.17-.03-3.09.49-1.7.89-2.26,3.09-4.07,3.8-1.51.59-3.05,1.2-4.66,1.42-1.43-.39-2.65-1.34-4.12-1.62-1.52-.31-3.04-.58-4.56-.84-2.33-.41-4.67.07-7,.12-1.28.08-2.64-.03-3.8.62-1.74.87-3.2,2.44-5.23,2.58-2.9.36-5.75,1.31-8.69,1.06-1.98-.16-3.92-.55-5.88-.85-2.29-.37-4.38-1.41-6.57-2.1-.39-1.52-.65-3.08-1.14-4.58-2.99.02-5.98-.55-8.96-.25-1.58.63-2.36,2.45-3.91,3.14-3.29.44-6.67.15-9.92.86-2.48.52-4.92,1.19-7.4,1.7-.22,1.66.28,3.49-.29,5.05-1.76,1.34-3.72,2.72-6.01,2.8-1.94.15-3.87.31-5.79.6-2.02.21-3.37,1.92-4.85,3.12.32,1.49.69,2.96,1.06,4.44-1.55,1.05-3.16,2.2-5.08,2.34-3.14.3-6.26.75-9.36,1.31-.58,1.94-1,3.94-1.11,5.97-.16,1.05-.02,2.19-.49,3.16-1.21,1.05-2.73,1.67-3.85,2.82-4.06,4.08-7.69,8.61-12.18,12.23-1.25.99-2.41,2.24-4.01,2.61-1.5.39-3.03.6-4.55.79,1.14-2.55,3.13-4.59,4.29-7.12-.05-1.28-.53-2.5-1.02-3.66-1.9.03-3.79.11-5.69.04-1.72-2.23-3.19-4.64-4.71-7-.31-.53-.87-1.26-.31-1.83,2.19-2.64,4.53-5.15,7.27-7.23,1.28-1.22,3.16-.95,4.73-1.45.72-.57,1.02-1.51,1.47-2.28.73-1.57,1.73-3,2.39-4.6.28-2.5-1.05-4.96-.74-7.46,2.55-1.37,5.29-2.33,7.82-3.74,1.46-.86,3.24-1.3,4.46-2.52.19-2.84.5-5.71.3-8.56-1.77-2.01-3.8-4.04-6.48-4.69,1.91-1.07,4.07-1.52,6.09-2.34,7.2-2.78,14.49-5.32,21.95-7.29,4.22-1.05,8.34-2.48,12.65-3.11,6.86-1.55,13.8-2.67,20.8-3.34,4.81-.41,9.56-1.47,14.4-1.5,4.94,0,9.89.12,14.81-.44,6.16.7,12.38.5,18.53,1.26,3.32.2,6.63.61,9.89,1.32,5.39.89,10.79,1.71,16.15,2.75,2.87.34,5.68,1.02,8.42,1.95,4.66,1.31,9.28,2.79,13.89,4.26,3.04.99,6.17,1.65,9.15,2.82,6.13,2.7,12.3,5.32,18.39,8.09,7.63,4.36,15.74,7.89,22.96,12.97,3.48,2.31,6.95,4.63,10.43,6.94,3.62,2.7,7.18,5.49,10.79,8.2,2.48,1.76,4.8,3.73,6.94,5.9,2.25,2.3,4.71,4.38,6.98,6.67,3.59,3.3,6.77,7.02,10.17,10.52.95.82,1.04,2.12,1.41,3.24.86,2.52,2.12,4.9,2.9,7.45.16,2.99-.71,6.04.15,8.98.48,1.57.85,3.2,1.52,4.7,1.7,1.59,3.92,2.46,5.79,3.82.08,1.49,0,2.98-.2,4.46-1.2.43-2.36.94-3.56,1.36-1.73.6-3.61-.07-5.35.39-1.61.55-3.1,1.41-4.59,2.22,1.03,1.15,2.58,1.51,3.92,2.16,1.88.9,3.9,1.53,5.67,2.68-.33,1.07-.67,2.15-1.04,3.21-2.96.1-5.92,0-8.86.3.51,2.53.78,5.15,1.78,7.55.76,1.95,1.69,3.91,1.58,6.06.17,2.05-.52,4.37.73,6.18,2.09,3.39,4.16,6.81,5.78,10.47.87,2.25,3.37,3.09,4.6,5.04.24,1.42-.93,2.49-1.38,3.73ZM2504.61,154.09c.08-1.42.02-3.29-1.41-4.01-1.38-.91-2.86-1.64-4.37-2.28-4.33-1.86-8.7-3.61-12.96-5.62-2.37-1.03-3.6-3.55-5.72-4.91-1.14.2-2.16.82-3.2,1.28,1.02,3.74,3.79,6.57,5.56,9.92,1.2,3.25,1.96,6.66,2.94,9.99.39,1.27,1.63,1.97,2.55,2.82,1.32,1,2.45,2.26,3.88,3.1,1.01.22,2.05.14,3.08.16-.67-3.43-3.88-5.15-6.13-7.43-1.05-.94-.76-2.52-.88-3.78,5.7,1.28,10.33,5.49,16.13,6.45,0-1.91.12-3.82.52-5.69ZM2586.53,247.1c.11-5.28-.46-10.54-1.22-15.75-.32-4.9-1.09-9.74-2.02-14.55-1.04-5.36-1.79-10.8-3.41-16.02-.33-.85-.28-1.99-.91-2.64-.13-1.72-.67-3.36-1.14-5.01-1.65-6.02-3.84-11.85-5.88-17.74-2.09-5.17-4.41-10.24-6.65-15.35-1.66-3.42-3.48-6.74-5.14-10.16-1.54-3.32-3.7-6.27-5.53-9.41-2.43-4.11-5.05-8.09-7.88-11.92-.3.9-.49,1.82-.52,2.77-.23,2.76,1.44,5.21,1.64,7.91-.21,1.42-1.11,2.61-1.72,3.88-.78.1-1.57.2-2.33.33,1.32,3.4,3.86,6.08,6.03,8.93.51.72,1.21,1.4,1.31,2.32.39,3.14.32,6.32.43,9.48-2.46-.32-5.19-1.96-7.55-.65-1.07,5.84-1,11.87-.49,17.78.25,2.01-.59,3.91-.93,5.85-.39,2.5.24,4.99.26,7.49.02,1.48-1,2.67-1.66,3.91-1.11,1.76-1.56,3.81-2.1,5.79-.73,2.08.66,4.04,1.18,5.99,1,3.51,2.57,6.79,4.01,10.13.74,1.7,1.73,3.44,1.46,5.38-.48,6.94-.3,13.9-.37,20.85-.07,3.35.88,6.59,1.16,9.91.26,2.89.81,5.76,1.81,8.49,1.15,3.19,1.84,6.54,3.26,9.63,1.49,3.2,2.93,6.44,4.4,9.66.91,2.13,2.76,3.61,4.23,5.34,1.31,1.31,2.4,2.85,3.81,4.05,1.15.5,2.41.68,3.66.85,1.44.69,3.04.8,4.58,1.12.59-.76,1.16-1.55,1.65-2.38,1.88-3.32,4.12-6.41,6.08-9.68.93-1.88,3.22-2.04,4.85-3.01.7-.32.58-1.22.74-1.85.96-7.75,1.02-15.57,1.23-23.37.13-2.79-.35-5.55-.32-8.34ZM2353.59,137.07c1.47,2.07,2.6,4.58,4.86,5.89,1.62.97,3.2,2.03,4.88,2.9,1.05-3.29,1.74-6.69,2.95-9.92,1.04-1.76,2.37-3.41,3.98-4.67,1.05,2.48,1.41,5.2,2.46,7.67,1.4,1.75,3.16,3.18,4.66,4.86,1.93,2.24,5.05,2.54,7.37,4.19,2.23,1.61,4.32,3.41,6.53,5.05,2.85,2.07,5.22,4.72,7.88,7.03.72.76,1.8,1.4,1.9,2.55.37,3.01.97,5.98,1.21,9.01.12,1.11.23,2.25.67,3.29,1.46,1.41,3.67,1.77,5.07,3.25.54,1.35.6,2.86,1.17,4.21.94,1.05,2.25,1.65,3.41,2.41,2.49,1.49,4.77,3.46,7.58,4.34,4.47-.95,8.72-2.77,13.07-4.14.9-.3,1.86-.52,2.64-1.12-2.39-1.02-4.91-1.7-7.28-2.79-.97-.41-1.41-1.43-1.96-2.25-.61-1.03-1.38-1.99-1.81-3.12-.05-2.1.33-4.18.55-6.26.63-3.38.11-6.84.51-10.25.27-2.14.05-4.31.26-6.46,1.45-2.12,3.85-3.45,5.18-5.64.13-2.34.12-4.7-.03-7.04-1.54-2.17-3.77-3.75-5.53-5.75-2.65-2.95-6.03-5.02-9.11-7.43-1.05-.78-2.1-1.6-3.34-2.03-3.29-1.13-6.76-1.79-9.91-3.32-2.06-1.21-4.05-2.55-6.06-3.83-1.11-.66-2.14-1.75-3.52-1.66-2.62-.01-5.24-.04-7.86-.05-1.55-.03-2.92.79-4.35,1.27-1.37.55-2.84.88-4.1,1.67-1.58,1.35-2.37,3.45-4.03,4.7-1.5.52-3.12.55-4.68.51-.52-1.05-.32-2.36-.82-3.44-2.19.1-4.53-.41-6.58.61-1.91.87-3.8,1.77-5.73,2.57.17,1.96,1.74,3.9.8,5.85-1,2.42-2.14,4.79-2.87,7.32ZM2446.73,159.15c1.07-1.17,2.12-2.35,3.12-3.59,1.12-1.4,2.52-2.67,3.02-4.47.71-2.4,1.36-4.82,1.92-7.25-1.53-1.19-3.01-2.45-4.7-3.39-1.55.09-3,.73-4.43,1.27-1.58.52-2.2,2.24-3.27,3.38-.86,1.03-2.52.73-3.41,1.67.17,2.1.46,4.2.79,6.29.52,1.53,1.42,2.95,2.49,4.15,1.35.92,2.93,1.44,4.47,1.95ZM2349.16,156.29c1.15,1.79,2.6,3.34,3.83,5.07.69.96,1.42,1.97,2.55,2.44,2.51,1.17,5.04,2.37,7.74,3.02,1.68.52,3.44.82,5.05,1.57.9.9,1.52,2.05,2.26,3.09.51.84,1.22,1.67,1.18,2.72,0,2.35-.23,4.7-.23,7.06-1.93,1.86-4.23,3.26-6.22,5.03,1.94.62,4,.62,5.95,1.2,3.31.95,6.67,1.85,9.76,3.44,1.98,1.2,4.29.19,6.33-.3.6-1.74.81-3.58,1.3-5.35.83-1.52,2.16-2.67,3.22-4.02-1.24-2.22-2.29-4.59-3.86-6.59-2.91-1.97-6.72-2.56-9.04-5.41-1-1.45-1.51-3.18-2.25-4.77-.44-.9-.73-2.02-1.67-2.53-4.41-2.53-8.99-4.75-13.46-7.19-1.91-1.09-4.08-1.54-6.18-2.09-.74-.14-1.52-.42-2.27-.22-1.48,1.11-2.76,2.46-3.99,3.84ZM2431.5,238.08c-4.45-3.78-9.05-7.39-13.33-11.38-.44,1.74-1.29,3.64-.51,5.41.68,1.59,1.27,3.29,2.49,4.56,1.33,1.43,2.55,2.96,3.85,4.42.52.52,1.02,1.27,1.88,1.17,2.64.03,5.28.07,7.92-.1-.46-1.51-1.05-3.06-2.29-4.09ZM2367.08,349.58c-5.14-1.79-10.39-3.18-15.71-4.31-1.37.11-2.54,1-3.69,1.7,3.14.34,6.22,1.11,9.35,1.55,1.62.21,3.13.85,4.55,1.64,2.06,1.13,4.33,1.87,6.26,3.23,1.62,1.13,3.17,2.35,4.78,3.49.55.37,1.14.82,1.85.67,2.18-.24,4.33-.72,6.52-.91.59-.9,1.08-1.87,1.47-2.88-2.18-1.1-4.37-2.25-6.7-2.99-2.9-.34-5.91-.08-8.69-1.17ZM2394.04,354.41c-2.72.74-5.54.97-8.27,1.6-.07.91-.14,1.82-.22,2.74,1.9,1.05,3.96,1.76,6.04,2.31,3.89.97,7.94.27,11.75-.71-1.41-1.27-3.33-1.77-4.7-3.08-.13-.61.03-1.24.09-1.84-1.37-.95-3.04-1.53-4.68-1.02ZM2519.95,396.37c.08.48-.28.9-.46,1.31-1.9,3.17-4.19,6.07-6.22,9.16-1.38,2.08-3.17,3.93-4.03,6.32-.9,2.39-1.81,4.78-2.81,7.12-1.15,2.48-.31,5.3-.92,7.89-.84,1.11-2.13,1.75-3.22,2.56-6.25,4.62-12.45,9.32-18.75,13.88-7.66,4.36-15.4,8.59-23.08,12.92-2.67,1.62-5.68,2.51-8.5,3.83-4.13,1.86-8.36,3.46-12.48,5.33-3.11,1.43-6.49,2.02-9.71,3.11-4.73,1.5-9.45,3.02-14.25,4.29-4.07.91-8.16,1.7-12.23,2.57-3.44.52-6.81,1.51-10.3,1.75-.36-1.55-1.43-3.25-.53-4.8.74-1.91,2.16-3.72,1.95-5.87-.16-1.66-.17-3.35-.5-4.99-1.8-.43-3.78.18-5.47-.68-2.67-2.73-4.8-5.96-7.54-8.61-2.99-2.94-5.84-6.03-8.97-8.82-3.62-2.65-7.77-4.49-11.28-7.31-1.16-.92-2.39-1.76-3.5-2.73-.97-.66-.53-1.97-.63-2.95.15-2.43-.29-4.9.14-7.3,1-2,1.88-4.1,3.06-5.99,2.34-1.31,5.08-1.64,7.46-2.87.96-.9,1.3-2.3,1.92-3.43,1.2-2.16.56-4.72.86-7.07.3-2.52-.45-5.39,1.21-7.56h0c-.83-.93-2.18-.72-3.28-.87-2.18-.05-4.36-.66-6.54-.23-2.26.23-4.63,1.01-6.84.16-4.59-1.68-9.25-3.25-13.67-5.32-1.97-3.41-3.27-7.21-5.08-10.72-.99-1.34-2.41-2.26-3.58-3.42-2.74-2.73-6.08-4.72-9.31-6.78-4.09-1.9-8.31-3.52-12.43-5.33-6.55-2.41-13.38-4.11-19.68-7.19-3.38-2.8-6.49-5.92-9.76-8.84-2.65-2.91-6.65-3.76-9.85-5.84-1.21-1.32-2-2.97-3.08-4.38-.32-.57-.96-1.13-.74-1.85.46-1.89,1.8-3.7,1.21-5.72-.63-2.3-1.04-4.66-1.84-6.9-2.04-4.28-4.26-8.47-6.25-12.78-1.69-5.16-2.43-10.58-4.24-15.7-.36-1.07-.69-2.17-1.36-3.09-1.18.33-2.42.49-3.55.98-.49.45-.11,1.22-.1,1.8.83,3.68,1.52,7.4,2.17,11.12.36,2.54,1.46,4.88,2.23,7.3.61,1.97,2.44,3.16,3.33,4.97-2.22-.3-3.57-2.2-5.01-3.72-1.04-1.18-2.38-2.22-2.83-3.8-1.45-4.49-3.34-8.83-4.49-13.41-2.24-8.34-4.94-16.56-7.11-24.92-.28-4.03.55-8.05.83-12.06.32-2.58.09-5.22.68-7.77.91-4.19,1.01-8.57,2.28-12.68,1.64-3.62,3.02-7.36,4.87-10.88,1.91-3.05,3.41-6.4,5.82-9.1,1.09-1.42,2.41-2.67,3.33-4.22-.05-2.39-1.06-4.63-1.27-6.99-.3-3.75,0-7.51.41-11.25.23-1.75.02-3.57.6-5.27.95-2.97,1.74-5.99,2.67-8.96,1.33-4.28,2.16-8.69,3.18-13.05.85-3.21.23-6.55,0-9.81-.15-2.36-1.46-4.41-1.96-6.69-.49-.95-.84-2.12-1.88-2.59-2.92-1.49-5.66-3.39-8.82-4.37-4.31-1.42-8.54-3.12-12.56-5.23-1.01-.94-1.11-2.51-1.45-3.79,1.35.57,2.28,1.79,3.57,2.45,1.65.52,3.39.63,5.09.98.66-1.37,1.08-2.83,1.51-4.27.6-2.04,1.62-3.9,2.5-5.83.93-2.53,3.62-3.59,5.67-5.03,2.92-.18,5.73,1.59,8.63,1.17,1.67-2.15,2.47-4.8,3.45-7.29,2.18-.79,4.59-.66,6.79,0,2.11.7,3.53-1.86,5.63-1.72,2.54.05,5.25-.47,7.62.71.68.29,1.35.61,2.03.91.28.99.49,2,.63,3.03h0c.23,1.15.53,2.3.81,3.44.6,2.3.2,4.7.36,7.04,0,1.22.91,2.13,1.55,3.07,1.51,1.95,2.59,4.25,4.46,5.9,2.92,2.6,5.79,5.25,8.76,7.79,5.15,4.1,10.35,8.13,15.51,12.21.69.57,1.43,1.05,2.23,1.45.53-2.05.72-4.17,1.14-6.24-1.85-1.71-4.09-2.95-5.82-4.79-.62-1.62-.48-3.45-1.17-5.04-1.25-1.55-2.9-2.72-4.36-4.05.91-1.12,1.99-2.09,3.09-3.01.46-.51,1.18-.41,1.81-.47,1.51-.02,3.01-.25,4.52-.22,1.61,1.67,2.45,3.93,3.92,5.71,1.42,1.3,3.46,1.65,4.87,2.97.77,1.76,1.4,3.59,2.02,5.41.6,3.16-.09,6.42.45,9.59.84,1.08,2.02,1.87,3.21,2.52,1.52-.77,2.77-2.1,3.85-3.42.62-2.34.84-4.77,1.29-7.15,1.02-.08,2.05-.12,3.08-.14.53,2.4.49,4.88.84,7.3.39,1.17.31,2.63,1.07,3.6,1.89.77,3.88,1.35,5.86,1.77,1.69-.44,3.27-1.23,4.93-1.76,1.23,1.27,2.49,2.53,3.51,3.99-1.37,1.61-2.43,3.55-4.14,4.83-2.23,1.61-4.42,3.28-6.57,5-2.24,2.17-4.45,4.38-6.69,6.55-1.76,1.63-2.88,3.78-4.15,5.79-.83,1.49-2.24,2.76-2.47,4.53-.26,2.56-.16,5.15-.65,7.69-.34,1.37.22,2.67.94,3.81.86,1.04,1.5,2.25,2.41,3.25,2.03.7,4.17,1.07,6.27,1.56,2.8.4,5.22,1.98,7.82,2.98.4,1.88.52,3.8.6,5.72,0,1.07.69,1.92,1.23,2.78,1.23,1.79,2.18,3.82,3.88,5.22,1.34,1.11,2.5,2.51,4.1,3.28.3-3.16,1.24-6.21,1.54-9.37.24-2.04.77-4.02.92-6.07.16-1.96,1.86-3.27,2.46-5.06-.44-1.92-3.15-2.74-3.03-4.92-.38-5.21-.62-10.43-.43-15.65,1.61-.37,3.31-1.7,4.96-.77,3.31,1.55,6.77,2.78,10.06,4.4,1.85,1.45,2.79,3.78,4.53,5.36,3.23.97,6.63,1.22,9.98,1.5,1.09.05,1.92.85,2.74,1.47,1.9,1.56,3.92,2.97,5.84,4.51,1.75,1.42,3.73,2.58,5.17,4.37,1.43,1.75,2.88,3.47,4.36,5.17,1.61,1.7,2.07,4.09,2.91,6.21.77,1.68-.6,3.28-1.14,4.82-.42,1.28-1.84,1.57-2.92,2.07-1.8.68-3.53,1.71-5.49,1.81-1.42.18-2.94.1-4.22.85-1.79.99-3.56,1.99-5.41,2.85-1.66.71-2.71,2.24-3.96,3.47-.74.77-1.57,1.47-2.2,2.35-.36,1,.19,2.02.53,2.95,2.58-.85,5.08-2.08,7.1-3.94.78-.6,1.46-1.42,2.41-1.73,1.23.18,2.46.5,3.61.98.59,1.48.37,3.18.65,4.74,3.08,1.52,6.44.45,9.65.14.56,1.19,1.06,2.42,1.55,3.64-2.25,1.28-4.46,2.63-6.7,3.93-1.48.86-3.13,1.46-4.42,2.62-.95.97-1.75,2.09-2.69,3.08-1.29-.58-2.48-1.35-3.78-1.9-2,.69-4.35,1.43-5.36,3.5-1.3,2.29-3.02,4.37-3.9,6.89-.38.86-.57,1.84-1.19,2.56-1.14.66-2.68.71-3.44,1.92-1.28,1.89-2.69,3.7-3.79,5.7-1.14,2.91-2.18,5.85-3.26,8.79-.62,2.92-.33,5.97-.69,8.93-2.5,2.49-5.24,4.75-8.13,6.77-1.92,1.36-3.71,2.93-5.77,4.09-.6,2.69-3.15,4.52-3.49,7.32-.28,1.97-.81,3.89-.92,5.88.38,1.67,1.37,3.12,2.06,4.68,1.23,2.44,1.27,5.23,1.9,7.84-1.2.55-2.48.88-3.76,1.18-1.81-2.77-3.86-5.37-5.57-8.21-1.17-1.58-2.05-3.42-3.46-4.79-1.65-.92-3.5-1.42-5.18-2.29-1.9-1.05-4.13-.85-6.21-1.16-1.04-.09-2.08-.39-3.12-.23-2,.65-3.59,2.31-5.75,2.52-1.03.1-2.17.4-3.12-.17-1.4-.71-2.7-1.75-4.31-1.9-2.01-.27-4.06-.88-6.08-.36-2.48.57-5.01.94-7.45,1.66-.82.2-1.23,1-1.72,1.62-1.86,2.67-3.93,5.19-5.69,7.93-.85,1.91-.57,4.11-1.32,6.07-.05,3.22.31,6.46.61,9.69.09.83.22,1.75.94,2.29,1.93,1.65,3.95,3.21,5.87,4.88,2.25,2.17,5.42,2.82,8.3,3.71,1.74-.17,3.45-.81,5.07-1.47,1.2-1.34,1.65-3.25,3.01-4.45,1.86-.88,3.83-1.62,5.84-2.05,1.6.65,2.98,1.73,4.43,2.67-.16,2.35-.71,4.65-1.02,6.99-.27,2.19-1.89,3.84-2.49,5.91-.16,1.54.42,3.02.81,4.48,3.68.59,7.53-.61,11.1.76,1.93.65,4.07.86,5.79,2.07,1.15.79,2.25,1.65,3.44,2.39.04,1.62.1,3.26-.2,4.87-.51,2.25-1.6,4.32-2.03,6.59.24,1.37.67,2.75,1.41,3.93,1.51,1.42,3.35,2.41,4.96,3.72.97.63,1.8,1.71,3.03,1.75,4.39.27,8.78.74,13.07,1.76,1.39-1.12,2.57-2.49,3.83-3.75,1.49-1.37,3.14-2.55,4.67-3.88,1.62-1.47,3.78-2.03,5.68-3.02.94-.41,1.94-1.1,3.01-.71,3.22,1.07,6.4,2.32,9.64,3.36,2.39-.71,4.41-2.53,6.97-2.7,4.46-.35,8.95,0,13.42-.29,3.36-.67,6.65-1.67,10.02-2.27,2.84.81,5.44,2.31,8.2,3.37,2.1.77,4.06,1.98,6.3,2.34,3.13.57,6.26,1.18,9.4,1.65,5.31.22,10.65-.17,15.96.09,2.02,1.75,3.47,4.07,5.3,6.01,1.28,1.5,2.64,2.94,3.72,4.61,1.6.75,3.36.14,5.01-.05,2.67-.5,5.4-.63,8.08-1.1,3.92-.82,7.8-1.82,11.7-2.7,3.14-.64,5.99-2.16,8.91-3.42,1.54-.68,3.36-.15,4.65.83,1.34,1.01,2.79,1.89,3.95,3.12ZM2371.99,396.79c-.14.34-.25.7-.32,1.09h0c.07-.39.18-.75.32-1.09Z"/>
    </g>
    <g id="g1006">
      <path id="path908" class="st8" d="M2587.93,256.92c0,124.35-100.8,225.15-225.15,225.15s-225.15-100.8-225.15-225.15,100.8-225.15,225.15-225.15,225.15,100.8,225.15,225.15Z"/>
      <path id="path4042" class="st10" d="M2352.93,33.05s-63.92,26.03-65.23,225.61c-1.31,199.56,71.8,223.4,71.8,223.4"/>
      <path id="path7092" class="st10" d="M2352.93,33.05s196.93,25.59,195.62,225.14c-1.33,199.57-189.05,223.87-189.05,223.87"/>
      <path id="path7093" class="st10" d="M2352.93,33.05s70.45,26.88,69.14,226.44c-1.31,199.57-62.57,222.57-62.57,222.57"/>
      <path id="path7094" class="st10" d="M2352.93,33.05s-178.96,23.03-180.27,222.61c-1.31,199.57,186.84,226.4,186.84,226.4"/>
      <path id="path7095" class="st10" d="M2352.93,33.05s131.27,23.02,129.96,222.59c-1.31,199.56-123.4,226.42-123.4,226.42"/>
      <path id="path7096" class="st10" d="M2352.93,33.05s-132.38,23.91-133.69,223.48c-1.31,199.57,140.26,225.52,140.26,225.52"/>
      <path id="path7097" class="st10" d="M2352.93,33.05s3.93,19.19,2.62,218.74c-1.31,199.57,3.95,230.27,3.95,230.27"/>
      <path id="path7107" class="st10" d="M2272.84,50.96s5.26,29.42,81.4,29.42,98.46-26.86,98.46-26.86"/>
      <path id="path7108" class="st10" d="M2198.97,103.41s3.73,44.77,154.11,44.77,178.75-42.22,176.13-40.94"/>
      <path id="path7109" class="st10" d="M2161.17,155.86s17.38,57.56,193.07,57.56,211.45-52.45,211.45-52.45"/>
      <path id="path7110" class="st10" d="M2140.32,226.21s28.74,47.34,217.1,47.34,227.82-44.77,227.82-44.77"/>
      <path id="path7111" class="st10" d="M2140.32,278.66s27.38,53.73,215.19,53.73,228.4-51.16,228.4-51.16"/>
      <path id="path7112" class="st10" d="M2153.31,334.95s26.6,49.88,202.83,49.88,213.47-47.33,213.47-47.33"/>
      <path id="path7113" class="st10" d="M2181.92,389.96s22.34,43.5,174.93,43.5,185.48-40.94,185.48-40.94"/>
      <path id="path7114" class="st10" d="M2223.51,430.9s18.58,40.93,135.95,40.93,141.26-38.37,141.26-38.37"/>
    </g>
  </g>
</svg>