<?xml version="1.0" encoding="UTF-8"?>
<svg id="Layer_1" xmlns="http://www.w3.org/2000/svg" version="1.1" viewBox="0 0 2084.59 507.16">
  <!-- Generator: Adobe Illustrator 29.5.1, SVG Export Plug-In . SVG Version: 2.1.0 Build 141)  -->
  <defs>
    <style>
      .st0 {
        fill: #f7b2c1;
      }

      .st1 {
        fill: #f7baca;
      }

      .st2, .st3 {
        fill: #fff;
      }

      .st4 {
        fill: #231f20;
      }

      .st3 {
        stroke: #231f20;
        stroke-miterlimit: 10;
        stroke-width: 10px;
      }

      .st5 {
        fill: #4c5257;
      }

      .st6 {
        fill: #7e8387;
      }
    </style>
  </defs>
  <g>
    <g>
      <path class="st2" d="M464.07,27.81c-3.3-8.66-9.79-13.37-19.29-13.97-7.45-.48-16.71,1.59-28.31,6.31-10.98,4.46-22.27,10.61-30.89,15.46-8.08,4.56-15.22,8.7-22.78,13.08l-6.53,3.78c-20.75-17.3-45.61-29.72-69.5-36.14-31.86-8.55-79.35-9.73-108.5,4.59-19.71,9.68-51.11,30.52-61.53,54.48l-.71-.11c-19.69-3-42.51-5.9-62.53-4.66-26,1.61-40.43,10.16-42.9,25.42-1.75,10.83.4,19.62,6.4,26.14,10.12,11.01,29.46,13.77,49.4,13.77,11.21,0,22.62-.87,32.69-1.64,3.15-.24,6.13-.47,8.88-.65,2.64,37.84,24.7,81.96,66.84,133.8,15.33,18.82,43.37,44.9,76.14,61.56,37.27,18.96,69.72,19.86,93.83,2.63,48.65-34.75,62.26-132.93,59.53-190.47-.64-13.55-3.86-26.19-8.91-37.91l.4-.25c2.38-1.5,5.97-3.7,10.13-6.24,3.92-2.39,8.25-5.04,12.31-7.56,7.21-4.48,16.55-10.49,24.81-17.18,8.78-7.11,14.84-13.76,18.53-20.33,4.6-8.17,5.44-16.21,2.51-23.89Z"/>
      <path class="st4" d="M235.91,10c18.05,0,36.12,2.38,50.84,6.33,23.89,6.42,48.75,18.85,69.5,36.14l6.53-3.78c7.56-4.38,14.7-8.52,22.78-13.08,8.62-4.86,19.91-11,30.89-15.46,10.52-4.28,19.11-6.37,26.17-6.37.73,0,1.44.02,2.14.07,9.5.61,15.99,5.31,19.29,13.97,2.93,7.68,2.09,15.72-2.51,23.89-3.69,6.57-9.76,13.22-18.53,20.33-8.26,6.69-17.6,12.69-24.81,17.18-4.06,2.52-8.39,5.17-12.31,7.56-4.16,2.54-7.75,4.74-10.13,6.24l-.4.25c5.05,11.73,8.28,24.36,8.91,37.91,2.73,57.55-10.88,155.73-59.53,190.47-11.47,8.2-24.82,12.29-39.68,12.29-16.38,0-34.6-4.98-54.14-14.92-32.77-16.66-60.81-42.74-76.14-61.56-42.13-51.84-64.19-95.97-66.84-133.8-2.76.18-5.74.41-8.88.65-10.07.77-21.47,1.64-32.69,1.64-19.94,0-39.27-2.76-49.4-13.77-5.99-6.52-8.15-15.31-6.4-26.14,2.47-15.26,16.9-23.81,42.9-25.42,3.26-.2,6.6-.3,9.99-.3,17.39,0,36.07,2.44,52.55,4.96l.71.11c10.42-23.95,41.82-44.8,61.53-54.48,15.68-7.7,36.66-10.92,57.66-10.92M235.91,0v10S235.91,0,235.91,0c-17.22,0-41.97,2.07-62.07,11.94-7.96,3.91-45.96,23.68-62.75,52.5-14.92-2.16-31.63-4.11-47.63-4.11-3.68,0-7.25.11-10.61.31C13.88,63.06,2.99,80.36.71,94.45c-2.82,17.45,3.29,28.39,8.91,34.5,10.67,11.6,28.7,17,56.76,17,11.32,0,22.64-.85,32.69-1.61,5.56,37.64,27.88,80.11,67.96,129.43,16.01,19.66,45.26,46.83,79.37,64.17,20.87,10.62,40.61,16.01,58.68,16.01,17.05,0,32.36-4.76,45.5-14.16,12.73-9.09,23.9-22.45,33.2-39.72,7.98-14.82,14.62-32.54,19.71-52.65,8.36-33,12.4-72.89,10.79-106.72-.53-11.23-2.73-22.4-6.56-33.31,1.07-.66,2.21-1.35,3.39-2.07,3.91-2.39,8.3-5.07,12.39-7.61,7.46-4.64,17.14-10.86,25.83-17.9,9.78-7.92,16.63-15.51,20.96-23.2,6.04-10.73,7.12-21.92,3.14-32.36-4.67-12.29-14.62-19.53-28-20.39-.9-.06-1.84-.09-2.78-.09-8.38,0-18.17,2.33-29.94,7.11-11.5,4.68-23.16,11.02-32.03,16.02-8.14,4.59-15.3,8.74-22.89,13.14l-.61.35c-19.98-15.39-43.81-27.26-67.82-33.72C273.32,2.37,254.34,0,235.91,0h0Z"/>
    </g>
    <path d="M444.38,20.14c-6.48-.41-14.83,1.5-25.53,5.85-10.65,4.33-21.72,10.35-30.17,15.12-8.05,4.54-15.17,8.67-22.72,13.04l-2,1.16c12.27,12.06,21.81,26.11,31.11,40.7,2.12-1.31,4.7-2.89,7.54-4.62,3.9-2.38,8.22-5.02,12.27-7.54,7.06-4.39,16.18-10.25,24.17-16.72,8.15-6.6,13.71-12.66,17.01-18.52,3.69-6.55,4.38-12.62,2.11-18.55-2.4-6.32-6.79-9.47-13.79-9.92Z"/>
    <path d="M16.81,97.06c-1.44,8.94.13,15.77,4.81,20.86,13.74,14.94,51.78,12.03,76.96,10.1,2.1-.16,4.12-.32,6.06-.46.12-13.08,1.2-29.5,6.7-46.6-12.08-1.81-30.59-4.37-48.06-4.37-22.82,0-43.86,4.37-46.47,20.47Z"/>
    <ellipse class="st1" cx="316.82" cy="296.49" rx="30.56" ry="16.66" transform="translate(-32.77 39.45) rotate(-6.78)"/>
    <path class="st4" d="M348.68,136.88c9.93,0,17.99,10.06,17.99,22.47s-8.05,22.47-17.99,22.47-17.98-10.06-17.98-22.47c0-12.41,8.05-22.47,17.98-22.47Z"/>
    <path class="st2" d="M285.75,291.96c8.68-8.72,26.1-12.33,37.93-13.11,6.81-.44,14.56.21,19.98,4.83,4.61,3.95,7.54,11.47,5.08,17.33-5.07,11.96-25.02,12.99-35.83,13.2-6.66.13-13.54-.18-20.03-1.76-8.83-2.15-10.77-13.22-7.13-20.49Z"/>
    <path class="st2" d="M231.1,41.65c9.58-4.37,25.12-3.43,35.05-.47,18.5,5.52,12.56,104.56,10.75,105.13-13.19-16.62-67.21-83.62-67.21-83.62.69-9.2,13.97-17.65,21.4-21.03Z"/>
    <path class="st4" d="M202.6,154.86c9.93,0,17.98,10.06,17.98,22.48s-8.04,22.48-17.98,22.48-17.99-10.06-17.99-22.48,8.06-22.48,17.99-22.48Z"/>
    <path class="st6" d="M231.1,41.65c9.58-4.37,25.11-3.43,35.05-.47,18.5,5.52,12.56,104.56,10.75,105.13-13.18-16.62-67.2-83.62-67.2-83.62.69-9.2,13.97-17.65,21.4-21.03Z"/>
    <circle class="st4" cx="202.59" cy="177.34" r="11.24"/>
    <circle class="st4" cx="348.67" cy="159.35" r="11.18"/>
    <ellipse class="st0" cx="316.82" cy="296.47" rx="32.17" ry="17.54" transform="translate(-32.76 39.45) rotate(-6.78)"/>
  </g>
  <g>
    <g>
      <polygon class="st3" points="392.9 502.16 453.47 157.46 700.33 157.46 683.06 256.96 540.54 256.96 537.27 275.21 616.54 275.21 599.27 374.71 519.45 374.71 514.67 402.21 666.49 402.21 648.57 502.16 392.9 502.16"/>
      <path class="st5" d="M414.34,484.16l54.24-308.7h210.36l-11.02,63.5h-142.44l-9.7,54.24h79.38l-11.02,63.5h-79.82l-11.02,63.5h151.7l-11.47,63.95h-219.18Z"/>
    </g>
    <g>
      <path class="st3" d="M941.01,502.16l-11.47-59.98h-88.2l-32.63,59.98h-113.06l190.08-344.7h92.44l68.45,344.7h-105.61ZM912.21,344.88l-5.05-27.28-14.88,27.28h19.93Z"/>
      <path class="st5" d="M726.14,484.16l170.23-308.7h67.03l61.3,308.7h-68.8l-11.47-59.98h-113.78l-32.63,59.98h-71.88ZM861.96,362.88h71.88l-14.11-76.29c-.3-1.62-.74-4.04-1.32-7.28-.59-3.23-1.14-6.47-1.65-9.7-.52-3.23-.85-5.66-.99-7.28-.74,1.76-1.8,4.12-3.2,7.06-1.4,2.94-2.87,5.88-4.41,8.82-1.54,2.94-2.83,5.29-3.86,7.06l-42.34,77.62Z"/>
    </g>
    <g>
      <path class="st3" d="M1266.18,502.16l-24.25-109.37h-29.56l-19.4,109.37h-104l60.57-344.7h140.8c19.25,0,36.7,2.43,51.85,7.24,15.79,5.01,29.46,12.54,40.64,22.4,11.42,10.08,20.16,22.53,25.97,37.01,5.62,14,8.46,29.91,8.46,47.28,0,9.2-1.22,19.37-3.62,30.24-2.5,11.3-6.87,22.59-12.99,33.55-6.35,11.37-15.14,21.78-26.12,30.96-7.41,6.18-16.11,11.45-26,15.73l27.98,120.31h-110.32ZM1286.36,293.29c11.03,0,15.54-2.3,16.97-3.29,3.29-2.29,5.4-4.66,6.42-7.26,1.5-3.81,2.27-7.12,2.27-9.81,0-3.44-.66-6.15-2.03-8.3-1.26-1.98-3.39-3.6-6.51-4.95-4.11-1.77-10.11-2.71-17.34-2.71h-50.3l-6.2,36.32h56.72Z"/>
      <path class="st5" d="M1110.4,484.16l54.24-308.7h125.68c17.49,0,32.96,2.13,46.42,6.39,13.45,4.27,24.84,10.51,34.18,18.74,9.33,8.23,16.39,18.3,21.17,30.21,4.78,11.91,7.17,25.43,7.17,40.57,0,7.94-1.07,16.72-3.2,26.35-2.13,9.63-5.84,19.18-11.14,28.67s-12.61,18.12-21.94,25.91c-9.34,7.79-21.21,13.82-35.61,18.08l26.46,113.78h-73.21l-24.25-109.37h-59.09l-19.4,109.37h-67.47ZM1208.3,311.29h78.06c11.91,0,20.98-2.17,27.23-6.5,6.25-4.33,10.55-9.48,12.9-15.43,2.35-5.95,3.53-11.43,3.53-16.43,0-6.91-1.62-12.9-4.85-17.97-3.23-5.07-8.09-9-14.55-11.8-6.47-2.79-14.63-4.19-24.48-4.19h-65.49l-12.35,72.32Z"/>
    </g>
    <g>
      <polygon class="st3" points="1497.72 502.16 1540.94 257.85 1457.27 257.85 1474.46 157.46 1746.03 157.46 1728.84 257.85 1644.53 257.85 1601.31 502.16 1497.72 502.16"/>
      <path class="st5" d="M1519.18,484.16l43.22-244.31h-83.79l11.03-64.39h235.05l-11.02,64.39h-84.23l-43.22,244.31h-67.03Z"/>
    </g>
    <g>
      <polygon class="st3" points="1914.09 502.16 1936.14 375.15 1856.2 375.15 1833.71 502.16 1729.7 502.16 1790.27 157.46 1894.35 157.46 1873.19 276.09 1953.48 276.09 1974.65 157.46 2078.63 157.46 2018.07 502.16 1914.09 502.16"/>
      <path class="st5" d="M1751.14,484.16l54.24-308.7h67.47l-21.17,118.63h116.87l21.17-118.63h67.47l-54.24,308.7h-67.47l22.05-127.01h-116.42l-22.49,127.01h-67.47Z"/>
    </g>
  </g>
</svg>