<?xml version="1.0" encoding="UTF-8"?>
<svg id="Layer_1" xmlns="http://www.w3.org/2000/svg" version="1.1" viewBox="0 0 1697.65 354.7">
  <!-- Generator: Adobe Illustrator 29.5.1, SVG Export Plug-In . SVG Version: 2.1.0 Build 141)  -->
  <defs>
    <style>
      .st0 {
        fill: #fff;
        stroke: #231f20;
        stroke-miterlimit: 10;
        stroke-width: 10px;
      }

      .st1 {
        fill: #4c5257;
      }
    </style>
  </defs>
  <g>
    <polygon class="st0" points="5.96 349.7 66.52 5 313.39 5 296.11 104.5 153.59 104.5 150.33 122.75 229.6 122.75 212.32 222.25 132.5 222.25 127.73 249.75 279.55 249.75 261.63 349.7 5.96 349.7"/>
    <path class="st1" d="M27.39,331.7L81.64,23h210.36l-11.02,63.5h-142.44l-9.7,54.24h79.38l-11.02,63.5h-79.82l-11.02,63.5h151.7l-11.47,63.95H27.39Z"/>
  </g>
  <g>
    <path class="st0" d="M554.07,349.7l-11.47-59.98h-88.2l-32.63,59.98h-113.06L498.79,5h92.44l68.45,344.7h-105.61ZM525.27,192.42l-5.05-27.28-14.88,27.28h19.93Z"/>
    <path class="st1" d="M339.19,331.7L509.42,23h67.03l61.3,308.7h-68.8l-11.47-59.98h-113.78l-32.63,59.98h-71.88ZM475.02,210.42h71.88l-14.11-76.29c-.3-1.62-.74-4.04-1.32-7.28-.59-3.23-1.14-6.47-1.65-9.7-.52-3.23-.85-5.66-.99-7.28-.74,1.76-1.8,4.12-3.2,7.06-1.4,2.94-2.87,5.88-4.41,8.82-1.54,2.94-2.83,5.29-3.86,7.06l-42.34,77.62Z"/>
  </g>
  <g>
    <path class="st0" d="M879.24,349.7l-24.25-109.37h-29.56l-19.4,109.37h-104L762.59,5h140.8c19.25,0,36.7,2.43,51.85,7.24,15.79,5.01,29.46,12.54,40.64,22.4,11.42,10.08,20.16,22.53,25.97,37.01,5.62,14,8.46,29.91,8.46,47.28,0,9.2-1.22,19.37-3.62,30.24-2.5,11.3-6.87,22.59-12.99,33.55-6.35,11.37-15.14,21.78-26.12,30.96-7.41,6.18-16.11,11.45-26,15.73l27.98,120.31h-110.32ZM899.42,140.83c11.03,0,15.54-2.3,16.97-3.29,3.29-2.29,5.4-4.66,6.42-7.26,1.5-3.81,2.27-7.12,2.27-9.81,0-3.44-.66-6.15-2.03-8.3-1.26-1.98-3.39-3.6-6.51-4.95-4.11-1.77-10.11-2.71-17.34-2.71h-50.3l-6.2,36.32h56.72Z"/>
    <path class="st1" d="M723.46,331.7l54.24-308.7h125.68c17.49,0,32.96,2.13,46.42,6.39,13.45,4.27,24.84,10.51,34.18,18.74,9.33,8.23,16.39,18.3,21.17,30.21,4.78,11.91,7.17,25.43,7.17,40.57,0,7.94-1.07,16.72-3.2,26.35-2.13,9.63-5.84,19.18-11.14,28.67s-12.61,18.12-21.94,25.91c-9.34,7.79-21.21,13.82-35.61,18.08l26.46,113.78h-73.21l-24.25-109.37h-59.09l-19.4,109.37h-67.47ZM821.36,158.83h78.06c11.91,0,20.98-2.17,27.23-6.5,6.25-4.33,10.55-9.48,12.9-15.43,2.35-5.95,3.53-11.43,3.53-16.43,0-6.91-1.62-12.9-4.85-17.97-3.23-5.07-8.09-9-14.55-11.8-6.47-2.79-14.63-4.19-24.48-4.19h-65.49l-12.35,72.32Z"/>
  </g>
  <g>
    <polygon class="st0" points="1110.77 349.7 1153.99 105.39 1070.32 105.39 1087.51 5 1359.09 5 1341.9 105.39 1257.58 105.39 1214.37 349.7 1110.77 349.7"/>
    <path class="st1" d="M1132.24,331.7l43.22-244.31h-83.79l11.03-64.39h235.05l-11.02,64.39h-84.23l-43.22,244.31h-67.03Z"/>
  </g>
  <g>
    <polygon class="st0" points="1527.14 349.7 1549.19 222.69 1469.25 222.69 1446.76 349.7 1342.76 349.7 1403.33 5 1507.41 5 1486.24 123.63 1566.54 123.63 1587.71 5 1691.69 5 1631.12 349.7 1527.14 349.7"/>
    <path class="st1" d="M1364.2,331.7l54.24-308.7h67.47l-21.17,118.63h116.87l21.17-118.63h67.47l-54.24,308.7h-67.47l22.05-127.01h-116.42l-22.49,127.01h-67.47Z"/>
  </g>
</svg>