<?xml version="1.0" encoding="UTF-8"?>
<svg xmlns="http://www.w3.org/2000/svg" version="1.1" viewBox="0 0 3944.74 460.55">
  <!-- Generator: Adobe Illustrator 29.5.1, SVG Export Plug-In . SVG Version: 2.1.0 Build 141)  -->
  <defs>
    <style>
      .st0 {
        fill: #f7b2c1;
      }

      .st1 {
        fill: #231f20;
      }

      .st2, .st3, .st4 {
        fill: #fff;
      }

      .st5, .st6, .st7, .st8, .st9, .st10, .st11, .st12 {
        fill: none;
        stroke-linejoin: round;
      }

      .st5, .st6, .st8, .st12 {
        stroke: #7e8387;
      }

      .st5, .st7 {
        stroke-width: 90px;
      }

      .st3 {
        stroke-width: 10.04px;
      }

      .st3, .st7, .st9, .st10, .st11, .st4 {
        stroke: #231f20;
      }

      .st6, .st10 {
        stroke-width: 75px;
      }

      .st13 {
        font-family: Overpass-BlackItalic, Overpass;
        font-size: 477px;
        font-style: italic;
      }

      .st13, .st14, .st15 {
        fill: #f47c30;
      }

      .st13, .st15 {
        font-weight: 800;
      }

      .st8, .st9 {
        stroke-width: 74px;
      }

      .st11, .st12 {
        stroke-width: 93px;
      }

      .st16 {
        display: none;
      }

      .st17 {
        fill: #4c5257;
      }

      .st18 {
        fill: #f8baca;
      }

      .st19 {
        fill: #7e8387;
      }

      .st15 {
        font-family: Overpass-Black, Overpass;
        font-size: 488.61px;
      }

      .st4 {
        stroke-miterlimit: 10;
        stroke-width: 9.46px;
      }
    </style>
  </defs>
  <g id="Layer_1" class="st16">
    <g>
      <circle class="st1" cx="1178.13" cy="259.91" r="202.05"/>
      <circle class="st1" cx="1178.13" cy="259.91" r="181.97"/>
    </g>
    <path class="st3" d="M1178.13,585.82c-87.06,0-168.9-33.9-230.46-95.46-61.56-61.56-95.46-143.4-95.46-230.46s33.9-168.9,95.46-230.46c61.56-61.56,143.4-95.46,230.46-95.46s168.9,33.9,230.46,95.46c61.56,61.56,95.46,143.4,95.46,230.46s-33.9,168.9-95.46,230.46c-61.56,61.56-143.4,95.46-230.46,95.46Z"/>
    <circle class="st19" cx="1178.13" cy="259.91" r="305.44"/>
    <g>
      <g>
        <polygon class="st3" points="979.21 461.95 1031.22 167.04 1005.84 167.04 1020.74 82.54 1112.43 57.86 1183.5 57.86 1112.25 461.95 979.21 461.95"/>
        <path class="st14" d="M1095.72,441.88h-92.89l52-294.92h-25.38l8.68-49.24,73.54-19.8h48.22l-64.17,363.95Z"/>
      </g>
      <g>
        <polygon class="st3" points="1172.75 461.95 1224.75 167.04 1199.37 167.04 1214.27 82.54 1305.96 57.86 1377.04 57.86 1305.78 461.95 1172.75 461.95"/>
        <path class="st14" d="M1289.25,441.88h-92.89l52-294.92h-25.38l8.68-49.24,73.54-19.8h48.22l-64.17,363.95Z"/>
      </g>
    </g>
    <g>
      <path class="st2" d="M-1011.01,28.3c-3.3-8.66-9.79-13.37-19.29-13.97-7.45-.48-16.71,1.59-28.31,6.31-10.98,4.46-22.27,10.61-30.89,15.46-8.08,4.56-15.22,8.7-22.78,13.08l-6.53,3.78c-20.75-17.3-45.61-29.72-69.5-36.14-31.86-8.55-79.35-9.73-108.5,4.59-19.71,9.68-51.11,30.52-61.53,54.48l-.71-.11c-19.69-3-42.51-5.9-62.53-4.66-26,1.61-40.43,10.16-42.9,25.42-1.75,10.83.4,19.62,6.4,26.14,10.12,11.01,29.46,13.77,49.4,13.77,11.21,0,22.62-.87,32.69-1.64,3.15-.24,6.13-.47,8.88-.65,2.64,37.84,24.7,81.96,66.84,133.8,15.33,18.82,43.37,44.9,76.14,61.56,37.27,18.96,69.72,19.86,93.83,2.63,48.65-34.75,62.26-132.93,59.53-190.47-.64-13.55-3.86-26.19-8.91-37.91l.4-.25c2.38-1.5,5.97-3.7,10.13-6.24,3.92-2.39,8.25-5.04,12.31-7.56,7.21-4.48,16.55-10.49,24.81-17.18,8.78-7.11,14.84-13.76,18.53-20.33,4.6-8.17,5.44-16.21,2.51-23.89Z"/>
      <path class="st1" d="M-1239.16,10.49c18.05,0,36.12,2.38,50.84,6.33,23.89,6.42,48.75,18.85,69.5,36.14l6.53-3.78c7.56-4.38,14.7-8.52,22.78-13.08,8.62-4.86,19.91-11,30.89-15.46,10.52-4.28,19.11-6.37,26.17-6.37.73,0,1.44.02,2.14.07,9.5.61,15.99,5.31,19.29,13.97,2.93,7.68,2.09,15.72-2.51,23.89-3.69,6.57-9.76,13.22-18.53,20.33-8.26,6.69-17.6,12.69-24.81,17.18-4.06,2.52-8.39,5.17-12.31,7.56-4.16,2.54-7.75,4.74-10.13,6.24l-.4.25c5.05,11.73,8.28,24.36,8.91,37.91,2.73,57.55-10.88,155.73-59.53,190.47-11.47,8.2-24.82,12.29-39.68,12.29-16.38,0-34.6-4.98-54.14-14.92-32.77-16.66-60.81-42.74-76.14-61.56-42.13-51.84-64.19-95.97-66.84-133.8-2.76.18-5.74.41-8.88.65-10.07.77-21.47,1.64-32.69,1.64-19.94,0-39.27-2.76-49.4-13.77-5.99-6.52-8.15-15.31-6.4-26.14,2.47-15.26,16.9-23.81,42.9-25.42,3.26-.2,6.6-.3,9.99-.3,17.39,0,36.07,2.44,52.55,4.96l.71.11c10.42-23.95,41.82-44.8,61.53-54.48,15.68-7.7,36.66-10.92,57.66-10.92M-1239.16.48v10s0-10,0-10c-17.22,0-41.97,2.07-62.07,11.94-7.96,3.91-45.96,23.68-62.75,52.5-14.92-2.16-31.63-4.11-47.63-4.11-3.68,0-7.25.11-10.61.31-38.97,2.42-49.87,19.72-52.15,33.81-2.82,17.45,3.29,28.39,8.91,34.5,10.67,11.6,28.7,17,56.76,17,11.32,0,22.64-.85,32.69-1.61,5.56,37.64,27.88,80.11,67.96,129.43,16.01,19.66,45.26,46.83,79.37,64.17,20.87,10.62,40.61,16.01,58.68,16.01,17.05,0,32.36-4.76,45.5-14.16,12.73-9.09,23.9-22.45,33.2-39.72,7.98-14.82,14.62-32.54,19.71-52.65,8.36-33,12.4-72.89,10.79-106.72-.53-11.23-2.73-22.4-6.56-33.31,1.07-.66,2.21-1.35,3.39-2.07,3.91-2.39,8.3-5.07,12.39-7.61,7.46-4.64,17.14-10.86,25.83-17.9,9.78-7.92,16.63-15.51,20.96-23.2,6.04-10.73,7.12-21.92,3.14-32.36-4.67-12.29-14.62-19.53-28-20.39-.9-.06-1.84-.09-2.78-.09-8.38,0-18.17,2.33-29.94,7.11-11.5,4.68-23.16,11.02-32.03,16.02-8.14,4.59-15.3,8.74-22.89,13.14l-.61.35c-19.98-15.39-43.81-27.26-67.82-33.72-16.03-4.3-35.01-6.67-53.44-6.67h0Z"/>
    </g>
    <path d="M-1030.7,20.63c-6.48-.41-14.83,1.5-25.53,5.85-10.65,4.33-21.72,10.35-30.17,15.12-8.05,4.54-15.17,8.67-22.72,13.04l-2,1.16c12.27,12.06,21.81,26.11,31.11,40.7,2.12-1.31,4.7-2.89,7.54-4.62,3.9-2.38,8.22-5.02,12.27-7.54,7.06-4.39,16.18-10.25,24.17-16.72,8.15-6.6,13.71-12.66,17.01-18.52,3.69-6.55,4.38-12.62,2.11-18.55-2.4-6.32-6.79-9.47-13.79-9.92Z"/>
    <path d="M-1458.26,97.54c-1.44,8.94.13,15.77,4.81,20.86,13.74,14.94,51.78,12.03,76.96,10.1,2.1-.16,4.12-.32,6.06-.46.12-13.08,1.2-29.5,6.7-46.6-12.08-1.81-30.59-4.37-48.06-4.37-22.82,0-43.86,4.37-46.47,20.47Z"/>
    <ellipse class="st18" cx="-1158.25" cy="296.97" rx="30.56" ry="16.66" transform="translate(-43.12 -134.57) rotate(-6.78)"/>
    <path class="st1" d="M-1126.4,137.36c9.93,0,17.99,10.06,17.99,22.47s-8.05,22.47-17.99,22.47-17.98-10.06-17.98-22.47c0-12.41,8.05-22.47,17.98-22.47Z"/>
    <path class="st2" d="M-1189.33,292.44c8.68-8.72,26.1-12.33,37.93-13.11,6.81-.44,14.56.21,19.98,4.83,4.61,3.95,7.54,11.47,5.08,17.33-5.07,11.96-25.02,12.99-35.83,13.2-6.66.13-13.54-.18-20.03-1.76-8.83-2.15-10.77-13.22-7.13-20.49Z"/>
    <path class="st2" d="M-1243.98,42.13c9.58-4.37,25.12-3.43,35.05-.47,18.5,5.52,12.56,104.56,10.75,105.13-13.19-16.62-67.21-83.62-67.21-83.62.69-9.2,13.97-17.65,21.4-21.03Z"/>
    <path class="st1" d="M-1272.48,155.34c9.93,0,17.98,10.06,17.98,22.48s-8.04,22.48-17.98,22.48-17.99-10.06-17.99-22.48,8.06-22.48,17.99-22.48Z"/>
    <path class="st19" d="M-1243.98,42.13c9.58-4.37,25.11-3.43,35.05-.47,18.5,5.52,12.56,104.56,10.75,105.13-13.18-16.62-67.2-83.62-67.2-83.62.69-9.2,13.97-17.65,21.4-21.03Z"/>
    <circle class="st1" cx="-1272.49" cy="177.82" r="11.24"/>
    <circle class="st1" cx="-1126.4" cy="159.84" r="11.18"/>
    <ellipse class="st0" cx="-1158.26" cy="296.96" rx="32.17" ry="17.54" transform="translate(-43.12 -134.57) rotate(-6.78)"/>
    <path class="st5" d="M-1025.75,170.88h262.83c61.89,0,78.6,29.85,78.6,72.37v20.04c0,33.63-14.92,68.79-61.46,68.79h-224.46v124.72"/>
    <polyline class="st12" points="340.79 456.8 340.79 172.65 389.33 172.65 417.17 172.65 537.86 395.79 547.11 412.87 565.59 412.87 574.83 395.79 695.52 172.65 771.89 172.65 771.89 456.8"/>
    <path class="st8" d="M-400.98,420.48h-17.08s-39.7,0-39.7,0c-1.03,0-7.51,0-8.47-.02-44.54-.44-86.54-7.51-101.05-60.31-3.27-8.16-5.21-35.17-5.21-47.42v-58.42c0-77.28,47.77-90.12,102.77-90.69,2.47-.06,7.61-.06,9.44-.06h45.22s14.08,0,14.08,0h14.08s45.22,0,45.22,0c1.83,0,6.97,0,9.44.06,55,.57,102.77,13.41,102.77,90.69v58.42c0,12.25-1.93,39.27-5.21,47.42-14.51,52.8-56.52,59.87-101.05,60.31-.97.01-7.44.02-8.47.02h-56.78Z"/>
    <path class="st6" d="M-174.46,420.73H85.45c76.15,0,101.53-8.24,101.53-64.14,0-61.02-23.6-66.58-164.11-66.35-127.36.22-141.84-9.14-141.84-62.8,0-37.86,10.24-64.13,83.73-64.13h301.26"/>
    <text class="st15" transform="translate(1559.04 456.83) scale(.98) skewX(-10)"><tspan x="0" y="0">Pro</tspan></text>
  </g>
  <g id="Layer_1_copy" class="st16">
    <g>
      <circle class="st1" cx="1178.13" cy="259.91" r="202.05"/>
      <circle class="st1" cx="1178.13" cy="259.91" r="181.97"/>
    </g>
    <path class="st3" d="M1178.13,585.82c-87.06,0-168.9-33.9-230.46-95.46-61.56-61.56-95.46-143.4-95.46-230.46s33.9-168.9,95.46-230.46c61.56-61.56,143.4-95.46,230.46-95.46s168.9,33.9,230.46,95.46c61.56,61.56,95.46,143.4,95.46,230.46s-33.9,168.9-95.46,230.46c-61.56,61.56-143.4,95.46-230.46,95.46Z"/>
    <circle class="st19" cx="1178.13" cy="259.91" r="305.44"/>
    <g>
      <g>
        <polygon class="st3" points="979.21 461.95 1031.22 167.04 1005.84 167.04 1020.74 82.54 1112.43 57.86 1183.5 57.86 1112.25 461.95 979.21 461.95"/>
        <path class="st14" d="M1095.72,441.88h-92.89l52-294.92h-25.38l8.68-49.24,73.54-19.8h48.22l-64.17,363.95Z"/>
      </g>
      <g>
        <polygon class="st3" points="1172.75 461.95 1224.75 167.04 1199.37 167.04 1214.27 82.54 1305.96 57.86 1377.04 57.86 1305.78 461.95 1172.75 461.95"/>
        <path class="st14" d="M1289.25,441.88h-92.89l52-294.92h-25.38l8.68-49.24,73.54-19.8h48.22l-64.17,363.95Z"/>
      </g>
    </g>
    <g>
      <path class="st2" d="M-1011.01,28.3c-3.3-8.66-9.79-13.37-19.29-13.97-7.45-.48-16.71,1.59-28.31,6.31-10.98,4.46-22.27,10.61-30.89,15.46-8.08,4.56-15.22,8.7-22.78,13.08l-6.53,3.78c-20.75-17.3-45.61-29.72-69.5-36.14-31.86-8.55-79.35-9.73-108.5,4.59-19.71,9.68-51.11,30.52-61.53,54.48l-.71-.11c-19.69-3-42.51-5.9-62.53-4.66-26,1.61-40.43,10.16-42.9,25.42-1.75,10.83.4,19.62,6.4,26.14,10.12,11.01,29.46,13.77,49.4,13.77,11.21,0,22.62-.87,32.69-1.64,3.15-.24,6.13-.47,8.88-.65,2.64,37.84,24.7,81.96,66.84,133.8,15.33,18.82,43.37,44.9,76.14,61.56,37.27,18.96,69.72,19.86,93.83,2.63,48.65-34.75,62.26-132.93,59.53-190.47-.64-13.55-3.86-26.19-8.91-37.91l.4-.25c2.38-1.5,5.97-3.7,10.13-6.24,3.92-2.39,8.25-5.04,12.31-7.56,7.21-4.48,16.55-10.49,24.81-17.18,8.78-7.11,14.84-13.76,18.53-20.33,4.6-8.17,5.44-16.21,2.51-23.89Z"/>
      <path class="st1" d="M-1239.16,10.49c18.05,0,36.12,2.38,50.84,6.33,23.89,6.42,48.75,18.85,69.5,36.14l6.53-3.78c7.56-4.38,14.7-8.52,22.78-13.08,8.62-4.86,19.91-11,30.89-15.46,10.52-4.28,19.11-6.37,26.17-6.37.73,0,1.44.02,2.14.07,9.5.61,15.99,5.31,19.29,13.97,2.93,7.68,2.09,15.72-2.51,23.89-3.69,6.57-9.76,13.22-18.53,20.33-8.26,6.69-17.6,12.69-24.81,17.18-4.06,2.52-8.39,5.17-12.31,7.56-4.16,2.54-7.75,4.74-10.13,6.24l-.4.25c5.05,11.73,8.28,24.36,8.91,37.91,2.73,57.55-10.88,155.73-59.53,190.47-11.47,8.2-24.82,12.29-39.68,12.29-16.38,0-34.6-4.98-54.14-14.92-32.77-16.66-60.81-42.74-76.14-61.56-42.13-51.84-64.19-95.97-66.84-133.8-2.76.18-5.74.41-8.88.65-10.07.77-21.47,1.64-32.69,1.64-19.94,0-39.27-2.76-49.4-13.77-5.99-6.52-8.15-15.31-6.4-26.14,2.47-15.26,16.9-23.81,42.9-25.42,3.26-.2,6.6-.3,9.99-.3,17.39,0,36.07,2.44,52.55,4.96l.71.11c10.42-23.95,41.82-44.8,61.53-54.48,15.68-7.7,36.66-10.92,57.66-10.92M-1239.16.48v10s0-10,0-10c-17.22,0-41.97,2.07-62.07,11.94-7.96,3.91-45.96,23.68-62.75,52.5-14.92-2.16-31.63-4.11-47.63-4.11-3.68,0-7.25.11-10.61.31-38.97,2.42-49.87,19.72-52.15,33.81-2.82,17.45,3.29,28.39,8.91,34.5,10.67,11.6,28.7,17,56.76,17,11.32,0,22.64-.85,32.69-1.61,5.56,37.64,27.88,80.11,67.96,129.43,16.01,19.66,45.26,46.83,79.37,64.17,20.87,10.62,40.61,16.01,58.68,16.01,17.05,0,32.36-4.76,45.5-14.16,12.73-9.09,23.9-22.45,33.2-39.72,7.98-14.82,14.62-32.54,19.71-52.65,8.36-33,12.4-72.89,10.79-106.72-.53-11.23-2.73-22.4-6.56-33.31,1.07-.66,2.21-1.35,3.39-2.07,3.91-2.39,8.3-5.07,12.39-7.61,7.46-4.64,17.14-10.86,25.83-17.9,9.78-7.92,16.63-15.51,20.96-23.2,6.04-10.73,7.12-21.92,3.14-32.36-4.67-12.29-14.62-19.53-28-20.39-.9-.06-1.84-.09-2.78-.09-8.38,0-18.17,2.33-29.94,7.11-11.5,4.68-23.16,11.02-32.03,16.02-8.14,4.59-15.3,8.74-22.89,13.14l-.61.35c-19.98-15.39-43.81-27.26-67.82-33.72-16.03-4.3-35.01-6.67-53.44-6.67h0Z"/>
    </g>
    <path d="M-1030.7,20.63c-6.48-.41-14.83,1.5-25.53,5.85-10.65,4.33-21.72,10.35-30.17,15.12-8.05,4.54-15.17,8.67-22.72,13.04l-2,1.16c12.27,12.06,21.81,26.11,31.11,40.7,2.12-1.31,4.7-2.89,7.54-4.62,3.9-2.38,8.22-5.02,12.27-7.54,7.06-4.39,16.18-10.25,24.17-16.72,8.15-6.6,13.71-12.66,17.01-18.52,3.69-6.55,4.38-12.62,2.11-18.55-2.4-6.32-6.79-9.47-13.79-9.92Z"/>
    <path d="M-1458.26,97.54c-1.44,8.94.13,15.77,4.81,20.86,13.74,14.94,51.78,12.03,76.96,10.1,2.1-.16,4.12-.32,6.06-.46.12-13.08,1.2-29.5,6.7-46.6-12.08-1.81-30.59-4.37-48.06-4.37-22.82,0-43.86,4.37-46.47,20.47Z"/>
    <ellipse class="st18" cx="-1158.25" cy="296.97" rx="30.56" ry="16.66" transform="translate(-43.12 -134.57) rotate(-6.78)"/>
    <path class="st1" d="M-1126.4,137.36c9.93,0,17.99,10.06,17.99,22.47s-8.05,22.47-17.99,22.47-17.98-10.06-17.98-22.47c0-12.41,8.05-22.47,17.98-22.47Z"/>
    <path class="st2" d="M-1189.33,292.44c8.68-8.72,26.1-12.33,37.93-13.11,6.81-.44,14.56.21,19.98,4.83,4.61,3.95,7.54,11.47,5.08,17.33-5.07,11.96-25.02,12.99-35.83,13.2-6.66.13-13.54-.18-20.03-1.76-8.83-2.15-10.77-13.22-7.13-20.49Z"/>
    <path class="st2" d="M-1243.98,42.13c9.58-4.37,25.12-3.43,35.05-.47,18.5,5.52,12.56,104.56,10.75,105.13-13.19-16.62-67.21-83.62-67.21-83.62.69-9.2,13.97-17.65,21.4-21.03Z"/>
    <path class="st1" d="M-1272.48,155.34c9.93,0,17.98,10.06,17.98,22.48s-8.04,22.48-17.98,22.48-17.99-10.06-17.99-22.48,8.06-22.48,17.99-22.48Z"/>
    <path class="st19" d="M-1243.98,42.13c9.58-4.37,25.11-3.43,35.05-.47,18.5,5.52,12.56,104.56,10.75,105.13-13.18-16.62-67.2-83.62-67.2-83.62.69-9.2,13.97-17.65,21.4-21.03Z"/>
    <circle class="st1" cx="-1272.49" cy="177.82" r="11.24"/>
    <circle class="st1" cx="-1126.4" cy="159.84" r="11.18"/>
    <ellipse class="st0" cx="-1158.26" cy="296.96" rx="32.17" ry="17.54" transform="translate(-43.12 -134.57) rotate(-6.78)"/>
    <path class="st5" d="M-1025.75,170.88h262.83c61.89,0,78.6,29.85,78.6,72.37v20.04c0,33.63-14.92,68.79-61.46,68.79h-224.46v124.72"/>
    <polyline class="st12" points="340.79 456.8 340.79 172.65 389.33 172.65 417.17 172.65 537.86 395.79 547.11 412.87 565.59 412.87 574.83 395.79 695.52 172.65 771.89 172.65 771.89 456.8"/>
    <path class="st8" d="M-400.98,420.48h-17.08s-39.7,0-39.7,0c-1.03,0-7.51,0-8.47-.02-44.54-.44-86.54-7.51-101.05-60.31-3.27-8.16-5.21-35.17-5.21-47.42v-58.42c0-77.28,47.77-90.12,102.77-90.69,2.47-.06,7.61-.06,9.44-.06h45.22s14.08,0,14.08,0h14.08s45.22,0,45.22,0c1.83,0,6.97,0,9.44.06,55,.57,102.77,13.41,102.77,90.69v58.42c0,12.25-1.93,39.27-5.21,47.42-14.51,52.8-56.52,59.87-101.05,60.31-.97.01-7.44.02-8.47.02h-56.78Z"/>
    <path class="st6" d="M-174.46,420.73H85.45c76.15,0,101.53-8.24,101.53-64.14,0-61.02-23.6-66.58-164.11-66.35-127.36.22-141.84-9.14-141.84-62.8,0-37.86,10.24-64.13,83.73-64.13h301.26"/>
    <g>
      <path class="st3" d="M1570.26,478.69c22.16-119.31,44.31-242.32,66.47-367.64,55.98.85,111.96-13.07,167.94-19.33,33.53-3.84,59.05,2.9,78.04,18.05,19.24,15.34,31.97,36.18,37.85,58.87,5.4,20.91,6.27,41.64,2.6,61.42-2.58,13.92-7.74,27.27-15.32,40.22-7.67,13.09-18.05,24.93-30.88,36.05-13.04,11.29-28.99,21.05-47.41,29.63-18.47,8.55-39.74,14.99-63.23,18.62-19.41,2.98-38.81,6.26-58.22,8.91-7.01,40.74-14.03,81.39-21.04,121.92-38.93,4.16-77.86,4.44-116.79-6.72ZM1781.85,240.43c4.83-.68,8.63-2.03,11.32-4.05,3.22-2.41,5.64-5.1,7.39-8.25,2.16-3.87,3.52-7.49,4.14-11.1.5-2.9.42-5.91-.24-9.17-.22-1.09-.62-1.96-1.91-2.94-.55-.27-2.88-.81-7.64-.21-20.37,2.58-40.74,5.99-61.11,9.17-2,11.63-3.99,23.26-5.99,34.88,18.01-2.76,36.02-5.79,54.03-8.34Z"/>
      <path class="st14" d="M1594.18,464.1c19.8-108.82,39.59-220.2,59.39-333.15,50.36-1.7,100.73-13.53,151.09-19.17,29.03-3.32,51.22,1.93,66.59,13.55,15.36,11.6,25.34,26.99,29.96,44.39,4.61,17.44,5.33,34.9,2.17,52.24-2.24,12.26-6.68,24.14-13.34,36.02-6.66,11.88-15.62,22.69-26.89,32.99-11.27,10.3-24.97,19.1-41.11,26.88-16.15,7.76-34.72,13.39-55.73,16.64-25.02,3.84-50.04,8.18-75.06,11.03-7.01,40.58-14.03,81.04-21.04,121.33-25.34,1.88-50.68,1.65-76.03-2.77ZM1703.9,272.28c25.98-3.42,51.97-8.1,77.95-11.78,8.66-1.23,15.96-3.99,21.91-8.35,5.94-4.36,10.62-9.5,14.03-15.49,3.41-5.99,5.64-11.97,6.69-17.99.93-5.36.83-10.89-.32-16.58-1.15-5.69-4.02-10.32-8.62-13.83-4.6-3.5-11.47-4.77-20.61-3.62-25.98,3.29-51.97,7.94-77.95,11.72-4.35,25.33-8.71,50.64-13.07,75.92Z"/>
    </g>
    <g>
      <path class="st3" d="M1921.14,478.79c16.81-90.37,33.62-183.86,50.43-279.22,36.55-.04,73.1-8.96,109.64-14.02,9.51-5.16,18.74-8.1,27.55-8.66,25.44-1.76,46.38,11.37,60.56,34.71,1.99,3.26,3.98,6.56,5.97,9.91-11.57,32.32-23.14,66.13-34.72,101.01-7.76-8.8-15.51-17.12-23.27-25.08-4.23-4.34-8.35-7.27-11.92-8.53-3.65-1.29-8.25-1.67-13.66-1.04-5.73.66-10.43,2.38-14.37,5.14-3.89,2.73-7.15,6.51-9.95,11.53-3.28,5.88-5.69,13.23-7.16,21.84-8.72,50.93-17.45,101.93-26.17,152.85-37.65,6.2-75.3,10.69-112.94-.44Z"/>
      <path class="st14" d="M1945.06,463.82c14.45-79.99,28.9-161.84,43.36-244.78,24.06-1.62,48.12-6.25,72.18-10.24-1.33,7.76-2.66,15.52-3.99,23.28,5.02-8.37,12.76-16.32,23.23-23.5,10.46-7.17,20.11-11.06,28.93-11.62,19.09-1.24,33.85,7.12,44.3,23.13-7.05,20.76-14.11,41.98-21.16,63.55-6.22-6.78-12.43-11.32-18.61-13.68-6.19-2.36-13.37-3.12-21.55-2.18-9.14,1.06-17.18,4.2-24.12,9.15-6.93,4.96-12.71,11.64-17.33,19.96-4.62,8.33-7.89,18.11-9.81,29.34-7.75,45.26-15.5,90.47-23.25,135.53-24.06,3.44-48.12,5.33-72.18,2.05Z"/>
    </g>
    <g>
      <path class="st3" d="M2292.51,486.17c-41.98,6.81-73.53-7.97-93.77-39.95-19.52-30.84-25.37-70.37-17.38-113.09,5.09-27.54,14.86-50.63,29.02-70.72,14.45-20.46,32.78-37.63,54.5-51.96,21.87-14.3,46.44-25.01,73.03-29.06,27.17-4.18,50.29.64,68.72,14.38,18.79,13.91,31.94,35.47,39.08,60.84,6.72,23.99,7.5,50.48,2.3,78.48-5.14,27.8-14.78,50.99-28.64,70.89-14.2,20.36-32.34,37.33-53.92,51.45-21.67,14.05-46.21,24.63-72.94,28.74ZM2325.6,293.23c-7.21,1.15-12.88,4.89-18.41,12.06-6.81,8.83-11.56,20.84-14.12,35.74-3,17.44-.84,25.85,1.49,29.83,1.5,2.55,3.31,4.59,10.25,3.48,7.52-1.21,13.16-4.74,18.28-11.4,6.44-8.37,11.04-20.41,13.69-35.82,2.43-14.14,1.99-25.01-1.22-30.61-1.14-1.97-2.56-4.45-9.96-3.27Z"/>
      <path class="st14" d="M2292.51,466.1c-35.29,5.59-61.1-5.28-77.44-29.59-16.34-24.35-20.99-57.14-13.95-95.77,4.64-25.62,13.31-47.24,26.02-66.26,12.71-19,28.53-34.69,47.47-47.57,18.93-12.8,40.03-21.91,63.29-25.44,23.1-3.52,42.18.09,57.25,10.56,15.07,10.43,25.52,26.58,31.35,46.63,5.83,20.12,6.41,43.11,1.74,68.82-4.69,25.93-13.27,47.65-25.71,66.5-12.44,18.83-28.04,34.29-46.78,46.95-18.75,12.58-39.83,21.57-63.24,25.16ZM2304.81,394.41c13.31-2.15,24.43-9.09,33.37-20.6,8.93-11.52,15.05-26.76,18.36-45.93,3.31-19.15,2.23-33.6-3.25-43.27-5.48-9.66-14.71-13.56-27.7-11.47-12.99,2.09-24.15,9.24-33.48,21.22-9.33,11.99-15.6,27.21-18.82,45.89-3.22,18.66-2.03,32.9,3.59,42.62,5.62,9.72,14.93,13.62,27.92,11.52Z"/>
    </g>
    <rect class="st14" x="1628.48" y="-207.75" width="20.07" height="20.07"/>
  </g>
  <g id="Layer_1_copy_2" class="st16">
    <g>
      <circle class="st1" cx="1178.13" cy="259.91" r="202.05"/>
      <circle class="st1" cx="1178.13" cy="259.91" r="181.97"/>
    </g>
    <path class="st3" d="M1178.13,585.82c-87.06,0-168.9-33.9-230.46-95.46-61.56-61.56-95.46-143.4-95.46-230.46s33.9-168.9,95.46-230.46c61.56-61.56,143.4-95.46,230.46-95.46s168.9,33.9,230.46,95.46c61.56,61.56,95.46,143.4,95.46,230.46s-33.9,168.9-95.46,230.46c-61.56,61.56-143.4,95.46-230.46,95.46Z"/>
    <circle class="st19" cx="1178.13" cy="259.91" r="305.44"/>
    <g>
      <g>
        <polygon class="st3" points="979.21 461.95 1031.22 167.04 1005.84 167.04 1020.74 82.54 1112.43 57.86 1183.5 57.86 1112.25 461.95 979.21 461.95"/>
        <path class="st14" d="M1095.72,441.88h-92.89l52-294.92h-25.38l8.68-49.24,73.54-19.8h48.22l-64.17,363.95Z"/>
      </g>
      <g>
        <polygon class="st3" points="1172.75 461.95 1224.75 167.04 1199.37 167.04 1214.27 82.54 1305.96 57.86 1377.04 57.86 1305.78 461.95 1172.75 461.95"/>
        <path class="st14" d="M1289.25,441.88h-92.89l52-294.92h-25.38l8.68-49.24,73.54-19.8h48.22l-64.17,363.95Z"/>
      </g>
    </g>
    <g>
      <path class="st2" d="M-1011.01,28.3c-3.3-8.66-9.79-13.37-19.29-13.97-7.45-.48-16.71,1.59-28.31,6.31-10.98,4.46-22.27,10.61-30.89,15.46-8.08,4.56-15.22,8.7-22.78,13.08l-6.53,3.78c-20.75-17.3-45.61-29.72-69.5-36.14-31.86-8.55-79.35-9.73-108.5,4.59-19.71,9.68-51.11,30.52-61.53,54.48l-.71-.11c-19.69-3-42.51-5.9-62.53-4.66-26,1.61-40.43,10.16-42.9,25.42-1.75,10.83.4,19.62,6.4,26.14,10.12,11.01,29.46,13.77,49.4,13.77,11.21,0,22.62-.87,32.69-1.64,3.15-.24,6.13-.47,8.88-.65,2.64,37.84,24.7,81.96,66.84,133.8,15.33,18.82,43.37,44.9,76.14,61.56,37.27,18.96,69.72,19.86,93.83,2.63,48.65-34.75,62.26-132.93,59.53-190.47-.64-13.55-3.86-26.19-8.91-37.91l.4-.25c2.38-1.5,5.97-3.7,10.13-6.24,3.92-2.39,8.25-5.04,12.31-7.56,7.21-4.48,16.55-10.49,24.81-17.18,8.78-7.11,14.84-13.76,18.53-20.33,4.6-8.17,5.44-16.21,2.51-23.89Z"/>
      <path class="st1" d="M-1239.16,10.49c18.05,0,36.12,2.38,50.84,6.33,23.89,6.42,48.75,18.85,69.5,36.14l6.53-3.78c7.56-4.38,14.7-8.52,22.78-13.08,8.62-4.86,19.91-11,30.89-15.46,10.52-4.28,19.11-6.37,26.17-6.37.73,0,1.44.02,2.14.07,9.5.61,15.99,5.31,19.29,13.97,2.93,7.68,2.09,15.72-2.51,23.89-3.69,6.57-9.76,13.22-18.53,20.33-8.26,6.69-17.6,12.69-24.81,17.18-4.06,2.52-8.39,5.17-12.31,7.56-4.16,2.54-7.75,4.74-10.13,6.24l-.4.25c5.05,11.73,8.28,24.36,8.91,37.91,2.73,57.55-10.88,155.73-59.53,190.47-11.47,8.2-24.82,12.29-39.68,12.29-16.38,0-34.6-4.98-54.14-14.92-32.77-16.66-60.81-42.74-76.14-61.56-42.13-51.84-64.19-95.97-66.84-133.8-2.76.18-5.74.41-8.88.65-10.07.77-21.47,1.64-32.69,1.64-19.94,0-39.27-2.76-49.4-13.77-5.99-6.52-8.15-15.31-6.4-26.14,2.47-15.26,16.9-23.81,42.9-25.42,3.26-.2,6.6-.3,9.99-.3,17.39,0,36.07,2.44,52.55,4.96l.71.11c10.42-23.95,41.82-44.8,61.53-54.48,15.68-7.7,36.66-10.92,57.66-10.92M-1239.16.48v10s0-10,0-10c-17.22,0-41.97,2.07-62.07,11.94-7.96,3.91-45.96,23.68-62.75,52.5-14.92-2.16-31.63-4.11-47.63-4.11-3.68,0-7.25.11-10.61.31-38.97,2.42-49.87,19.72-52.15,33.81-2.82,17.45,3.29,28.39,8.91,34.5,10.67,11.6,28.7,17,56.76,17,11.32,0,22.64-.85,32.69-1.61,5.56,37.64,27.88,80.11,67.96,129.43,16.01,19.66,45.26,46.83,79.37,64.17,20.87,10.62,40.61,16.01,58.68,16.01,17.05,0,32.36-4.76,45.5-14.16,12.73-9.09,23.9-22.45,33.2-39.72,7.98-14.82,14.62-32.54,19.71-52.65,8.36-33,12.4-72.89,10.79-106.72-.53-11.23-2.73-22.4-6.56-33.31,1.07-.66,2.21-1.35,3.39-2.07,3.91-2.39,8.3-5.07,12.39-7.61,7.46-4.64,17.14-10.86,25.83-17.9,9.78-7.92,16.63-15.51,20.96-23.2,6.04-10.73,7.12-21.92,3.14-32.36-4.67-12.29-14.62-19.53-28-20.39-.9-.06-1.84-.09-2.78-.09-8.38,0-18.17,2.33-29.94,7.11-11.5,4.68-23.16,11.02-32.03,16.02-8.14,4.59-15.3,8.74-22.89,13.14l-.61.35c-19.98-15.39-43.81-27.26-67.82-33.72-16.03-4.3-35.01-6.67-53.44-6.67h0Z"/>
    </g>
    <path d="M-1030.7,20.63c-6.48-.41-14.83,1.5-25.53,5.85-10.65,4.33-21.72,10.35-30.17,15.12-8.05,4.54-15.17,8.67-22.72,13.04l-2,1.16c12.27,12.06,21.81,26.11,31.11,40.7,2.12-1.31,4.7-2.89,7.54-4.62,3.9-2.38,8.22-5.02,12.27-7.54,7.06-4.39,16.18-10.25,24.17-16.72,8.15-6.6,13.71-12.66,17.01-18.52,3.69-6.55,4.38-12.62,2.11-18.55-2.4-6.32-6.79-9.47-13.79-9.92Z"/>
    <path d="M-1458.26,97.54c-1.44,8.94.13,15.77,4.81,20.86,13.74,14.94,51.78,12.03,76.96,10.1,2.1-.16,4.12-.32,6.06-.46.12-13.08,1.2-29.5,6.7-46.6-12.08-1.81-30.59-4.37-48.06-4.37-22.82,0-43.86,4.37-46.47,20.47Z"/>
    <ellipse class="st18" cx="-1158.25" cy="296.97" rx="30.56" ry="16.66" transform="translate(-43.12 -134.57) rotate(-6.78)"/>
    <path class="st1" d="M-1126.4,137.36c9.93,0,17.99,10.06,17.99,22.47s-8.05,22.47-17.99,22.47-17.98-10.06-17.98-22.47c0-12.41,8.05-22.47,17.98-22.47Z"/>
    <path class="st2" d="M-1189.33,292.44c8.68-8.72,26.1-12.33,37.93-13.11,6.81-.44,14.56.21,19.98,4.83,4.61,3.95,7.54,11.47,5.08,17.33-5.07,11.96-25.02,12.99-35.83,13.2-6.66.13-13.54-.18-20.03-1.76-8.83-2.15-10.77-13.22-7.13-20.49Z"/>
    <path class="st2" d="M-1243.98,42.13c9.58-4.37,25.12-3.43,35.05-.47,18.5,5.52,12.56,104.56,10.75,105.13-13.19-16.62-67.21-83.62-67.21-83.62.69-9.2,13.97-17.65,21.4-21.03Z"/>
    <path class="st1" d="M-1272.48,155.34c9.93,0,17.98,10.06,17.98,22.48s-8.04,22.48-17.98,22.48-17.99-10.06-17.99-22.48,8.06-22.48,17.99-22.48Z"/>
    <path class="st19" d="M-1243.98,42.13c9.58-4.37,25.11-3.43,35.05-.47,18.5,5.52,12.56,104.56,10.75,105.13-13.18-16.62-67.2-83.62-67.2-83.62.69-9.2,13.97-17.65,21.4-21.03Z"/>
    <circle class="st1" cx="-1272.49" cy="177.82" r="11.24"/>
    <circle class="st1" cx="-1126.4" cy="159.84" r="11.18"/>
    <ellipse class="st0" cx="-1158.26" cy="296.96" rx="32.17" ry="17.54" transform="translate(-43.12 -134.57) rotate(-6.78)"/>
    <path class="st5" d="M-1025.75,170.88h262.83c61.89,0,78.6,29.85,78.6,72.37v20.04c0,33.63-14.92,68.79-61.46,68.79h-224.46v124.72"/>
    <polyline class="st12" points="340.79 456.8 340.79 172.65 389.33 172.65 417.17 172.65 537.86 395.79 547.11 412.87 565.59 412.87 574.83 395.79 695.52 172.65 771.89 172.65 771.89 456.8"/>
    <path class="st8" d="M-400.98,420.48h-17.08s-39.7,0-39.7,0c-1.03,0-7.51,0-8.47-.02-44.54-.44-86.54-7.51-101.05-60.31-3.27-8.16-5.21-35.17-5.21-47.42v-58.42c0-77.28,47.77-90.12,102.77-90.69,2.47-.06,7.61-.06,9.44-.06h45.22s14.08,0,14.08,0h14.08s45.22,0,45.22,0c1.83,0,6.97,0,9.44.06,55,.57,102.77,13.41,102.77,90.69v58.42c0,12.25-1.93,39.27-5.21,47.42-14.51,52.8-56.52,59.87-101.05,60.31-.97.01-7.44.02-8.47.02h-56.78Z"/>
    <path class="st6" d="M-174.46,420.73H85.45c76.15,0,101.53-8.24,101.53-64.14,0-61.02-23.6-66.58-164.11-66.35-127.36.22-141.84-9.14-141.84-62.8,0-37.86,10.24-64.13,83.73-64.13h301.26"/>
    <text class="st13" transform="translate(1478.62 456.8)"><tspan x="0" y="0">PRO</tspan></text>
    <g>
      <circle class="st1" cx="3232.67" cy="263.77" r="202.05"/>
      <circle class="st1" cx="3232.67" cy="263.77" r="181.97"/>
    </g>
    <path class="st3" d="M3232.67,589.68c-87.06,0-168.9-33.9-230.46-95.46-61.56-61.56-95.46-143.4-95.46-230.46s33.9-168.9,95.46-230.46c61.56-61.56,143.4-95.46,230.46-95.46s168.9,33.9,230.46,95.46c61.56,61.56,95.46,143.4,95.46,230.46s-33.9,168.9-95.46,230.46c-61.56,61.56-143.4,95.46-230.46,95.46Z"/>
    <circle class="st19" cx="3232.67" cy="263.77" r="305.44"/>
    <text class="st13" transform="translate(3427.81 456.8)"><tspan x="0" y="0">PRO</tspan></text>
    <g>
      <g>
        <polygon class="st3" points="3033.76 465.82 3085.76 170.9 3060.38 170.9 3075.28 86.4 3166.97 61.72 3238.05 61.72 3166.8 465.82 3033.76 465.82"/>
        <path class="st14" d="M3150.26,445.74h-92.89l52-294.92h-25.38l8.68-49.24,73.54-19.8h48.22l-64.17,363.95Z"/>
      </g>
      <g>
        <polygon class="st3" points="3227.29 465.82 3279.29 170.9 3253.91 170.9 3268.81 86.4 3360.5 61.72 3431.58 61.72 3360.33 465.82 3227.29 465.82"/>
        <path class="st14" d="M3343.79,445.74h-92.89l52-294.92h-25.38l8.68-49.24,73.54-19.8h48.22l-64.17,363.95Z"/>
      </g>
    </g>
    <g>
      <g>
        <path class="st2" d="M3391,159.36c-2.31-6.07-6.85-9.36-13.5-9.78-5.21-.33-11.7,1.11-19.82,4.41-7.68,3.12-15.59,7.43-21.62,10.82-5.66,3.19-10.66,6.09-15.95,9.16l-4.57,2.65c-14.53-12.11-31.93-20.8-48.65-25.3-22.3-5.98-55.55-6.81-75.95,3.21-13.8,6.77-35.78,21.37-43.07,38.13l-.5-.08c-13.78-2.1-29.76-4.13-43.77-3.26-18.2,1.13-28.3,7.11-30.03,17.79-1.22,7.58.28,13.73,4.48,18.3,7.09,7.71,20.62,9.64,34.58,9.64,7.85,0,15.84-.61,22.88-1.15,2.2-.17,4.29-.33,6.22-.46,1.85,26.49,17.29,57.37,46.79,93.66,10.73,13.17,30.36,31.43,53.3,43.09,26.09,13.27,48.81,13.9,65.68,1.84,34.06-24.32,43.58-93.05,41.67-133.33-.44-9.48-2.7-18.33-6.24-26.54l.28-.18c1.66-1.05,4.18-2.59,7.09-4.37,2.74-1.68,5.77-3.53,8.62-5.29,5.05-3.14,11.59-7.34,17.37-12.02,6.14-4.98,10.39-9.63,12.97-14.23,3.22-5.72,3.81-11.35,1.76-16.73Z"/>
        <path class="st1" d="M3231.29,146.89c12.63,0,25.28,1.66,35.59,4.43,16.72,4.5,34.13,13.19,48.65,25.3l4.57-2.65c5.29-3.07,10.29-5.97,15.95-9.16,6.03-3.4,13.94-7.7,21.62-10.82,7.36-2.99,13.38-4.46,18.32-4.46.51,0,1.01.02,1.5.05,6.65.42,11.2,3.72,13.5,9.78,2.05,5.38,1.46,11.01-1.76,16.73-2.59,4.6-6.83,9.25-12.97,14.23-5.78,4.68-12.32,8.89-17.37,12.02-2.84,1.77-5.88,3.62-8.62,5.29-2.91,1.78-5.43,3.31-7.09,4.37l-.28.18c3.54,8.21,5.79,17.05,6.24,26.54,1.91,40.28-7.61,109.01-41.67,133.33-8.03,5.74-17.37,8.61-27.78,8.61-11.47,0-24.22-3.48-37.9-10.44-22.94-11.66-42.57-29.92-53.3-43.09-29.49-36.29-44.94-67.18-46.79-93.66-1.93.13-4.02.29-6.22.46-7.05.54-15.03,1.15-22.88,1.15-13.96,0-27.49-1.93-34.58-9.64-4.2-4.56-5.7-10.72-4.48-18.3,1.73-10.68,11.83-16.67,30.03-17.79,2.28-.14,4.62-.21,6.99-.21,12.17,0,25.25,1.71,36.78,3.47l.5.08c7.3-16.77,29.28-31.36,43.07-38.13,10.98-5.39,25.66-7.64,40.36-7.64M3231.29,139.89v7s0-7,0-7c-12.06,0-29.38,1.45-43.45,8.36-5.57,2.74-32.17,16.58-43.93,36.75-10.44-1.51-22.14-2.88-33.34-2.88-2.57,0-5.07.07-7.42.22-27.28,1.69-34.91,13.8-36.5,23.66-1.97,12.21,2.3,19.87,6.24,24.15,7.47,8.12,20.09,11.9,39.73,11.9,7.92,0,15.85-.59,22.88-1.13,3.89,26.35,19.52,56.08,47.58,90.6,11.21,13.76,31.68,32.78,55.56,44.92,14.61,7.43,28.43,11.2,41.07,11.2,11.94,0,22.65-3.33,31.85-9.91,8.91-6.36,16.73-15.72,23.24-27.8,5.59-10.38,10.23-22.77,13.8-36.85,5.85-23.1,8.68-51.03,7.55-74.7-.37-7.86-1.91-15.68-4.59-23.32.75-.46,1.54-.94,2.37-1.45,2.74-1.67,5.81-3.55,8.67-5.33,5.22-3.25,12-7.6,18.08-12.53,6.84-5.55,11.64-10.86,14.67-16.24,4.23-7.51,4.98-15.34,2.2-22.65-3.27-8.6-10.23-13.67-19.6-14.27-.63-.04-1.29-.06-1.95-.06-5.86,0-12.72,1.63-20.96,4.98-8.05,3.27-16.21,7.71-22.42,11.21-5.7,3.21-10.71,6.12-16.02,9.2l-.43.25c-13.99-10.77-30.66-19.08-47.47-23.6-11.22-3.01-24.51-4.67-37.41-4.67h0Z"/>
      </g>
      <path d="M3377.22,153.99c-4.53-.29-10.38,1.05-17.87,4.1-7.45,3.03-15.2,7.25-21.12,10.58-5.63,3.18-10.62,6.07-15.9,9.13l-1.4.81c8.59,8.44,15.27,18.27,21.78,28.49,1.48-.92,3.29-2.02,5.28-3.23,2.73-1.67,5.76-3.52,8.59-5.28,4.94-3.07,11.33-7.18,16.92-11.71,5.7-4.62,9.6-8.86,11.9-12.96,2.58-4.58,3.06-8.83,1.48-12.99-1.68-4.42-4.75-6.63-9.65-6.94Z"/>
      <path d="M3077.92,207.83c-1.01,6.26.09,11.04,3.37,14.6,9.62,10.46,36.25,8.42,53.87,7.07,1.47-.11,2.89-.22,4.24-.32.09-9.16.84-20.65,4.69-32.62-8.45-1.27-21.41-3.06-33.64-3.06-15.97,0-30.71,3.06-32.53,14.33Z"/>
      <ellipse class="st18" cx="3287.93" cy="347.43" rx="21.39" ry="11.66" transform="translate(-18.03 390.33) rotate(-6.78)"/>
      <path class="st1" d="M3310.23,235.7c6.95,0,12.59,7.04,12.59,15.73s-5.63,15.73-12.59,15.73-12.59-7.04-12.59-15.73c0-8.69,5.63-15.73,12.59-15.73Z"/>
      <path class="st2" d="M3266.18,344.26c6.08-6.1,18.27-8.63,26.55-9.17,4.77-.3,10.19.15,13.99,3.38,3.23,2.76,5.28,8.03,3.55,12.13-3.55,8.37-17.51,9.09-25.08,9.24-4.66.09-9.48-.13-14.02-1.23-6.18-1.5-7.54-9.25-4.99-14.34Z"/>
      <path class="st2" d="M3227.92,169.04c6.71-3.06,17.58-2.4,24.54-.33,12.95,3.87,8.79,73.19,7.53,73.59-9.23-11.64-47.04-58.53-47.04-58.53.48-6.44,9.78-12.36,14.98-14.72Z"/>
      <path class="st1" d="M3207.97,248.29c6.95,0,12.59,7.04,12.59,15.74s-5.63,15.74-12.59,15.74-12.59-7.04-12.59-15.74,5.64-15.74,12.59-15.74Z"/>
      <path class="st19" d="M3227.92,169.04c6.7-3.06,17.58-2.4,24.53-.33,12.95,3.87,8.79,73.19,7.53,73.59-9.23-11.64-47.04-58.53-47.04-58.53.48-6.44,9.78-12.36,14.98-14.72Z"/>
      <circle class="st1" cx="3207.97" cy="264.02" r="7.87"/>
      <circle class="st1" cx="3310.22" cy="251.43" r="7.83"/>
      <ellipse class="st0" cx="3287.93" cy="347.42" rx="22.52" ry="12.28" transform="translate(-18.03 390.33) rotate(-6.78)"/>
    </g>
  </g>
  <g id="Layer_1_copy_3" class="st16">
    <g>
      <circle class="st1" cx="1178.13" cy="259.91" r="202.05"/>
      <circle class="st1" cx="1178.13" cy="259.91" r="181.97"/>
    </g>
    <path class="st3" d="M1178.13,585.82c-87.06,0-168.9-33.9-230.46-95.46-61.56-61.56-95.46-143.4-95.46-230.46s33.9-168.9,95.46-230.46c61.56-61.56,143.4-95.46,230.46-95.46s168.9,33.9,230.46,95.46c61.56,61.56,95.46,143.4,95.46,230.46s-33.9,168.9-95.46,230.46c-61.56,61.56-143.4,95.46-230.46,95.46Z"/>
    <circle class="st19" cx="1178.13" cy="259.91" r="305.44"/>
    <g>
      <g>
        <polygon class="st3" points="979.21 461.95 1031.22 167.04 1005.84 167.04 1020.74 82.54 1112.43 57.86 1183.5 57.86 1112.25 461.95 979.21 461.95"/>
        <path class="st14" d="M1095.72,441.88h-92.89l52-294.92h-25.38l8.68-49.24,73.54-19.8h48.22l-64.17,363.95Z"/>
      </g>
      <g>
        <polygon class="st3" points="1172.75 461.95 1224.75 167.04 1199.37 167.04 1214.27 82.54 1305.96 57.86 1377.04 57.86 1305.78 461.95 1172.75 461.95"/>
        <path class="st14" d="M1289.25,441.88h-92.89l52-294.92h-25.38l8.68-49.24,73.54-19.8h48.22l-64.17,363.95Z"/>
      </g>
    </g>
    <g>
      <path class="st2" d="M-1011.01,28.3c-3.3-8.66-9.79-13.37-19.29-13.97-7.45-.48-16.71,1.59-28.31,6.31-10.98,4.46-22.27,10.61-30.89,15.46-8.08,4.56-15.22,8.7-22.78,13.08l-6.53,3.78c-20.75-17.3-45.61-29.72-69.5-36.14-31.86-8.55-79.35-9.73-108.5,4.59-19.71,9.68-51.11,30.52-61.53,54.48l-.71-.11c-19.69-3-42.51-5.9-62.53-4.66-26,1.61-40.43,10.16-42.9,25.42-1.75,10.83.4,19.62,6.4,26.14,10.12,11.01,29.46,13.77,49.4,13.77,11.21,0,22.62-.87,32.69-1.64,3.15-.24,6.13-.47,8.88-.65,2.64,37.84,24.7,81.96,66.84,133.8,15.33,18.82,43.37,44.9,76.14,61.56,37.27,18.96,69.72,19.86,93.83,2.63,48.65-34.75,62.26-132.93,59.53-190.47-.64-13.55-3.86-26.19-8.91-37.91l.4-.25c2.38-1.5,5.97-3.7,10.13-6.24,3.92-2.39,8.25-5.04,12.31-7.56,7.21-4.48,16.55-10.49,24.81-17.18,8.78-7.11,14.84-13.76,18.53-20.33,4.6-8.17,5.44-16.21,2.51-23.89Z"/>
      <path class="st1" d="M-1239.16,10.49c18.05,0,36.12,2.38,50.84,6.33,23.89,6.42,48.75,18.85,69.5,36.14l6.53-3.78c7.56-4.38,14.7-8.52,22.78-13.08,8.62-4.86,19.91-11,30.89-15.46,10.52-4.28,19.11-6.37,26.17-6.37.73,0,1.44.02,2.14.07,9.5.61,15.99,5.31,19.29,13.97,2.93,7.68,2.09,15.72-2.51,23.89-3.69,6.57-9.76,13.22-18.53,20.33-8.26,6.69-17.6,12.69-24.81,17.18-4.06,2.52-8.39,5.17-12.31,7.56-4.16,2.54-7.75,4.74-10.13,6.24l-.4.25c5.05,11.73,8.28,24.36,8.91,37.91,2.73,57.55-10.88,155.73-59.53,190.47-11.47,8.2-24.82,12.29-39.68,12.29-16.38,0-34.6-4.98-54.14-14.92-32.77-16.66-60.81-42.74-76.14-61.56-42.13-51.84-64.19-95.97-66.84-133.8-2.76.18-5.74.41-8.88.65-10.07.77-21.47,1.64-32.69,1.64-19.94,0-39.27-2.76-49.4-13.77-5.99-6.52-8.15-15.31-6.4-26.14,2.47-15.26,16.9-23.81,42.9-25.42,3.26-.2,6.6-.3,9.99-.3,17.39,0,36.07,2.44,52.55,4.96l.71.11c10.42-23.95,41.82-44.8,61.53-54.48,15.68-7.7,36.66-10.92,57.66-10.92M-1239.16.48v10s0-10,0-10c-17.22,0-41.97,2.07-62.07,11.94-7.96,3.91-45.96,23.68-62.75,52.5-14.92-2.16-31.63-4.11-47.63-4.11-3.68,0-7.25.11-10.61.31-38.97,2.42-49.87,19.72-52.15,33.81-2.82,17.45,3.29,28.39,8.91,34.5,10.67,11.6,28.7,17,56.76,17,11.32,0,22.64-.85,32.69-1.61,5.56,37.64,27.88,80.11,67.96,129.43,16.01,19.66,45.26,46.83,79.37,64.17,20.87,10.62,40.61,16.01,58.68,16.01,17.05,0,32.36-4.76,45.5-14.16,12.73-9.09,23.9-22.45,33.2-39.72,7.98-14.82,14.62-32.54,19.71-52.65,8.36-33,12.4-72.89,10.79-106.72-.53-11.23-2.73-22.4-6.56-33.31,1.07-.66,2.21-1.35,3.39-2.07,3.91-2.39,8.3-5.07,12.39-7.61,7.46-4.64,17.14-10.86,25.83-17.9,9.78-7.92,16.63-15.51,20.96-23.2,6.04-10.73,7.12-21.92,3.14-32.36-4.67-12.29-14.62-19.53-28-20.39-.9-.06-1.84-.09-2.78-.09-8.38,0-18.17,2.33-29.94,7.11-11.5,4.68-23.16,11.02-32.03,16.02-8.14,4.59-15.3,8.74-22.89,13.14l-.61.35c-19.98-15.39-43.81-27.26-67.82-33.72-16.03-4.3-35.01-6.67-53.44-6.67h0Z"/>
    </g>
    <path d="M-1030.7,20.63c-6.48-.41-14.83,1.5-25.53,5.85-10.65,4.33-21.72,10.35-30.17,15.12-8.05,4.54-15.17,8.67-22.72,13.04l-2,1.16c12.27,12.06,21.81,26.11,31.11,40.7,2.12-1.31,4.7-2.89,7.54-4.62,3.9-2.38,8.22-5.02,12.27-7.54,7.06-4.39,16.18-10.25,24.17-16.72,8.15-6.6,13.71-12.66,17.01-18.52,3.69-6.55,4.38-12.62,2.11-18.55-2.4-6.32-6.79-9.47-13.79-9.92Z"/>
    <path d="M-1458.26,97.54c-1.44,8.94.13,15.77,4.81,20.86,13.74,14.94,51.78,12.03,76.96,10.1,2.1-.16,4.12-.32,6.06-.46.12-13.08,1.2-29.5,6.7-46.6-12.08-1.81-30.59-4.37-48.06-4.37-22.82,0-43.86,4.37-46.47,20.47Z"/>
    <ellipse class="st18" cx="-1158.25" cy="296.97" rx="30.56" ry="16.66" transform="translate(-43.12 -134.57) rotate(-6.78)"/>
    <path class="st1" d="M-1126.4,137.36c9.93,0,17.99,10.06,17.99,22.47s-8.05,22.47-17.99,22.47-17.98-10.06-17.98-22.47c0-12.41,8.05-22.47,17.98-22.47Z"/>
    <path class="st2" d="M-1189.33,292.44c8.68-8.72,26.1-12.33,37.93-13.11,6.81-.44,14.56.21,19.98,4.83,4.61,3.95,7.54,11.47,5.08,17.33-5.07,11.96-25.02,12.99-35.83,13.2-6.66.13-13.54-.18-20.03-1.76-8.83-2.15-10.77-13.22-7.13-20.49Z"/>
    <path class="st2" d="M-1243.98,42.13c9.58-4.37,25.12-3.43,35.05-.47,18.5,5.52,12.56,104.56,10.75,105.13-13.19-16.62-67.21-83.62-67.21-83.62.69-9.2,13.97-17.65,21.4-21.03Z"/>
    <path class="st1" d="M-1272.48,155.34c9.93,0,17.98,10.06,17.98,22.48s-8.04,22.48-17.98,22.48-17.99-10.06-17.99-22.48,8.06-22.48,17.99-22.48Z"/>
    <path class="st19" d="M-1243.98,42.13c9.58-4.37,25.11-3.43,35.05-.47,18.5,5.52,12.56,104.56,10.75,105.13-13.18-16.62-67.2-83.62-67.2-83.62.69-9.2,13.97-17.65,21.4-21.03Z"/>
    <circle class="st1" cx="-1272.49" cy="177.82" r="11.24"/>
    <circle class="st1" cx="-1126.4" cy="159.84" r="11.18"/>
    <ellipse class="st0" cx="-1158.26" cy="296.96" rx="32.17" ry="17.54" transform="translate(-43.12 -134.57) rotate(-6.78)"/>
    <path class="st5" d="M-1025.75,170.88h262.83c61.89,0,78.6,29.85,78.6,72.37v20.04c0,33.63-14.92,68.79-61.46,68.79h-224.46v124.72"/>
    <polyline class="st12" points="340.79 456.8 340.79 172.65 389.33 172.65 417.17 172.65 537.86 395.79 547.11 412.87 565.59 412.87 574.83 395.79 695.52 172.65 771.89 172.65 771.89 456.8"/>
    <path class="st8" d="M-400.98,420.48h-17.08s-39.7,0-39.7,0c-1.03,0-7.51,0-8.47-.02-44.54-.44-86.54-7.51-101.05-60.31-3.27-8.16-5.21-35.17-5.21-47.42v-58.42c0-77.28,47.77-90.12,102.77-90.69,2.47-.06,7.61-.06,9.44-.06h45.22s14.08,0,14.08,0h14.08s45.22,0,45.22,0c1.83,0,6.97,0,9.44.06,55,.57,102.77,13.41,102.77,90.69v58.42c0,12.25-1.93,39.27-5.21,47.42-14.51,52.8-56.52,59.87-101.05,60.31-.97.01-7.44.02-8.47.02h-56.78Z"/>
    <path class="st6" d="M-174.46,420.73H85.45c76.15,0,101.53-8.24,101.53-64.14,0-61.02-23.6-66.58-164.11-66.35-127.36.22-141.84-9.14-141.84-62.8,0-37.86,10.24-64.13,83.73-64.13h301.26"/>
    <g>
      <circle class="st1" cx="3232.67" cy="263.77" r="202.05"/>
      <circle class="st1" cx="3232.67" cy="263.77" r="181.97"/>
    </g>
    <path class="st3" d="M3232.67,589.68c-87.06,0-168.9-33.9-230.46-95.46-61.56-61.56-95.46-143.4-95.46-230.46s33.9-168.9,95.46-230.46c61.56-61.56,143.4-95.46,230.46-95.46s168.9,33.9,230.46,95.46c61.56,61.56,95.46,143.4,95.46,230.46s-33.9,168.9-95.46,230.46c-61.56,61.56-143.4,95.46-230.46,95.46Z"/>
    <circle class="st19" cx="3232.67" cy="263.77" r="305.44"/>
    <g>
      <path class="st3" d="M3411.97,466.04l71-404.04h175.36c22.26,0,41.69,3.93,57.74,11.69,16.11,7.79,29.39,18.33,39.5,31.33,9.74,12.54,16.88,26.57,21.24,41.7,4.15,14.43,6.25,29.1,6.25,43.61,0,19.76-3.66,38.73-10.89,56.39-7.27,17.77-17.91,33.64-31.64,47.17-13.72,13.52-30.51,24.25-49.9,31.9-19.21,7.59-41,11.43-64.77,11.43h-68.36l-22.67,128.81h-122.86ZM3633.59,219.15c6.55,0,11.66-1.13,14.76-3.27,3.73-2.57,6.29-5.36,7.82-8.53,1.72-3.57,2.62-6.78,2.62-9.28,0-5.24-.6-9.9-1.79-13.87-.57-1.91-1.27-2.68-1.94-3.2-.23-.12-1.95-.92-6.53-.92h-62.79l-7.08,39.07h54.93Z"/>
      <path class="st14" d="M3437.8,444.36l63.38-360.67h157.15c19.06,0,35.17,3.18,48.3,9.53,13.14,6.36,23.74,14.73,31.82,25.12,8.07,10.39,13.91,21.86,17.52,34.39,3.61,12.54,5.41,25.08,5.41,37.61,0,17-3.09,33.06-9.27,48.18-6.18,15.12-15.12,28.43-26.79,39.93-11.68,11.51-25.89,20.57-42.64,27.18-16.75,6.61-35.68,9.92-56.81,9.92h-86.56l-22.67,128.81h-78.83ZM3552.7,240.84h80.89c11.16,0,20.18-2.36,27.05-7.08,6.87-4.72,11.89-10.39,15.07-17,3.18-6.61,4.77-12.84,4.77-18.68,0-7.38-.9-14.08-2.7-20.09-1.8-6.01-5.02-10.78-9.66-14.3-4.64-3.52-11.17-5.28-19.58-5.28h-80.89l-14.94,82.44Z"/>
      <path class="st3" d="M3970.16,466.04l-28.34-127.78h-33.47l-22.67,127.78h-122.83l71-404.04h165.05c22.56,0,43.01,2.85,60.78,8.48,18.53,5.88,34.59,14.73,47.72,26.3,13.42,11.84,23.69,26.47,30.52,43.48,6.59,16.44,9.93,35.1,9.93,55.48,0,10.79-1.43,22.73-4.25,35.47-2.94,13.27-8.07,26.51-15.25,39.38-7.45,13.35-17.77,25.58-30.67,36.35-8.58,7.16-18.63,13.27-30.03,18.26l32.75,140.83h-130.24ZM3994.26,220.7c12.71,0,17.84-2.61,19.45-3.73,3.74-2.59,6.12-5.27,7.27-8.19,1.7-4.31,2.61-8.2,2.61-11.22,0-3.89-.74-6.95-2.27-9.35-1.4-2.2-3.8-4.01-7.32-5.53-4.72-2.04-11.64-3.12-20-3.12h-58.22l-7.02,41.13h65.5Z"/>
      <path class="st14" d="M3788.67,444.36l63.38-360.67h146.85c20.44,0,38.51,2.49,54.23,7.47,15.71,4.98,29.02,12.28,39.93,21.9,10.9,9.62,19.15,21.38,24.73,35.29,5.58,13.91,8.37,29.72,8.37,47.4,0,9.27-1.25,19.54-3.74,30.79-2.49,11.25-6.83,22.41-13.01,33.49-6.18,11.08-14.73,21.17-25.63,30.27-10.91,9.11-24.78,16.15-41.61,21.12l30.91,132.93h-85.53l-28.34-127.78h-69.04l-22.67,127.78h-78.83ZM3903.06,242.38h91.2c13.91,0,24.51-2.53,31.82-7.6,7.3-5.06,12.32-11.08,15.07-18.03,2.75-6.96,4.12-13.35,4.12-19.19,0-8.07-1.89-15.07-5.67-21-3.78-5.93-9.45-10.52-17-13.78-7.56-3.26-17.09-4.89-28.6-4.89h-76.51l-14.43,84.5Z"/>
      <path class="st3" d="M4329.68,472.22c-29.39,0-55.07-5.41-76.33-16.09-21.35-10.72-38.9-25.45-52.15-43.77-12.77-17.64-22.2-37.84-28.01-60.03-5.6-21.36-8.44-43.62-8.44-66.17,0-24.66,2.81-48.55,8.36-71.02,5.6-22.69,13.92-43.87,24.73-62.94,11.01-19.43,24.74-36.51,40.81-50.75,16.23-14.38,34.97-25.7,55.7-33.65,20.78-7.96,43.76-12,68.3-12,26.86,0,50.83,5.25,71.25,15.61,20.34,10.33,37.43,24.58,50.8,42.38,12.94,17.23,22.7,36.9,28.99,58.48,6.13,21.05,9.24,43.24,9.24,65.97,0,25.85-2.9,50.66-8.62,73.74-5.78,23.32-14.29,44.87-25.29,64.05-11.14,19.43-24.81,36.51-40.6,50.78-16.05,14.5-34.27,25.8-54.15,33.59-19.97,7.83-41.7,11.8-64.59,11.8ZM4356.99,174.41c-7.99,0-15.1,1.61-21.74,4.93-7.2,3.6-13.54,8.54-19.39,15.11-6.24,7.01-11.64,15.29-16.05,24.61-4.59,9.71-8.18,20.4-10.65,31.78-2.49,11.48-3.76,23.37-3.76,35.33s1.8,23.71,5.35,35.22c3.12,10.12,7.95,18.18,14.79,24.64,5.4,5.11,13.13,7.6,23.61,7.6,7.99,0,15.21-1.49,22.08-4.56,7.13-3.18,13.48-7.71,19.41-13.83,6.24-6.44,11.76-14.43,16.41-23.73,4.83-9.66,8.6-20.68,11.21-32.75,2.67-12.35,4.02-25.98,4.02-40.5,0-11.17-1.84-22.34-5.46-33.2-3.17-9.51-8.07-17.08-14.99-23.15-5.75-5.04-13.88-7.5-24.86-7.5Z"/>
      <path class="st14" d="M4329.68,450.54c-26.11,0-48.3-4.6-66.6-13.78-18.29-9.19-33.06-21.55-44.31-37.1-11.25-15.54-19.45-33.14-24.6-52.81-5.15-19.66-7.73-39.89-7.73-60.67,0-23.01,2.58-44.96,7.73-65.82,5.15-20.87,12.66-40.02,22.54-57.45,9.87-17.43,21.98-32.5,36.33-45.21,14.34-12.71,30.7-22.58,49.08-29.63,18.38-7.04,38.55-10.56,60.54-10.56,23.53,0,44.01,4.42,61.44,13.27,17.43,8.85,31.86,20.87,43.28,36.07,11.42,15.2,19.92,32.38,25.51,51.52,5.58,19.15,8.37,39.12,8.37,59.9,0,24.22-2.66,47.06-7.99,68.53-5.33,21.47-13.01,40.96-23.06,58.48-10.05,17.52-22.16,32.68-36.33,45.47-14.17,12.8-30.01,22.63-47.53,29.5-17.52,6.87-36.41,10.3-56.68,10.3ZM4329.16,375.32c10.99,0,21.29-2.15,30.91-6.44,9.62-4.29,18.33-10.47,26.15-18.55,7.81-8.07,14.56-17.78,20.22-29.11,5.67-11.34,10-23.96,13.01-37.87,3-13.91,4.51-28.94,4.51-45.08,0-13.57-2.19-26.92-6.57-40.06-4.38-13.14-11.46-24-21.25-32.59-9.79-8.59-22.84-12.88-39.16-12.88-11.34,0-21.81,2.41-31.43,7.21-9.62,4.81-18.25,11.51-25.89,20.09-7.64,8.59-14.13,18.51-19.45,29.76-5.33,11.25-9.4,23.4-12.24,36.45-2.83,13.05-4.25,26.37-4.25,39.93s2.1,27.95,6.31,41.61c4.21,13.65,11.08,24.99,20.61,34.01,9.53,9.02,22.37,13.53,38.51,13.53Z"/>
    </g>
    <g>
      <path class="st3" d="M1360.1,466.04l71-404.04h175.36c22.26,0,41.69,3.93,57.74,11.69,16.11,7.79,29.39,18.33,39.5,31.33,9.74,12.54,16.88,26.57,21.24,41.7,4.15,14.43,6.25,29.1,6.25,43.61,0,19.76-3.66,38.73-10.89,56.39-7.27,17.77-17.91,33.64-31.64,47.17-13.72,13.52-30.51,24.25-49.9,31.9-19.21,7.59-41,11.43-64.77,11.43h-68.36l-22.67,128.81h-122.86ZM1581.72,219.15c6.55,0,11.66-1.13,14.76-3.27,3.73-2.57,6.29-5.36,7.82-8.53,1.72-3.57,2.62-6.78,2.62-9.28,0-5.24-.6-9.9-1.79-13.87-.57-1.91-1.27-2.68-1.94-3.2-.23-.12-1.95-.92-6.53-.92h-62.79l-7.08,39.07h54.93Z"/>
      <path class="st14" d="M1385.92,444.36l63.38-360.67h157.15c19.06,0,35.17,3.18,48.3,9.53,13.14,6.36,23.74,14.73,31.82,25.12,8.07,10.39,13.91,21.86,17.52,34.39,3.61,12.54,5.41,25.08,5.41,37.61,0,17-3.09,33.06-9.27,48.18-6.18,15.12-15.12,28.43-26.79,39.93-11.68,11.51-25.89,20.57-42.64,27.18-16.75,6.61-35.68,9.92-56.81,9.92h-86.56l-22.67,128.81h-78.83ZM1500.82,240.84h80.89c11.16,0,20.18-2.36,27.05-7.08,6.87-4.72,11.89-10.39,15.07-17,3.18-6.61,4.77-12.84,4.77-18.68,0-7.38-.9-14.08-2.7-20.09-1.8-6.01-5.02-10.78-9.66-14.3-4.64-3.52-11.17-5.28-19.58-5.28h-80.89l-14.94,82.44Z"/>
      <path class="st3" d="M1918.29,466.04l-28.34-127.78h-33.47l-22.67,127.78h-122.83l71-404.04h165.05c22.56,0,43.01,2.85,60.78,8.48,18.53,5.88,34.59,14.73,47.72,26.3,13.42,11.84,23.69,26.47,30.52,43.48,6.59,16.44,9.93,35.1,9.93,55.48,0,10.79-1.43,22.73-4.25,35.47-2.94,13.27-8.07,26.51-15.25,39.38-7.45,13.35-17.77,25.58-30.67,36.35-8.58,7.16-18.63,13.27-30.03,18.26l32.75,140.83h-130.24ZM1942.39,220.7c12.71,0,17.84-2.61,19.45-3.73,3.74-2.59,6.12-5.27,7.27-8.19,1.7-4.31,2.61-8.2,2.61-11.22,0-3.89-.74-6.95-2.27-9.35-1.4-2.2-3.8-4.01-7.32-5.53-4.72-2.04-11.64-3.12-20-3.12h-58.22l-7.02,41.13h65.5Z"/>
      <path class="st14" d="M1736.8,444.36l63.38-360.67h146.85c20.44,0,38.51,2.49,54.23,7.47,15.71,4.98,29.02,12.28,39.93,21.9,10.9,9.62,19.15,21.38,24.73,35.29,5.58,13.91,8.37,29.72,8.37,47.4,0,9.27-1.25,19.54-3.74,30.79-2.49,11.25-6.83,22.41-13.01,33.49-6.18,11.08-14.73,21.17-25.63,30.27-10.91,9.11-24.78,16.15-41.61,21.12l30.91,132.93h-85.53l-28.34-127.78h-69.04l-22.67,127.78h-78.83ZM1851.19,242.38h91.2c13.91,0,24.51-2.53,31.82-7.6,7.3-5.06,12.32-11.08,15.07-18.03,2.75-6.96,4.12-13.35,4.12-19.19,0-8.07-1.89-15.07-5.67-21-3.78-5.93-9.45-10.52-17-13.78-7.56-3.26-17.09-4.89-28.6-4.89h-76.51l-14.43,84.5Z"/>
      <path class="st3" d="M2277.81,472.22c-29.39,0-55.07-5.41-76.33-16.09-21.35-10.72-38.9-25.45-52.15-43.77-12.77-17.64-22.2-37.84-28.01-60.03-5.6-21.36-8.44-43.62-8.44-66.17,0-24.66,2.81-48.55,8.36-71.02,5.6-22.69,13.92-43.87,24.73-62.94,11.01-19.43,24.74-36.51,40.81-50.75,16.23-14.38,34.97-25.7,55.7-33.65,20.78-7.96,43.76-12,68.3-12,26.86,0,50.83,5.25,71.25,15.61,20.34,10.33,37.43,24.58,50.8,42.38,12.94,17.23,22.7,36.9,28.99,58.48,6.13,21.05,9.24,43.24,9.24,65.97,0,25.85-2.9,50.66-8.62,73.74-5.78,23.32-14.29,44.87-25.29,64.05-11.14,19.43-24.81,36.51-40.6,50.78-16.05,14.5-34.27,25.8-54.15,33.59-19.97,7.83-41.7,11.8-64.59,11.8ZM2305.12,174.41c-7.99,0-15.1,1.61-21.74,4.93-7.2,3.6-13.54,8.54-19.39,15.11-6.24,7.01-11.64,15.29-16.05,24.61-4.59,9.71-8.18,20.4-10.65,31.78-2.49,11.48-3.76,23.37-3.76,35.33s1.8,23.71,5.35,35.22c3.12,10.12,7.95,18.18,14.79,24.64,5.4,5.11,13.13,7.6,23.61,7.6,7.99,0,15.21-1.49,22.08-4.56,7.13-3.18,13.48-7.71,19.41-13.83,6.24-6.44,11.76-14.43,16.41-23.73,4.83-9.66,8.6-20.68,11.21-32.75,2.67-12.35,4.02-25.98,4.02-40.5,0-11.17-1.84-22.34-5.46-33.2-3.17-9.51-8.07-17.08-14.99-23.15-5.75-5.04-13.88-7.5-24.86-7.5Z"/>
      <path class="st14" d="M2277.81,450.54c-26.11,0-48.3-4.6-66.6-13.78-18.29-9.19-33.06-21.55-44.31-37.1-11.25-15.54-19.45-33.14-24.6-52.81-5.15-19.66-7.73-39.89-7.73-60.67,0-23.01,2.58-44.96,7.73-65.82,5.15-20.87,12.66-40.02,22.54-57.45,9.87-17.43,21.98-32.5,36.33-45.21,14.34-12.71,30.7-22.58,49.08-29.63,18.38-7.04,38.55-10.56,60.54-10.56,23.53,0,44.01,4.42,61.44,13.27,17.43,8.85,31.86,20.87,43.28,36.07,11.42,15.2,19.92,32.38,25.51,51.52,5.58,19.15,8.37,39.12,8.37,59.9,0,24.22-2.66,47.06-7.99,68.53-5.33,21.47-13.01,40.96-23.06,58.48-10.05,17.52-22.16,32.68-36.33,45.47-14.17,12.8-30.01,22.63-47.53,29.5-17.52,6.87-36.41,10.3-56.68,10.3ZM2277.29,375.32c10.99,0,21.29-2.15,30.91-6.44,9.62-4.29,18.33-10.47,26.15-18.55,7.81-8.07,14.56-17.78,20.22-29.11,5.67-11.34,10-23.96,13.01-37.87,3-13.91,4.51-28.94,4.51-45.08,0-13.57-2.19-26.92-6.57-40.06-4.38-13.14-11.46-24-21.25-32.59-9.79-8.59-22.84-12.88-39.16-12.88-11.34,0-21.81,2.41-31.43,7.21-9.62,4.81-18.25,11.51-25.89,20.09-7.64,8.59-14.13,18.51-19.45,29.76-5.33,11.25-9.4,23.4-12.24,36.45-2.83,13.05-4.25,26.37-4.25,39.93s2.1,27.95,6.31,41.61c4.21,13.65,11.08,24.99,20.61,34.01,9.53,9.02,22.37,13.53,38.51,13.53Z"/>
    </g>
    <g>
      <g>
        <polygon class="st3" points="3033.76 465.82 3085.76 170.9 3060.38 170.9 3075.28 86.4 3166.97 61.72 3238.05 61.72 3166.8 465.82 3033.76 465.82"/>
        <path class="st14" d="M3150.26,445.74h-92.89l52-294.92h-25.38l8.68-49.24,73.54-19.8h48.22l-64.17,363.95Z"/>
      </g>
      <g>
        <polygon class="st3" points="3227.29 465.82 3279.29 170.9 3253.91 170.9 3268.81 86.4 3360.5 61.72 3431.58 61.72 3360.33 465.82 3227.29 465.82"/>
        <path class="st14" d="M3343.79,445.74h-92.89l52-294.92h-25.38l8.68-49.24,73.54-19.8h48.22l-64.17,363.95Z"/>
      </g>
    </g>
    <g>
      <g>
        <path class="st2" d="M3391,159.36c-2.31-6.07-6.85-9.36-13.5-9.78-5.21-.33-11.7,1.11-19.82,4.41-7.68,3.12-15.59,7.43-21.62,10.82-5.66,3.19-10.66,6.09-15.95,9.16l-4.57,2.65c-14.53-12.11-31.93-20.8-48.65-25.3-22.3-5.98-55.55-6.81-75.95,3.21-13.8,6.77-35.78,21.37-43.07,38.13l-.5-.08c-13.78-2.1-29.76-4.13-43.77-3.26-18.2,1.13-28.3,7.11-30.03,17.79-1.22,7.58.28,13.73,4.48,18.3,7.09,7.71,20.62,9.64,34.58,9.64,7.85,0,15.84-.61,22.88-1.15,2.2-.17,4.29-.33,6.22-.46,1.85,26.49,17.29,57.37,46.79,93.66,10.73,13.17,30.36,31.43,53.3,43.09,26.09,13.27,48.81,13.9,65.68,1.84,34.06-24.32,43.58-93.05,41.67-133.33-.44-9.48-2.7-18.33-6.24-26.54l.28-.18c1.66-1.05,4.18-2.59,7.09-4.37,2.74-1.68,5.77-3.53,8.62-5.29,5.05-3.14,11.59-7.34,17.37-12.02,6.14-4.98,10.39-9.63,12.97-14.23,3.22-5.72,3.81-11.35,1.76-16.73Z"/>
        <path class="st1" d="M3231.29,146.89c12.63,0,25.28,1.66,35.59,4.43,16.72,4.5,34.13,13.19,48.65,25.3l4.57-2.65c5.29-3.07,10.29-5.97,15.95-9.16,6.03-3.4,13.94-7.7,21.62-10.82,7.36-2.99,13.38-4.46,18.32-4.46.51,0,1.01.02,1.5.05,6.65.42,11.2,3.72,13.5,9.78,2.05,5.38,1.46,11.01-1.76,16.73-2.59,4.6-6.83,9.25-12.97,14.23-5.78,4.68-12.32,8.89-17.37,12.02-2.84,1.77-5.88,3.62-8.62,5.29-2.91,1.78-5.43,3.31-7.09,4.37l-.28.18c3.54,8.21,5.79,17.05,6.24,26.54,1.91,40.28-7.61,109.01-41.67,133.33-8.03,5.74-17.37,8.61-27.78,8.61-11.47,0-24.22-3.48-37.9-10.44-22.94-11.66-42.57-29.92-53.3-43.09-29.49-36.29-44.94-67.18-46.79-93.66-1.93.13-4.02.29-6.22.46-7.05.54-15.03,1.15-22.88,1.15-13.96,0-27.49-1.93-34.58-9.64-4.2-4.56-5.7-10.72-4.48-18.3,1.73-10.68,11.83-16.67,30.03-17.79,2.28-.14,4.62-.21,6.99-.21,12.17,0,25.25,1.71,36.78,3.47l.5.08c7.3-16.77,29.28-31.36,43.07-38.13,10.98-5.39,25.66-7.64,40.36-7.64M3231.29,139.89v7s0-7,0-7c-12.06,0-29.38,1.45-43.45,8.36-5.57,2.74-32.17,16.58-43.93,36.75-10.44-1.51-22.14-2.88-33.34-2.88-2.57,0-5.07.07-7.42.22-27.28,1.69-34.91,13.8-36.5,23.66-1.97,12.21,2.3,19.87,6.24,24.15,7.47,8.12,20.09,11.9,39.73,11.9,7.92,0,15.85-.59,22.88-1.13,3.89,26.35,19.52,56.08,47.58,90.6,11.21,13.76,31.68,32.78,55.56,44.92,14.61,7.43,28.43,11.2,41.07,11.2,11.94,0,22.65-3.33,31.85-9.91,8.91-6.36,16.73-15.72,23.24-27.8,5.59-10.38,10.23-22.77,13.8-36.85,5.85-23.1,8.68-51.03,7.55-74.7-.37-7.86-1.91-15.68-4.59-23.32.75-.46,1.54-.94,2.37-1.45,2.74-1.67,5.81-3.55,8.67-5.33,5.22-3.25,12-7.6,18.08-12.53,6.84-5.55,11.64-10.86,14.67-16.24,4.23-7.51,4.98-15.34,2.2-22.65-3.27-8.6-10.23-13.67-19.6-14.27-.63-.04-1.29-.06-1.95-.06-5.86,0-12.72,1.63-20.96,4.98-8.05,3.27-16.21,7.71-22.42,11.21-5.7,3.21-10.71,6.12-16.02,9.2l-.43.25c-13.99-10.77-30.66-19.08-47.47-23.6-11.22-3.01-24.51-4.67-37.41-4.67h0Z"/>
      </g>
      <path d="M3377.22,153.99c-4.53-.29-10.38,1.05-17.87,4.1-7.45,3.03-15.2,7.25-21.12,10.58-5.63,3.18-10.62,6.07-15.9,9.13l-1.4.81c8.59,8.44,15.27,18.27,21.78,28.49,1.48-.92,3.29-2.02,5.28-3.23,2.73-1.67,5.76-3.52,8.59-5.28,4.94-3.07,11.33-7.18,16.92-11.71,5.7-4.62,9.6-8.86,11.9-12.96,2.58-4.58,3.06-8.83,1.48-12.99-1.68-4.42-4.75-6.63-9.65-6.94Z"/>
      <path d="M3077.92,207.83c-1.01,6.26.09,11.04,3.37,14.6,9.62,10.46,36.25,8.42,53.87,7.07,1.47-.11,2.89-.22,4.24-.32.09-9.16.84-20.65,4.69-32.62-8.45-1.27-21.41-3.06-33.64-3.06-15.97,0-30.71,3.06-32.53,14.33Z"/>
      <ellipse class="st18" cx="3287.93" cy="347.43" rx="21.39" ry="11.66" transform="translate(-18.03 390.33) rotate(-6.78)"/>
      <path class="st1" d="M3310.23,235.7c6.95,0,12.59,7.04,12.59,15.73s-5.63,15.73-12.59,15.73-12.59-7.04-12.59-15.73c0-8.69,5.63-15.73,12.59-15.73Z"/>
      <path class="st2" d="M3266.18,344.26c6.08-6.1,18.27-8.63,26.55-9.17,4.77-.3,10.19.15,13.99,3.38,3.23,2.76,5.28,8.03,3.55,12.13-3.55,8.37-17.51,9.09-25.08,9.24-4.66.09-9.48-.13-14.02-1.23-6.18-1.5-7.54-9.25-4.99-14.34Z"/>
      <path class="st2" d="M3227.92,169.04c6.71-3.06,17.58-2.4,24.54-.33,12.95,3.87,8.79,73.19,7.53,73.59-9.23-11.64-47.04-58.53-47.04-58.53.48-6.44,9.78-12.36,14.98-14.72Z"/>
      <path class="st1" d="M3207.97,248.29c6.95,0,12.59,7.04,12.59,15.74s-5.63,15.74-12.59,15.74-12.59-7.04-12.59-15.74,5.64-15.74,12.59-15.74Z"/>
      <path class="st19" d="M3227.92,169.04c6.7-3.06,17.58-2.4,24.53-.33,12.95,3.87,8.79,73.19,7.53,73.59-9.23-11.64-47.04-58.53-47.04-58.53.48-6.44,9.78-12.36,14.98-14.72Z"/>
      <circle class="st1" cx="3207.97" cy="264.02" r="7.87"/>
      <circle class="st1" cx="3310.22" cy="251.43" r="7.83"/>
      <ellipse class="st0" cx="3287.93" cy="347.42" rx="22.52" ry="12.28" transform="translate(-18.03 390.33) rotate(-6.78)"/>
    </g>
  </g>
  <g id="Layer_1_copy_4" class="st16">
    <g>
      <circle class="st1" cx="1178.13" cy="259.91" r="202.05"/>
      <circle class="st1" cx="1178.13" cy="259.91" r="181.97"/>
    </g>
    <path class="st3" d="M1178.13,585.82c-87.06,0-168.9-33.9-230.46-95.46-61.56-61.56-95.46-143.4-95.46-230.46s33.9-168.9,95.46-230.46c61.56-61.56,143.4-95.46,230.46-95.46s168.9,33.9,230.46,95.46c61.56,61.56,95.46,143.4,95.46,230.46s-33.9,168.9-95.46,230.46c-61.56,61.56-143.4,95.46-230.46,95.46Z"/>
    <circle class="st19" cx="1178.13" cy="259.91" r="305.44"/>
    <g>
      <g>
        <polygon class="st3" points="979.21 461.95 1031.22 167.04 1005.84 167.04 1020.74 82.54 1112.43 57.86 1183.5 57.86 1112.25 461.95 979.21 461.95"/>
        <path class="st14" d="M1095.72,441.88h-92.89l52-294.92h-25.38l8.68-49.24,73.54-19.8h48.22l-64.17,363.95Z"/>
      </g>
      <g>
        <polygon class="st3" points="1172.75 461.95 1224.75 167.04 1199.37 167.04 1214.27 82.54 1305.96 57.86 1377.04 57.86 1305.78 461.95 1172.75 461.95"/>
        <path class="st14" d="M1289.25,441.88h-92.89l52-294.92h-25.38l8.68-49.24,73.54-19.8h48.22l-64.17,363.95Z"/>
      </g>
    </g>
    <g>
      <g>
        <path class="st2" d="M-1011.01,28.3c-3.3-8.66-9.79-13.37-19.29-13.97-7.45-.48-16.71,1.59-28.31,6.31-10.98,4.46-22.27,10.61-30.89,15.46-8.08,4.56-15.22,8.7-22.78,13.08l-6.53,3.78c-20.75-17.3-45.61-29.72-69.5-36.14-31.86-8.55-79.35-9.73-108.5,4.59-19.71,9.68-51.11,30.52-61.53,54.48l-.71-.11c-19.69-3-42.51-5.9-62.53-4.66-26,1.61-40.43,10.16-42.9,25.42-1.75,10.83.4,19.62,6.4,26.14,10.12,11.01,29.46,13.77,49.4,13.77,11.21,0,22.62-.87,32.69-1.64,3.15-.24,6.13-.47,8.88-.65,2.64,37.84,24.7,81.96,66.84,133.8,15.33,18.82,43.37,44.9,76.14,61.56,37.27,18.96,69.72,19.86,93.83,2.63,48.65-34.75,62.26-132.93,59.53-190.47-.64-13.55-3.86-26.19-8.91-37.91l.4-.25c2.38-1.5,5.97-3.7,10.13-6.24,3.92-2.39,8.25-5.04,12.31-7.56,7.21-4.48,16.55-10.49,24.81-17.18,8.78-7.11,14.84-13.76,18.53-20.33,4.6-8.17,5.44-16.21,2.51-23.89Z"/>
        <path class="st1" d="M-1239.16,10.49c18.05,0,36.12,2.38,50.84,6.33,23.89,6.42,48.75,18.85,69.5,36.14l6.53-3.78c7.56-4.38,14.7-8.52,22.78-13.08,8.62-4.86,19.91-11,30.89-15.46,10.52-4.28,19.11-6.37,26.17-6.37.73,0,1.44.02,2.14.07,9.5.61,15.99,5.31,19.29,13.97,2.93,7.68,2.09,15.72-2.51,23.89-3.69,6.57-9.76,13.22-18.53,20.33-8.26,6.69-17.6,12.69-24.81,17.18-4.06,2.52-8.39,5.17-12.31,7.56-4.16,2.54-7.75,4.74-10.13,6.24l-.4.25c5.05,11.73,8.28,24.36,8.91,37.91,2.73,57.55-10.88,155.73-59.53,190.47-11.47,8.2-24.82,12.29-39.68,12.29-16.38,0-34.6-4.98-54.14-14.92-32.77-16.66-60.81-42.74-76.14-61.56-42.13-51.84-64.19-95.97-66.84-133.8-2.76.18-5.74.41-8.88.65-10.07.77-21.47,1.64-32.69,1.64-19.94,0-39.27-2.76-49.4-13.77-5.99-6.52-8.15-15.31-6.4-26.14,2.47-15.26,16.9-23.81,42.9-25.42,3.26-.2,6.6-.3,9.99-.3,17.39,0,36.07,2.44,52.55,4.96l.71.11c10.42-23.95,41.82-44.8,61.53-54.48,15.68-7.7,36.66-10.92,57.66-10.92M-1239.16.48v10s0-10,0-10c-17.22,0-41.97,2.07-62.07,11.94-7.96,3.91-45.96,23.68-62.75,52.5-14.92-2.16-31.63-4.11-47.63-4.11-3.68,0-7.25.11-10.61.31-38.97,2.42-49.87,19.72-52.15,33.81-2.82,17.45,3.29,28.39,8.91,34.5,10.67,11.6,28.7,17,56.76,17,11.32,0,22.64-.85,32.69-1.61,5.56,37.64,27.88,80.11,67.96,129.43,16.01,19.66,45.26,46.83,79.37,64.17,20.87,10.62,40.61,16.01,58.68,16.01,17.05,0,32.36-4.76,45.5-14.16,12.73-9.09,23.9-22.45,33.2-39.72,7.98-14.82,14.62-32.54,19.71-52.65,8.36-33,12.4-72.89,10.79-106.72-.53-11.23-2.73-22.4-6.56-33.31,1.07-.66,2.21-1.35,3.39-2.07,3.91-2.39,8.3-5.07,12.39-7.61,7.46-4.64,17.14-10.86,25.83-17.9,9.78-7.92,16.63-15.51,20.96-23.2,6.04-10.73,7.12-21.92,3.14-32.36-4.67-12.29-14.62-19.53-28-20.39-.9-.06-1.84-.09-2.78-.09-8.38,0-18.17,2.33-29.94,7.11-11.5,4.68-23.16,11.02-32.03,16.02-8.14,4.59-15.3,8.74-22.89,13.14l-.61.35c-19.98-15.39-43.81-27.26-67.82-33.72-16.03-4.3-35.01-6.67-53.44-6.67h0Z"/>
      </g>
      <path d="M-1030.7,20.63c-6.48-.41-14.83,1.5-25.53,5.85-10.65,4.33-21.72,10.35-30.17,15.12-8.05,4.54-15.17,8.67-22.72,13.04l-2,1.16c12.27,12.06,21.81,26.11,31.11,40.7,2.12-1.31,4.7-2.89,7.54-4.62,3.9-2.38,8.22-5.02,12.27-7.54,7.06-4.39,16.18-10.25,24.17-16.72,8.15-6.6,13.71-12.66,17.01-18.52,3.69-6.55,4.38-12.62,2.11-18.55-2.4-6.32-6.79-9.47-13.79-9.92Z"/>
      <path d="M-1458.26,97.54c-1.44,8.94.13,15.77,4.81,20.86,13.74,14.94,51.78,12.03,76.96,10.1,2.1-.16,4.12-.32,6.06-.46.12-13.08,1.2-29.5,6.7-46.6-12.08-1.81-30.59-4.37-48.06-4.37-22.82,0-43.86,4.37-46.47,20.47Z"/>
      <ellipse class="st18" cx="-1158.25" cy="296.97" rx="30.56" ry="16.66" transform="translate(-43.12 -134.57) rotate(-6.78)"/>
      <path class="st1" d="M-1126.4,137.36c9.93,0,17.99,10.06,17.99,22.47s-8.05,22.47-17.99,22.47-17.98-10.06-17.98-22.47c0-12.41,8.05-22.47,17.98-22.47Z"/>
      <path class="st2" d="M-1189.33,292.44c8.68-8.72,26.1-12.33,37.93-13.11,6.81-.44,14.56.21,19.98,4.83,4.61,3.95,7.54,11.47,5.08,17.33-5.07,11.96-25.02,12.99-35.83,13.2-6.66.13-13.54-.18-20.03-1.76-8.83-2.15-10.77-13.22-7.13-20.49Z"/>
      <path class="st2" d="M-1243.98,42.13c9.58-4.37,25.12-3.43,35.05-.47,18.5,5.52,12.56,104.56,10.75,105.13-13.19-16.62-67.21-83.62-67.21-83.62.69-9.2,13.97-17.65,21.4-21.03Z"/>
      <path class="st1" d="M-1272.48,155.34c9.93,0,17.98,10.06,17.98,22.48s-8.04,22.48-17.98,22.48-17.99-10.06-17.99-22.48,8.06-22.48,17.99-22.48Z"/>
      <path class="st19" d="M-1243.98,42.13c9.58-4.37,25.11-3.43,35.05-.47,18.5,5.52,12.56,104.56,10.75,105.13-13.18-16.62-67.2-83.62-67.2-83.62.69-9.2,13.97-17.65,21.4-21.03Z"/>
      <circle class="st1" cx="-1272.49" cy="177.82" r="11.24"/>
      <circle class="st1" cx="-1126.4" cy="159.84" r="11.18"/>
      <ellipse class="st0" cx="-1158.26" cy="296.96" rx="32.17" ry="17.54" transform="translate(-43.12 -134.57) rotate(-6.78)"/>
    </g>
    <path class="st5" d="M-1025.75,170.88h262.83c61.89,0,78.6,29.85,78.6,72.37v20.04c0,33.63-14.92,68.79-61.46,68.79h-224.46v124.72"/>
    <polyline class="st12" points="340.79 456.8 340.79 172.65 389.33 172.65 417.17 172.65 537.86 395.79 547.11 412.87 565.59 412.87 574.83 395.79 695.52 172.65 771.89 172.65 771.89 456.8"/>
    <path class="st8" d="M-400.98,420.48h-17.08s-39.7,0-39.7,0c-1.03,0-7.51,0-8.47-.02-44.54-.44-86.54-7.51-101.05-60.31-3.27-8.16-5.21-35.17-5.21-47.42v-58.42c0-77.28,47.77-90.12,102.77-90.69,2.47-.06,7.61-.06,9.44-.06h45.22s14.08,0,14.08,0h14.08s45.22,0,45.22,0c1.83,0,6.97,0,9.44.06,55,.57,102.77,13.41,102.77,90.69v58.42c0,12.25-1.93,39.27-5.21,47.42-14.51,52.8-56.52,59.87-101.05,60.31-.97.01-7.44.02-8.47.02h-56.78Z"/>
    <path class="st6" d="M-174.46,420.73H85.45c76.15,0,101.53-8.24,101.53-64.14,0-61.02-23.6-66.58-164.11-66.35-127.36.22-141.84-9.14-141.84-62.8,0-37.86,10.24-64.13,83.73-64.13h301.26"/>
    <g>
      <circle class="st1" cx="3232.67" cy="263.77" r="202.05"/>
      <circle class="st1" cx="3232.67" cy="263.77" r="181.97"/>
    </g>
    <path class="st3" d="M3232.67,589.68c-87.06,0-168.9-33.9-230.46-95.46-61.56-61.56-95.46-143.4-95.46-230.46s33.9-168.9,95.46-230.46c61.56-61.56,143.4-95.46,230.46-95.46s168.9,33.9,230.46,95.46c61.56,61.56,95.46,143.4,95.46,230.46s-33.9,168.9-95.46,230.46c-61.56,61.56-143.4,95.46-230.46,95.46Z"/>
    <circle class="st19" cx="3232.67" cy="263.77" r="305.44"/>
    <g>
      <path class="st3" d="M1375.44,456.3l57.3-326.11h141.53c17.97,0,33.65,3.18,46.6,9.44,13,6.29,23.73,14.8,31.88,25.29,7.86,10.12,13.63,21.44,17.14,33.66,3.35,11.65,5.05,23.49,5.05,35.2,0,15.95-2.96,31.26-8.79,45.51-5.87,14.34-14.46,27.15-25.54,38.07-11.07,10.91-24.62,19.57-40.27,25.75-15.5,6.12-33.09,9.23-52.27,9.23h-55.18l-18.3,103.97h-99.16ZM1554.31,257.03c5.29,0,9.41-.91,11.92-2.64,3.01-2.07,5.08-4.32,6.31-6.89,1.39-2.88,2.12-5.47,2.12-7.49,0-4.23-.49-7.99-1.45-11.19-.46-1.54-1.02-2.16-1.56-2.59-.19-.1-1.58-.74-5.27-.74h-50.68l-5.72,31.54h44.33Z"/>
      <path class="st14" d="M1396.28,438.8l51.15-291.11h126.84c15.39,0,28.38,2.57,38.99,7.69,10.6,5.13,19.16,11.89,25.68,20.27,6.51,8.39,11.23,17.64,14.14,27.76,2.91,10.12,4.37,20.24,4.37,30.36,0,13.72-2.49,26.69-7.49,38.88-4.99,12.2-12.2,22.94-21.62,32.23-9.43,9.29-20.9,16.6-34.41,21.94-13.52,5.34-28.8,8.01-45.85,8.01h-69.87l-18.3,103.97h-63.63ZM1489.02,274.53h65.29c9.01,0,16.29-1.9,21.83-5.72,5.54-3.81,9.6-8.39,12.16-13.72,2.56-5.33,3.85-10.36,3.85-15.07,0-5.96-.73-11.36-2.18-16.22-1.46-4.85-4.06-8.7-7.8-11.54-3.74-2.84-9.01-4.26-15.8-4.26h-65.29l-12.06,66.54Z"/>
      <path class="st3" d="M1836.97,456.3l-22.87-103.14h-27.01l-18.3,103.14h-99.14l57.3-326.11h133.22c18.21,0,34.72,2.3,49.06,6.85,14.96,4.74,27.92,11.89,38.52,21.23,10.83,9.56,19.12,21.36,24.63,35.1,5.32,13.27,8.02,28.33,8.02,44.78,0,8.71-1.15,18.34-3.43,28.63-2.37,10.71-6.51,21.4-12.31,31.78-6.02,10.78-14.35,20.65-24.76,29.34-6.92,5.78-15.04,10.71-24.24,14.74l26.43,113.67h-105.12ZM1856.43,258.28c10.26,0,14.4-2.11,15.7-3.01,3.02-2.09,4.94-4.26,5.87-6.61,1.38-3.48,2.1-6.62,2.1-9.06,0-3.14-.6-5.61-1.83-7.54-1.13-1.77-3.06-3.23-5.91-4.46-3.81-1.64-9.4-2.52-16.14-2.52h-46.99l-5.67,33.2h52.87Z"/>
      <path class="st14" d="M1690.49,438.8l51.15-291.11h118.52c16.5,0,31.09,2.01,43.77,6.03,12.68,4.02,23.42,9.91,32.23,17.67,8.8,7.76,15.45,17.26,19.96,28.49,4.5,11.23,6.76,23.98,6.76,38.26,0,7.49-1.01,15.77-3.01,24.85-2.01,9.08-5.51,18.09-10.5,27.03-4.99,8.94-11.89,17.09-20.69,24.43-8.8,7.35-20,13.03-33.58,17.05l24.95,107.29h-69.03l-22.87-103.14h-55.73l-18.3,103.14h-63.63ZM1782.82,275.78h73.61c11.23,0,19.79-2.04,25.68-6.13,5.89-4.09,9.95-8.94,12.16-14.56,2.22-5.61,3.33-10.78,3.33-15.49,0-6.51-1.53-12.16-4.57-16.95-3.05-4.78-7.63-8.49-13.72-11.12-6.1-2.63-13.79-3.95-23.08-3.95h-61.76l-11.64,68.2Z"/>
      <path class="st3" d="M2138.16,461.29c-23.72,0-44.45-4.37-61.61-12.99-17.23-8.65-31.39-20.54-42.09-35.32-10.31-14.24-17.92-30.54-22.61-48.45-4.52-17.24-6.81-35.21-6.81-53.4,0-19.9,2.27-39.19,6.75-57.32,4.52-18.32,11.24-35.41,19.96-50.8,8.89-15.68,19.97-29.47,32.94-40.96,13.1-11.61,28.22-20.74,44.96-27.16,16.77-6.43,35.32-9.68,55.13-9.68,21.68,0,41.03,4.24,57.51,12.6,16.42,8.33,30.21,19.84,41.01,34.2,10.45,13.9,18.32,29.78,23.4,47.2,4.95,16.99,7.46,34.9,7.46,53.24,0,20.86-2.34,40.89-6.96,59.52-4.67,18.82-11.54,36.22-20.42,51.7-8.99,15.68-20.02,29.47-32.77,40.98-12.95,11.7-27.66,20.82-43.7,27.11-16.12,6.32-33.66,9.52-52.13,9.52ZM2160.2,220.92c-6.45,0-12.19,1.3-17.54,3.98-5.81,2.9-10.93,6.9-15.65,12.2-5.04,5.66-9.39,12.34-12.95,19.87-3.71,7.84-6.6,16.46-8.59,25.65-2.01,9.27-3.03,18.86-3.03,28.52s1.45,19.13,4.32,28.42c2.52,8.17,6.42,14.67,11.94,19.89,4.36,4.13,10.59,6.13,19.06,6.13,6.45,0,12.27-1.2,17.82-3.68,5.76-2.57,10.88-6.22,15.67-11.16,5.03-5.2,9.49-11.64,13.24-19.15,3.9-7.79,6.94-16.69,9.05-26.44,2.15-9.97,3.24-20.97,3.24-32.69,0-9.02-1.48-18.03-4.4-26.8-2.56-7.68-6.51-13.79-12.1-18.68-4.64-4.07-11.2-6.05-20.06-6.05Z"/>
      <path class="st14" d="M2138.16,443.79c-21.07,0-38.99-3.71-53.75-11.12-14.76-7.41-26.69-17.39-35.77-29.94-9.08-12.54-15.7-26.75-19.86-42.63-4.16-15.87-6.24-32.19-6.24-48.97,0-18.57,2.08-36.28,6.24-53.13,4.16-16.84,10.22-32.3,18.19-46.37,7.97-14.07,17.74-26.23,29.32-36.49,11.57-10.26,24.78-18.23,39.61-23.91,14.83-5.68,31.12-8.53,48.86-8.53,18.99,0,35.52,3.57,49.59,10.71,14.07,7.14,25.71,16.84,34.93,29.11,9.22,12.27,16.08,26.13,20.59,41.59,4.5,15.46,6.76,31.57,6.76,48.34,0,19.55-2.15,37.98-6.45,55.31-4.3,17.33-10.5,33.06-18.61,47.2-8.11,14.14-17.88,26.38-29.32,36.7-11.44,10.33-24.22,18.27-38.36,23.81-14.14,5.54-29.39,8.32-45.75,8.32ZM2137.74,383.08c8.87,0,17.19-1.73,24.95-5.2,7.76-3.46,14.8-8.45,21.11-14.97,6.31-6.51,11.75-14.35,16.32-23.5,4.57-9.15,8.07-19.34,10.5-30.57,2.42-11.23,3.64-23.36,3.64-36.39,0-10.95-1.77-21.73-5.3-32.33-3.54-10.6-9.25-19.37-17.15-26.3-7.9-6.93-18.44-10.4-31.61-10.4-9.15,0-17.61,1.94-25.37,5.82-7.76,3.88-14.73,9.29-20.9,16.22-6.17,6.93-11.4,14.94-15.7,24.02-4.3,9.08-7.59,18.89-9.88,29.42-2.29,10.54-3.43,21.28-3.43,32.23s1.7,22.56,5.09,33.58c3.39,11.02,8.94,20.17,16.63,27.45,7.69,7.28,18.05,10.92,31.09,10.92Z"/>
    </g>
    <g>
      <path class="st3" d="M3434.72,456.3l57.3-326.11h141.53c17.97,0,33.65,3.18,46.6,9.44,13,6.29,23.73,14.8,31.88,25.29,7.86,10.12,13.63,21.44,17.14,33.66,3.35,11.65,5.05,23.49,5.05,35.2,0,15.95-2.96,31.26-8.79,45.51-5.87,14.34-14.46,27.15-25.54,38.07-11.07,10.91-24.62,19.57-40.27,25.75-15.5,6.12-33.09,9.23-52.27,9.23h-55.18l-18.3,103.97h-99.16ZM3613.59,257.03c5.29,0,9.41-.91,11.92-2.64,3.01-2.07,5.08-4.32,6.31-6.89,1.39-2.88,2.12-5.47,2.12-7.49,0-4.23-.49-7.99-1.45-11.19-.46-1.54-1.02-2.16-1.56-2.59-.19-.1-1.58-.74-5.27-.74h-50.68l-5.72,31.54h44.33Z"/>
      <path class="st14" d="M3455.56,438.8l51.15-291.11h126.84c15.39,0,28.38,2.57,38.99,7.69,10.6,5.13,19.16,11.89,25.68,20.27,6.51,8.39,11.23,17.64,14.14,27.76,2.91,10.12,4.37,20.24,4.37,30.36,0,13.72-2.49,26.69-7.49,38.88-4.99,12.2-12.2,22.94-21.62,32.23-9.43,9.29-20.9,16.6-34.41,21.94-13.52,5.34-28.8,8.01-45.85,8.01h-69.87l-18.3,103.97h-63.63ZM3548.3,274.53h65.29c9.01,0,16.29-1.9,21.83-5.72,5.54-3.81,9.6-8.39,12.16-13.72,2.56-5.33,3.85-10.36,3.85-15.07,0-5.96-.73-11.36-2.18-16.22-1.46-4.85-4.06-8.7-7.8-11.54-3.74-2.84-9.01-4.26-15.8-4.26h-65.29l-12.06,66.54Z"/>
      <path class="st3" d="M3896.25,456.3l-22.87-103.14h-27.01l-18.3,103.14h-99.14l57.3-326.11h133.22c18.21,0,34.72,2.3,49.06,6.85,14.96,4.74,27.92,11.89,38.52,21.23,10.83,9.56,19.12,21.36,24.63,35.1,5.32,13.27,8.02,28.33,8.02,44.78,0,8.71-1.15,18.34-3.43,28.63-2.37,10.71-6.51,21.4-12.31,31.78-6.02,10.78-14.35,20.65-24.76,29.34-6.92,5.78-15.04,10.71-24.24,14.74l26.43,113.67h-105.12ZM3915.7,258.28c10.26,0,14.4-2.11,15.7-3.01,3.02-2.09,4.94-4.26,5.87-6.61,1.38-3.48,2.1-6.62,2.1-9.06,0-3.14-.6-5.61-1.83-7.54-1.13-1.77-3.06-3.23-5.91-4.46-3.81-1.64-9.4-2.52-16.14-2.52h-46.99l-5.67,33.2h52.87Z"/>
      <path class="st14" d="M3749.77,438.8l51.15-291.11h118.52c16.5,0,31.09,2.01,43.77,6.03,12.68,4.02,23.42,9.91,32.23,17.67,8.8,7.76,15.45,17.26,19.96,28.49,4.5,11.23,6.76,23.98,6.76,38.26,0,7.49-1.01,15.77-3.01,24.85-2.01,9.08-5.51,18.09-10.5,27.03-4.99,8.94-11.89,17.09-20.69,24.43-8.8,7.35-20,13.03-33.58,17.05l24.95,107.29h-69.03l-22.87-103.14h-55.73l-18.3,103.14h-63.63ZM3842.1,275.78h73.61c11.23,0,19.79-2.04,25.68-6.13,5.89-4.09,9.95-8.94,12.16-14.56,2.22-5.61,3.33-10.78,3.33-15.49,0-6.51-1.53-12.16-4.57-16.95-3.05-4.78-7.63-8.49-13.72-11.12-6.1-2.63-13.79-3.95-23.08-3.95h-61.76l-11.64,68.2Z"/>
      <path class="st3" d="M4197.44,461.29c-23.72,0-44.45-4.37-61.61-12.99-17.23-8.65-31.39-20.54-42.09-35.32-10.31-14.24-17.92-30.54-22.61-48.45-4.52-17.24-6.81-35.21-6.81-53.4,0-19.9,2.27-39.19,6.75-57.32,4.52-18.32,11.24-35.41,19.96-50.8,8.89-15.68,19.97-29.47,32.94-40.96,13.1-11.61,28.22-20.74,44.96-27.16,16.77-6.43,35.32-9.68,55.13-9.68,21.68,0,41.03,4.24,57.51,12.6,16.42,8.33,30.21,19.84,41.01,34.2,10.45,13.9,18.32,29.78,23.4,47.2,4.95,16.99,7.46,34.9,7.46,53.24,0,20.86-2.34,40.89-6.96,59.52-4.67,18.82-11.54,36.22-20.42,51.7-8.99,15.68-20.02,29.47-32.77,40.98-12.95,11.7-27.66,20.82-43.7,27.11-16.12,6.32-33.66,9.52-52.13,9.52ZM4219.48,220.92c-6.45,0-12.19,1.3-17.54,3.98-5.81,2.9-10.93,6.9-15.65,12.2-5.04,5.66-9.39,12.34-12.95,19.87-3.71,7.84-6.6,16.46-8.59,25.65-2.01,9.27-3.03,18.86-3.03,28.52s1.45,19.13,4.32,28.42c2.52,8.17,6.42,14.67,11.94,19.89,4.36,4.13,10.59,6.13,19.06,6.13,6.45,0,12.27-1.2,17.82-3.68,5.76-2.57,10.88-6.22,15.67-11.16,5.03-5.2,9.49-11.64,13.24-19.15,3.9-7.79,6.94-16.69,9.05-26.44,2.15-9.97,3.24-20.97,3.24-32.69,0-9.02-1.48-18.03-4.4-26.8-2.56-7.68-6.51-13.79-12.1-18.68-4.64-4.07-11.2-6.05-20.06-6.05Z"/>
      <path class="st14" d="M4197.44,443.79c-21.07,0-38.99-3.71-53.75-11.12-14.76-7.41-26.69-17.39-35.77-29.94-9.08-12.54-15.7-26.75-19.86-42.63-4.16-15.87-6.24-32.19-6.24-48.97,0-18.57,2.08-36.28,6.24-53.13,4.16-16.84,10.22-32.3,18.19-46.37,7.97-14.07,17.74-26.23,29.32-36.49,11.57-10.26,24.78-18.23,39.61-23.91,14.83-5.68,31.12-8.53,48.86-8.53,18.99,0,35.52,3.57,49.59,10.71,14.07,7.14,25.71,16.84,34.93,29.11,9.22,12.27,16.08,26.13,20.59,41.59,4.5,15.46,6.76,31.57,6.76,48.34,0,19.55-2.15,37.98-6.45,55.31-4.3,17.33-10.5,33.06-18.61,47.2-8.11,14.14-17.88,26.38-29.32,36.7-11.44,10.33-24.22,18.27-38.36,23.81-14.14,5.54-29.39,8.32-45.75,8.32ZM4197.02,383.08c8.87,0,17.19-1.73,24.95-5.2,7.76-3.46,14.8-8.45,21.11-14.97,6.31-6.51,11.75-14.35,16.32-23.5,4.57-9.15,8.07-19.34,10.5-30.57,2.42-11.23,3.64-23.36,3.64-36.39,0-10.95-1.77-21.73-5.3-32.33-3.54-10.6-9.25-19.37-17.15-26.3-7.9-6.93-18.44-10.4-31.61-10.4-9.15,0-17.61,1.94-25.37,5.82-7.76,3.88-14.73,9.29-20.9,16.22-6.17,6.93-11.4,14.94-15.7,24.02-4.3,9.08-7.59,18.89-9.88,29.42-2.29,10.54-3.43,21.28-3.43,32.23s1.7,22.56,5.09,33.58c3.39,11.02,8.94,20.17,16.63,27.45,7.69,7.28,18.05,10.92,31.09,10.92Z"/>
    </g>
    <g>
      <g>
        <polygon class="st3" points="3033.76 465.82 3085.76 170.9 3060.38 170.9 3075.28 86.4 3166.97 61.72 3238.05 61.72 3166.8 465.82 3033.76 465.82"/>
        <path class="st14" d="M3150.26,445.74h-92.89l52-294.92h-25.38l8.68-49.24,73.54-19.8h48.22l-64.17,363.95Z"/>
      </g>
      <g>
        <polygon class="st3" points="3227.29 465.82 3279.29 170.9 3253.91 170.9 3268.81 86.4 3360.5 61.72 3431.58 61.72 3360.33 465.82 3227.29 465.82"/>
        <path class="st14" d="M3343.79,445.74h-92.89l52-294.92h-25.38l8.68-49.24,73.54-19.8h48.22l-64.17,363.95Z"/>
      </g>
    </g>
    <g>
      <g>
        <path class="st2" d="M3045.67,28.3c-3.3-8.66-9.79-13.37-19.29-13.97-7.45-.48-16.71,1.59-28.31,6.31-10.98,4.46-22.27,10.61-30.89,15.46-8.08,4.56-15.22,8.7-22.78,13.08l-6.53,3.78c-20.75-17.3-45.61-29.72-69.5-36.14-31.86-8.55-79.35-9.73-108.5,4.59-19.71,9.68-51.11,30.52-61.53,54.48l-.71-.11c-19.69-3-42.51-5.9-62.53-4.66-26,1.61-40.43,10.16-42.9,25.42-1.75,10.83.4,19.62,6.4,26.14,10.12,11.01,29.46,13.77,49.4,13.77,11.21,0,22.62-.87,32.69-1.64,3.15-.24,6.13-.47,8.88-.65,2.64,37.84,24.7,81.96,66.84,133.8,15.33,18.82,43.37,44.9,76.14,61.56,37.27,18.96,69.72,19.86,93.83,2.63,48.65-34.75,62.26-132.93,59.53-190.47-.64-13.55-3.86-26.19-8.91-37.91l.4-.25c2.38-1.5,5.97-3.7,10.13-6.24,3.92-2.39,8.25-5.04,12.31-7.56,7.21-4.48,16.55-10.49,24.81-17.18,8.78-7.11,14.84-13.76,18.53-20.33,4.6-8.17,5.44-16.21,2.51-23.89Z"/>
        <path class="st1" d="M2817.52,10.49c18.05,0,36.12,2.38,50.84,6.33,23.89,6.42,48.75,18.85,69.5,36.14l6.53-3.78c7.56-4.38,14.7-8.52,22.78-13.08,8.62-4.86,19.91-11,30.89-15.46,10.52-4.28,19.11-6.37,26.17-6.37.73,0,1.44.02,2.14.07,9.5.61,15.99,5.31,19.29,13.97,2.93,7.68,2.09,15.72-2.51,23.89-3.69,6.57-9.76,13.22-18.53,20.33-8.26,6.69-17.6,12.69-24.81,17.18-4.06,2.52-8.39,5.17-12.31,7.56-4.16,2.54-7.75,4.74-10.13,6.24l-.4.25c5.05,11.73,8.28,24.36,8.91,37.91,2.73,57.55-10.88,155.73-59.53,190.47-11.47,8.2-24.82,12.29-39.68,12.29-16.38,0-34.6-4.98-54.14-14.92-32.77-16.66-60.81-42.74-76.14-61.56-42.13-51.84-64.19-95.97-66.84-133.8-2.76.18-5.74.41-8.88.65-10.07.77-21.47,1.64-32.69,1.64-19.94,0-39.27-2.76-49.4-13.77-5.99-6.52-8.15-15.31-6.4-26.14,2.47-15.26,16.9-23.81,42.9-25.42,3.26-.2,6.6-.3,9.99-.3,17.39,0,36.07,2.44,52.55,4.96l.71.11c10.42-23.95,41.82-44.8,61.53-54.48,15.68-7.7,36.66-10.92,57.66-10.92M2817.52.48v10s0-10,0-10c-17.22,0-41.97,2.07-62.07,11.94-7.96,3.91-45.96,23.68-62.75,52.5-14.92-2.16-31.63-4.11-47.63-4.11-3.68,0-7.25.11-10.61.31-38.97,2.42-49.87,19.72-52.15,33.81-2.82,17.45,3.29,28.39,8.91,34.5,10.67,11.6,28.7,17,56.76,17,11.32,0,22.64-.85,32.69-1.61,5.56,37.64,27.88,80.11,67.96,129.43,16.01,19.66,45.26,46.83,79.37,64.17,20.87,10.62,40.61,16.01,58.68,16.01,17.05,0,32.36-4.76,45.5-14.16,12.73-9.09,23.9-22.45,33.2-39.72,7.98-14.82,14.62-32.54,19.71-52.65,8.36-33,12.4-72.89,10.79-106.72-.53-11.23-2.73-22.4-6.56-33.31,1.07-.66,2.21-1.35,3.39-2.07,3.91-2.39,8.3-5.07,12.39-7.61,7.46-4.64,17.14-10.86,25.83-17.9,9.78-7.92,16.63-15.51,20.96-23.2,6.04-10.73,7.12-21.92,3.14-32.36-4.67-12.29-14.62-19.53-28-20.39-.9-.06-1.84-.09-2.78-.09-8.38,0-18.17,2.33-29.94,7.11-11.5,4.68-23.16,11.02-32.03,16.02-8.14,4.59-15.3,8.74-22.89,13.14l-.61.35c-19.98-15.39-43.81-27.26-67.82-33.72-16.03-4.3-35.01-6.67-53.44-6.67h0Z"/>
      </g>
      <path d="M3025.98,20.63c-6.48-.41-14.83,1.5-25.53,5.85-10.65,4.33-21.72,10.35-30.17,15.12-8.05,4.54-15.17,8.67-22.72,13.04l-2,1.16c12.27,12.06,21.81,26.11,31.11,40.7,2.12-1.31,4.7-2.89,7.54-4.62,3.9-2.38,8.22-5.02,12.27-7.54,7.06-4.39,16.18-10.25,24.17-16.72,8.15-6.6,13.71-12.66,17.01-18.52,3.69-6.55,4.38-12.62,2.11-18.55-2.4-6.32-6.79-9.47-13.79-9.92Z"/>
      <path d="M2598.42,97.54c-1.44,8.94.13,15.77,4.81,20.86,13.74,14.94,51.78,12.03,76.96,10.1,2.1-.16,4.12-.32,6.06-.46.12-13.08,1.2-29.5,6.7-46.6-12.08-1.81-30.59-4.37-48.06-4.37-22.82,0-43.86,4.37-46.47,20.47Z"/>
      <ellipse class="st18" cx="2898.43" cy="296.97" rx="30.56" ry="16.66" transform="translate(-14.79 344.02) rotate(-6.78)"/>
      <path class="st1" d="M2930.29,137.36c9.93,0,17.99,10.06,17.99,22.47s-8.05,22.47-17.99,22.47-17.98-10.06-17.98-22.47c0-12.41,8.05-22.47,17.98-22.47Z"/>
      <path class="st2" d="M2867.35,292.44c8.68-8.72,26.1-12.33,37.93-13.11,6.81-.44,14.56.21,19.98,4.83,4.61,3.95,7.54,11.47,5.08,17.33-5.07,11.96-25.02,12.99-35.83,13.2-6.66.13-13.54-.18-20.03-1.76-8.83-2.15-10.77-13.22-7.13-20.49Z"/>
      <path class="st2" d="M2812.71,42.13c9.58-4.37,25.12-3.43,35.05-.47,18.5,5.52,12.56,104.56,10.75,105.13-13.19-16.62-67.21-83.62-67.21-83.62.69-9.2,13.97-17.65,21.4-21.03Z"/>
      <path class="st1" d="M2784.2,155.34c9.93,0,17.98,10.06,17.98,22.48s-8.04,22.48-17.98,22.48-17.99-10.06-17.99-22.48,8.06-22.48,17.99-22.48Z"/>
      <path class="st19" d="M2812.71,42.13c9.58-4.37,25.11-3.43,35.05-.47,18.5,5.52,12.56,104.56,10.75,105.13-13.18-16.62-67.2-83.62-67.2-83.62.69-9.2,13.97-17.65,21.4-21.03Z"/>
      <circle class="st1" cx="2784.2" cy="177.82" r="11.24"/>
      <circle class="st1" cx="2930.28" cy="159.84" r="11.18"/>
      <ellipse class="st0" cx="2898.43" cy="296.96" rx="32.17" ry="17.54" transform="translate(-14.79 344.02) rotate(-6.78)"/>
    </g>
  </g>
  <g id="Layer_1_copy_5">
    <g>
      <g>
        <path class="st2" d="M464.07,27.81c-3.3-8.66-9.79-13.37-19.29-13.97-7.45-.48-16.71,1.59-28.31,6.31-10.98,4.46-22.27,10.61-30.89,15.46-8.08,4.56-15.22,8.7-22.78,13.08l-6.53,3.78c-20.75-17.3-45.61-29.72-69.5-36.14-31.86-8.55-79.35-9.73-108.5,4.59-19.71,9.68-51.11,30.52-61.53,54.48l-.71-.11c-19.69-3-42.51-5.9-62.53-4.66-26,1.61-40.43,10.16-42.9,25.42-1.75,10.83.4,19.62,6.4,26.14,10.12,11.01,29.46,13.77,49.4,13.77,11.21,0,22.62-.87,32.69-1.64,3.15-.24,6.13-.47,8.88-.65,2.64,37.84,24.7,81.96,66.84,133.8,15.33,18.82,43.37,44.9,76.14,61.56,37.27,18.96,69.72,19.86,93.83,2.63,48.65-34.75,62.26-132.93,59.53-190.47-.64-13.55-3.86-26.19-8.91-37.91l.4-.25c2.38-1.5,5.97-3.7,10.13-6.24,3.92-2.39,8.25-5.04,12.31-7.56,7.21-4.48,16.55-10.49,24.81-17.18,8.78-7.11,14.84-13.76,18.53-20.33,4.6-8.17,5.44-16.21,2.51-23.89Z"/>
        <path class="st1" d="M235.91,10c18.05,0,36.12,2.38,50.84,6.33,23.89,6.42,48.75,18.85,69.5,36.14l6.53-3.78c7.56-4.38,14.7-8.52,22.78-13.08,8.62-4.86,19.91-11,30.89-15.46,10.52-4.28,19.11-6.37,26.17-6.37.73,0,1.44.02,2.14.07,9.5.61,15.99,5.31,19.29,13.97,2.93,7.68,2.09,15.72-2.51,23.89-3.69,6.57-9.76,13.22-18.53,20.33-8.26,6.69-17.6,12.69-24.81,17.18-4.06,2.52-8.39,5.17-12.31,7.56-4.16,2.54-7.75,4.74-10.13,6.24l-.4.25c5.05,11.73,8.28,24.36,8.91,37.91,2.73,57.55-10.88,155.73-59.53,190.47-11.47,8.2-24.82,12.29-39.68,12.29-16.38,0-34.6-4.98-54.14-14.92-32.77-16.66-60.81-42.74-76.14-61.56-42.13-51.84-64.19-95.97-66.84-133.8-2.76.18-5.74.41-8.88.65-10.07.77-21.47,1.64-32.69,1.64-19.94,0-39.27-2.76-49.4-13.77-5.99-6.52-8.15-15.31-6.4-26.14,2.47-15.26,16.9-23.81,42.9-25.42,3.26-.2,6.6-.3,9.99-.3,17.39,0,36.07,2.44,52.55,4.96l.71.11c10.42-23.95,41.82-44.8,61.53-54.48,15.68-7.7,36.66-10.92,57.66-10.92M235.91,0v10S235.91,0,235.91,0c-17.22,0-41.97,2.07-62.07,11.94-7.96,3.91-45.96,23.68-62.75,52.5-14.92-2.16-31.63-4.11-47.63-4.11-3.68,0-7.25.11-10.61.31C13.88,63.06,2.99,80.36.71,94.45c-2.82,17.45,3.29,28.39,8.91,34.5,10.67,11.6,28.7,17,56.76,17,11.32,0,22.64-.85,32.69-1.61,5.56,37.64,27.88,80.11,67.96,129.43,16.01,19.66,45.26,46.83,79.37,64.17,20.87,10.62,40.61,16.01,58.68,16.01,17.05,0,32.36-4.76,45.5-14.16,12.73-9.09,23.9-22.45,33.2-39.72,7.98-14.82,14.62-32.54,19.71-52.65,8.36-33,12.4-72.89,10.79-106.72-.53-11.23-2.73-22.4-6.56-33.31,1.07-.66,2.21-1.35,3.39-2.07,3.91-2.39,8.3-5.07,12.39-7.61,7.46-4.64,17.14-10.86,25.83-17.9,9.78-7.92,16.63-15.51,20.96-23.2,6.04-10.73,7.12-21.92,3.14-32.36-4.67-12.29-14.62-19.53-28-20.39-.9-.06-1.84-.09-2.78-.09-8.38,0-18.17,2.33-29.94,7.11-11.5,4.68-23.16,11.02-32.03,16.02-8.14,4.59-15.3,8.74-22.89,13.14l-.61.35c-19.98-15.39-43.81-27.26-67.82-33.72C273.32,2.37,254.34,0,235.91,0h0Z"/>
      </g>
      <path d="M444.38,20.14c-6.48-.41-14.83,1.5-25.53,5.85-10.65,4.33-21.72,10.35-30.17,15.12-8.05,4.54-15.17,8.67-22.72,13.04l-2,1.16c12.27,12.06,21.81,26.11,31.11,40.7,2.12-1.31,4.7-2.89,7.54-4.62,3.9-2.38,8.22-5.02,12.27-7.54,7.06-4.39,16.18-10.25,24.17-16.72,8.15-6.6,13.71-12.66,17.01-18.52,3.69-6.55,4.38-12.62,2.11-18.55-2.4-6.32-6.79-9.47-13.79-9.92Z"/>
      <path d="M16.81,97.06c-1.44,8.94.13,15.77,4.81,20.86,13.74,14.94,51.78,12.03,76.96,10.1,2.1-.16,4.12-.32,6.06-.46.12-13.08,1.2-29.5,6.7-46.6-12.08-1.81-30.59-4.37-48.06-4.37-22.82,0-43.86,4.37-46.47,20.47Z"/>
      <ellipse class="st18" cx="316.82" cy="296.49" rx="30.56" ry="16.66" transform="translate(-32.77 39.45) rotate(-6.78)"/>
      <path class="st1" d="M348.68,136.88c9.93,0,17.99,10.06,17.99,22.47s-8.05,22.47-17.99,22.47-17.98-10.06-17.98-22.47c0-12.41,8.05-22.47,17.98-22.47Z"/>
      <path class="st2" d="M285.75,291.96c8.68-8.72,26.1-12.33,37.93-13.11,6.81-.44,14.56.21,19.98,4.83,4.61,3.95,7.54,11.47,5.08,17.33-5.07,11.96-25.02,12.99-35.83,13.2-6.66.13-13.54-.18-20.03-1.76-8.83-2.15-10.77-13.22-7.13-20.49Z"/>
      <path class="st2" d="M231.1,41.65c9.58-4.37,25.12-3.43,35.05-.47,18.5,5.52,12.56,104.56,10.75,105.13-13.19-16.62-67.21-83.62-67.21-83.62.69-9.2,13.97-17.65,21.4-21.03Z"/>
      <path class="st1" d="M202.6,154.86c9.93,0,17.98,10.06,17.98,22.48s-8.04,22.48-17.98,22.48-17.99-10.06-17.99-22.48,8.06-22.48,17.99-22.48Z"/>
      <path class="st19" d="M231.1,41.65c9.58-4.37,25.11-3.43,35.05-.47,18.5,5.52,12.56,104.56,10.75,105.13-13.18-16.62-67.2-83.62-67.2-83.62.69-9.2,13.97-17.65,21.4-21.03Z"/>
      <circle class="st1" cx="202.59" cy="177.34" r="11.24"/>
      <circle class="st1" cx="348.67" cy="159.35" r="11.18"/>
      <ellipse class="st0" cx="316.82" cy="296.47" rx="32.17" ry="17.54" transform="translate(-32.76 39.45) rotate(-6.78)"/>
    </g>
    <path class="st7" d="M449.32,170.4h262.83c61.89,0,78.6,29.85,78.6,72.37v20.04c0,33.63-14.92,68.79-61.46,68.79h-224.46v124.72"/>
    <polyline class="st11" points="1815.87 456.32 1815.87 172.17 1864.4 172.17 1892.25 172.17 2012.94 395.3 2022.18 412.39 2040.66 412.39 2049.91 395.3 2170.6 172.17 2246.96 172.17 2246.96 456.32"/>
    <path class="st9" d="M1074.1,419.99h-17.08s-39.7,0-39.7,0c-1.03,0-7.51,0-8.47-.02-44.54-.44-86.54-7.51-101.05-60.31-3.27-8.16-5.21-35.17-5.21-47.42v-58.42c0-77.28,47.77-90.12,102.77-90.69,2.47-.06,7.61-.06,9.44-.06h45.22s14.08,0,14.08,0h14.08s45.22,0,45.22,0c1.83,0,6.97,0,9.44.06,55,.57,102.77,13.41,102.77,90.69v58.42c0,12.25-1.93,39.27-5.21,47.42-14.51,52.8-56.52,59.87-101.05,60.31-.97.01-7.44.02-8.47.02h-56.78Z"/>
    <path class="st10" d="M1300.61,420.25h259.91c76.15,0,101.53-8.24,101.53-64.14,0-61.02-23.6-66.58-164.11-66.35-127.36.22-141.84-9.14-141.84-62.8,0-37.86,10.24-64.13,83.73-64.13h301.26"/>
    <g>
      <g>
        <polygon class="st4" points="2344.29 455.82 2401.59 129.71 2635.14 129.71 2618.8 223.85 2483.96 223.85 2480.87 241.1 2555.87 241.1 2539.52 335.24 2464.01 335.24 2459.49 361.26 2603.13 361.26 2586.17 455.82 2344.29 455.82"/>
        <path class="st17" d="M2364.57,438.79l51.32-292.05h199.01l-10.43,60.08h-134.76l-9.18,51.32h75.1l-10.43,60.08h-75.52l-10.43,60.08h143.52l-10.85,60.5h-207.36Z"/>
      </g>
      <g>
        <path class="st4" d="M2862.84,455.82l-10.85-56.74h-83.44l-30.87,56.74h-106.96l179.83-326.11h87.45l64.76,326.11h-99.91ZM2835.59,307.02l-4.77-25.81-14.08,25.81h18.85Z"/>
        <path class="st17" d="M2659.55,438.79l161.04-292.05h63.42l57.99,292.05h-65.09l-10.85-56.74h-107.64l-30.87,56.74h-68.01ZM2788.05,324.05h68.01l-13.35-72.18c-.28-1.53-.7-3.82-1.25-6.88-.56-3.06-1.08-6.12-1.56-9.18-.49-3.06-.8-5.35-.94-6.88-.7,1.67-1.7,3.9-3.02,6.68-1.32,2.78-2.71,5.56-4.17,8.34-1.46,2.78-2.68,5.01-3.65,6.68l-40.05,73.43Z"/>
      </g>
      <g>
        <path class="st4" d="M3170.47,455.82l-22.95-103.47h-27.97l-18.36,103.47h-98.39l57.3-326.11h133.2c18.22,0,34.72,2.3,49.06,6.85,14.94,4.74,27.87,11.87,38.45,21.19,10.81,9.53,19.07,21.31,24.57,35.01,5.31,13.25,8.01,28.29,8.01,44.73,0,8.7-1.15,18.32-3.43,28.61-2.37,10.69-6.5,21.37-12.29,31.74-6,10.76-14.32,20.61-24.72,29.29-7.01,5.85-15.24,10.83-24.59,14.88l26.47,113.82h-104.37ZM3189.56,258.21c10.44,0,14.7-2.18,16.05-3.11,3.12-2.16,5.1-4.41,6.08-6.87,1.42-3.61,2.15-6.73,2.15-9.28,0-3.25-.63-5.82-1.92-7.85-1.19-1.87-3.21-3.41-6.16-4.68-3.89-1.68-9.56-2.57-16.4-2.57h-47.59l-5.87,34.36h53.66Z"/>
        <path class="st17" d="M3023.09,438.79l51.32-292.05h118.91c16.55,0,31.19,2.02,43.91,6.05,12.72,4.04,23.5,9.94,32.33,17.73,8.83,7.79,15.51,17.31,20.03,28.58,4.52,11.27,6.78,24.06,6.78,38.38,0,7.51-1.01,15.82-3.02,24.93-2.02,9.11-5.53,18.15-10.54,27.12s-11.93,17.14-20.76,24.51c-8.83,7.37-20.06,13.07-33.69,17.11l25.03,107.64h-69.26l-22.95-103.47h-55.91l-18.36,103.47h-63.83ZM3115.71,275.24h73.85c11.27,0,19.85-2.05,25.76-6.15,5.91-4.1,9.98-8.97,12.2-14.6,2.22-5.63,3.34-10.81,3.34-15.54,0-6.54-1.53-12.2-4.59-17-3.06-4.8-7.65-8.52-13.77-11.16-6.12-2.64-13.84-3.96-23.16-3.96h-61.96l-11.68,68.42Z"/>
      </g>
      <g>
        <polygon class="st4" points="3389.52 455.82 3430.41 224.68 3351.25 224.68 3367.51 129.71 3624.44 129.71 3608.18 224.68 3528.41 224.68 3487.52 455.82 3389.52 455.82"/>
        <path class="st17" d="M3409.82,438.79l40.89-231.14h-79.27l10.43-60.91h222.38l-10.43,60.91h-79.69l-40.89,231.14h-63.42Z"/>
      </g>
      <g>
        <polygon class="st4" points="3783.43 455.82 3804.29 335.66 3728.66 335.66 3707.39 455.82 3608.99 455.82 3666.29 129.71 3764.76 129.71 3744.74 241.94 3820.7 241.94 3840.73 129.71 3939.1 129.71 3881.8 455.82 3783.43 455.82"/>
        <path class="st17" d="M3629.27,438.79l51.32-292.05h63.83l-20.03,112.23h110.56l20.03-112.23h63.83l-51.32,292.05h-63.83l20.86-120.16h-110.14l-21.28,120.16h-63.83Z"/>
      </g>
    </g>
  </g>
</svg>